<svg width="1047" height="1181" viewBox="0 0 1047 1181" fill="none" xmlns="http://www.w3.org/2000/svg">
<path fill-rule="evenodd" clip-rule="evenodd" d="M13.241 0.346574C8.83997 1.52457 5.35697 4.39359 2.58897 9.11559C0.282966 13.0506 -0.0570345 14.7096 0.00696549 21.7236C0.0849655 30.3386 6.03198 67.9356 9.37598 80.9606C10.483 85.2716 12.05 94.4186 12.857 101.288C13.665 108.156 14.548 115.131 14.821 116.788C15.093 118.444 15.497 121.6 15.719 123.8C17.349 139.951 26.6129 219.427 27.7839 227.3C38.0359 296.234 50.554 351.63 67.257 401.986C88.403 465.732 95.269 494.818 95.309 520.806C95.35 548.104 91.201 569.208 70.34 647.8C68.15 656.05 65.659 665.725 64.803 669.3C63.948 672.875 61.942 681.2 60.346 687.8C52.342 720.895 48.3259 753.79 48.3279 786.25C48.3289 813.056 51.86 839.904 59.193 868.862C61.291 877.147 62.851 885.022 62.66 886.362C62.469 887.703 59.872 896.45 56.89 905.8C40.535 957.073 29.431 1005.73 16.838 1081.3C16.518 1083.22 16.0629 1085.47 15.8279 1086.3C15.5929 1087.12 14.676 1095.9 13.791 1105.8C12.905 1115.7 11.609 1128.75 10.911 1134.8C8.17299 1158.53 9.15297 1169.22 14.611 1175.15C19.235 1180.17 27.1709 1181.65 34.0729 1178.76C42.7559 1175.13 45.107 1170.29 46.329 1153.52C48.132 1128.76 54.666 1075.61 57.79 1060.3C58.07 1058.92 59.231 1052.85 60.369 1046.8C67.916 1006.69 76.759 968.252 83.261 947.3C84.883 942.075 87.756 932.625 89.647 926.3C91.537 919.975 94.653 909.625 96.571 903.3C98.489 896.975 100.472 890.225 100.976 888.3C102.211 883.591 104.731 883.455 110.327 887.795C112.802 889.715 119.327 894.272 124.827 897.923C136.421 905.619 153.142 917.962 165.398 927.87C191.466 948.945 196.248 952.988 214.327 969.229C234.507 987.356 260.998 1013.4 276.38 1030.23C282.126 1036.52 289.222 1043.95 292.149 1046.73C296.98 1051.33 300.946 1055.86 322.959 1081.93C326.736 1086.41 333.885 1094.73 338.844 1100.43C347.868 1110.81 367.057 1135.25 383.876 1157.8L392.827 1169.8L522.72 1170.05C625.67 1170.25 652.927 1170.05 654.129 1169.05C655.498 1167.92 665.602 1154.8 669.327 1149.31C672.072 1145.27 683.984 1129.82 685.858 1127.87C686.425 1127.28 689.114 1123.87 691.833 1120.3C694.552 1116.72 697.609 1112.9 698.627 1111.8C699.645 1110.7 703.025 1106.65 706.139 1102.8C709.253 1098.95 716.314 1090.62 721.83 1084.3C727.347 1077.97 734.307 1069.87 737.298 1066.3C740.288 1062.72 745.231 1057.1 748.281 1053.79C751.331 1050.48 758.327 1042.83 763.827 1036.79C775.114 1024.39 803.006 996.274 811.327 988.915C814.352 986.24 820.675 980.395 825.379 975.926C830.082 971.456 838.855 963.525 844.875 958.3C857.103 947.686 859.578 945.531 866.985 939.042C869.822 936.556 874.312 933.03 876.962 931.207C879.613 929.383 882.467 927.336 883.304 926.657C890.763 920.614 897.478 915.511 906.827 908.782C912.877 904.427 918.052 900.625 918.327 900.332C920.624 897.888 941.376 884.3 942.812 884.3C943.558 884.3 944.476 885.702 944.852 887.416C945.229 889.129 947.493 896.506 949.884 903.809C975.731 982.757 992.249 1061.82 1000.26 1144.95C1001.38 1156.58 1002.78 1167.38 1003.38 1168.95C1005.7 1175.08 1013.38 1180.23 1020.26 1180.28C1025.72 1180.31 1031.83 1176.75 1035.37 1171.49C1038.51 1166.83 1038.52 1166.74 1037.98 1156.8C1037.09 1140.14 1031.53 1091.1 1027.73 1066.3C1021.21 1023.69 1006.44 959.204 994.176 919.8C991.951 912.65 989.439 904.55 988.594 901.8C987.748 899.05 986.217 894.227 985.192 891.082C983.285 885.235 982.565 875.549 984.233 878.182C985.338 879.927 985.283 880.106 989.909 859.8C996.521 830.78 998.421 814.893 998.399 788.8C998.389 776.15 998.111 762.2 997.783 757.8C996.853 745.344 993.397 722.187 990.172 706.8C988.558 699.1 986.108 687.4 984.728 680.8C983.347 674.2 979.582 659.125 976.361 647.3C973.14 635.475 968.388 617.475 965.802 607.3C953.704 559.697 952.327 550.966 952.327 521.838C952.327 504.905 952.721 499.476 954.836 487.275C957.538 471.686 963.523 449.274 968.851 434.8C977.334 411.755 982.787 394.636 990.514 366.8C994.921 350.923 1003.07 314.846 1010.17 279.8C1016.89 246.576 1023.72 196.144 1029.8 134.8C1032.74 105.136 1034.29 94.3496 1037.84 78.7996C1042.25 59.5326 1046.45 33.0956 1046.58 23.7996C1046.72 14.3066 1045.55 10.5026 1040.96 5.45458C1034.91 -1.20043 1023.16 -1.60244 1016.48 4.61656C1012.34 8.47156 1011.3 11.9796 1008.34 32.0786C1005.11 54.0596 1003.49 62.2726 999.888 75.0706C988.292 116.256 972.424 145.631 948.701 169.832C917.194 201.973 883.945 219.123 842.827 224.443C830.133 226.085 824.141 226.375 813.827 225.848C802.438 225.266 785.917 223.399 778.327 221.836C776.952 221.553 771.327 220.41 765.827 219.295C756.597 217.425 750.392 215.873 718.327 207.415C701.686 203.026 660.55 188.52 645.827 181.85C644.177 181.102 639.902 179.283 636.327 177.808C609.438 166.71 583.579 144.589 573.283 123.878C567.734 112.716 554.533 109.183 545.466 116.432C535.451 124.44 537.79 140.316 551.731 158.961C576.303 191.823 610.794 211.914 682.827 235.322C742.485 254.709 796.304 265.26 827.827 263.747C844.787 262.934 870.874 258.011 890.327 251.953C901.779 248.386 909.558 253.838 909.558 265.431C909.558 272.066 906.18 276.345 897.51 280.696C888.921 285.006 865.582 290.823 848.827 292.83C836.113 294.352 806.164 294.942 803.012 293.732C799.23 292.281 799.821 295.062 806.271 309.062C816.136 330.471 821.398 348.371 825.449 374.3C830.917 409.308 822.91 450.571 802.21 494.057C799.524 499.698 797.327 505.191 797.327 506.263C797.327 507.336 798.651 514.645 800.268 522.506C806.386 552.236 807.368 560.38 807.368 581.407C807.368 600.018 806.158 613.263 803.174 627.3C797.873 652.246 786.315 682.062 773.32 704.312L769.134 711.48L769.838 739.14C770.819 777.721 768.193 822.752 763.735 843.8C762.919 847.65 761.344 855.75 760.236 861.8C753.679 897.573 736.166 952.621 718.083 994.3C711.562 1009.33 684.494 1064.6 678.921 1074.26C676.531 1078.41 670.63 1088.77 665.807 1097.3C651.356 1122.84 649.977 1124.3 640.281 1124.3C633.767 1124.3 629.854 1122.03 627.362 1116.82C624.744 1111.34 625.571 1106.54 630.691 1097.48C632.966 1093.46 636.455 1087.21 638.444 1083.61C640.433 1080.01 642.587 1076.32 643.23 1075.43C649.723 1066.38 681.217 1003 690.862 979.571C695.564 968.147 700.799 955.65 702.496 951.8C711.387 931.633 725.368 883.574 730.861 854.3C732.642 844.807 735.92 822.529 737.261 810.8C740.204 785.067 740.926 732.576 738.373 729.965C737.924 729.506 736.268 729.795 734.692 730.607C731.752 732.124 711.247 737.979 698.897 740.828C687.091 743.552 652.457 749.093 639.327 750.359C602.939 753.866 567.504 745.213 544.183 727.126C542.179 725.572 540.266 724.3 539.933 724.3C539.6 724.3 539.317 738.138 539.305 755.05C539.285 782.919 539.108 786.186 537.414 789.916C535.534 794.056 530.657 798.513 526.692 799.715C521.36 801.331 512.532 796.884 508.991 790.8C508.202 789.444 507.666 778.428 507.327 756.596L506.827 724.393L499.254 729.596C478.324 743.978 453.152 751.3 424.641 751.3C400.09 751.3 342.117 740.972 315.402 731.838C311.318 730.442 307.818 729.3 307.624 729.3C306.9 729.3 307.634 788.274 308.504 800.01C309.452 812.801 313.116 838.517 315.811 851.3C316.681 855.425 318.757 865.325 320.425 873.3C326.3 901.388 342.716 951.719 353.884 975.882C355.897 980.237 361.561 992.575 366.472 1003.3C377.71 1027.84 405.736 1080.73 416.826 1098.31C419.775 1102.99 420.434 1105.3 420.479 1111.13C420.526 1117.15 418.961 1119.88 413.992 1122.45C406.905 1126.11 399.645 1124.85 394.915 1119.14C390.969 1114.38 376.5 1089.57 366.726 1070.8C362.143 1062 357.498 1053.22 356.405 1051.3C351.95 1043.46 335.16 1009 331.984 1001.18C330.112 996.572 326.543 988.075 324.053 982.3C306.775 942.219 287.605 877.53 283.307 844.8C282.73 840.4 281.849 834.55 281.35 831.8C277.641 811.339 276.081 771.338 277.169 724.551C277.499 710.324 277.495 710.295 274.596 705.551C273 702.938 268.728 694.95 265.105 687.8C247.692 653.441 240.749 626.918 239.61 590.403C238.864 566.527 240.243 553.005 245.841 529.3C246.555 526.275 248.052 519.796 249.166 514.903L251.193 506.006L244.245 492.136C236.3 476.276 231.867 464.905 226.961 447.8C222.094 430.83 220.816 419.463 220.892 393.8C220.952 373.834 221.21 370.598 223.686 358.8C227.581 340.239 234.316 321.089 243.907 301.3L247.057 294.8L222.942 294.23C196.782 293.612 191.364 292.815 166.327 285.903C141.027 278.919 135.257 273.992 137.511 261.3C138.588 255.237 143.73 250.3 148.967 250.3C150.986 250.3 157.624 251.912 163.72 253.883C187.325 261.514 203.655 263.709 231.765 263.028C272.195 262.049 293.837 257.57 363.327 235.799C375.48 231.992 375.61 231.947 388.827 226.997C440.052 207.814 458.443 197.415 480.458 175.183C497.392 158.081 506.28 144.462 507.735 133.384C509.469 120.174 498.692 109.922 486.49 113.175C480.393 114.801 477.687 117.534 471.199 128.62C464.608 139.882 449.611 155.416 437.827 163.187C428.732 169.185 409.481 178.768 391.827 186.088C379.258 191.299 342.315 203.754 321.827 209.688C276.016 222.955 234.294 228.436 206.111 224.888C191.475 223.045 182.55 221.117 173.335 217.806C144.971 207.613 120.06 192.385 102.984 174.8C94.811 166.383 85.856 156.081 81.688 150.3C76.385 142.945 64.296 122.376 60.528 114.3C50.563 92.9366 43.198 65.7986 38.347 32.5636C35.415 12.4796 34.242 8.28958 30.679 5.17558C26.374 1.41258 17.96 -0.918426 13.241 0.346574ZM559.694 217.739C550.315 224.055 544.121 233.316 540.834 245.935C538.528 254.789 538.497 407.911 540.8 417.839C544.489 433.748 556.564 448.285 573.827 457.599C579.336 460.571 585.724 463.053 598.327 467.118C614.194 472.236 613.734 472.11 622.467 473.73C626.515 474.481 634.102 476.05 639.327 477.217C670.019 484.07 701.942 487.446 749.498 488.869L771.169 489.517L775.626 480.158C791.12 447.623 795.864 427.526 795.776 394.8C795.722 374.938 794.416 365.653 789.165 347.8C787.011 340.475 780.265 324.059 775.74 315.128C771.247 306.261 762.317 292.537 759.074 289.514C757.205 287.772 750.579 285.723 731.224 280.904C691.796 271.086 649.726 257.489 624.827 246.515C610.693 240.286 587.979 228.418 577.19 221.626C570.79 217.597 565.384 214.3 565.177 214.3C564.97 214.3 562.502 215.847 559.694 217.739ZM475.627 217.844C470.32 222.027 449.5 234.129 438.474 239.439C405.149 255.489 332.265 279.326 296.438 285.891C292.374 286.636 288.964 287.37 288.86 287.523C277.411 304.409 274.086 310.101 274.9 311.419C275.369 312.178 275.209 312.345 274.457 311.881C272.855 310.89 263.538 330.865 258.875 345.288C253.195 362.858 251.062 376.855 250.95 397.3C250.815 421.854 253.158 433.326 265.098 466.567C272.009 485.81 273.226 488.041 277.055 488.481C278.58 488.657 293.777 488.511 310.827 488.158C338.048 487.593 350.682 486.668 370.327 483.799C372.252 483.518 375.627 483.026 377.827 482.705C386.528 481.436 388.206 481.157 398.827 479.214C413.489 476.532 443.645 468.951 454.827 465.136C484.719 454.937 499.631 441.287 505.447 418.8C507.115 412.348 507.266 405.536 507.372 331.8C507.459 271.713 507.183 250.555 506.262 246.8C503.172 234.19 496.761 224.426 487.578 218.343C482.005 214.651 479.795 214.559 475.627 217.844ZM678.327 231.3C678.327 231.85 677.85 232.3 677.268 232.3C676.686 232.3 676.487 231.85 676.827 231.3C677.167 230.75 677.643 230.3 677.886 230.3C678.129 230.3 678.327 230.75 678.327 231.3ZM539.107 555.435C538.986 602.386 539.001 646.875 539.14 654.3C539.537 675.459 542.754 683.697 555.429 696.019C564.058 704.408 567.59 706.965 575.827 710.785C604.924 724.281 645.29 722.964 709.327 706.428C730.731 700.901 740.036 697.503 743.283 694.029C747.782 689.215 761.646 660.533 766.793 645.392C774.378 623.078 775.837 612.584 775.771 580.8C775.712 552.254 774.337 540.24 769.535 526.3L767.64 520.8L743.734 520.183C730.585 519.844 717.577 519.294 714.827 518.96C712.077 518.626 706.452 518.099 702.327 517.788C683.397 516.362 651.329 511.499 628.827 506.642C589.535 498.162 570.265 490.44 542.077 471.881L539.327 470.07L539.107 555.435ZM495.327 477.922C482.058 486.29 467.913 493.016 453.757 497.69C447.668 499.701 441.818 501.525 440.757 501.743C439.695 501.962 432.077 503.768 423.827 505.757C386.801 514.682 347.835 519.337 305.906 519.846C285.709 520.091 279.83 520.452 279.284 521.48C278.203 523.517 273.557 542.085 272.449 548.8C267.879 576.481 270.148 609.609 278.682 639.8C282.89 654.688 286.504 663.741 293.86 677.825C300.937 691.374 303.28 694.575 307.622 696.636C316.373 700.789 359.898 712.051 385.327 716.742C397.159 718.925 420.461 720.412 432.624 719.76C450.06 718.826 465.408 714.671 477.644 707.571C486.284 702.559 498.826 689.683 501.95 682.618C507.557 669.94 507.378 673.723 507.274 569.8C507.168 464.482 507.228 471.3 506.41 471.3C506.09 471.3 501.102 474.28 495.327 477.922Z" fill="currentColor"/>
</svg>
