<svg width="2048" height="2048" viewBox="0 0 2048 2048" fill="none" xmlns="http://www.w3.org/2000/svg">
<rect x="0.5" y="0.5" width="2047" height="2047" stroke="black"/>
<path fill-rule="evenodd" clip-rule="evenodd" d="M0 1024V2048H1024H2048V1024V0H1024H0V1024ZM2047 1024V2047H1024H1V1024V1H1024H2047V1024ZM641.325 332.77L620.15 333.039L618.552 337.27C617.673 339.596 616.329 344.875 615.566 349C614.803 353.125 612.791 363.925 611.096 373C607.893 390.143 607.423 392.828 606.457 399.5C604.387 413.798 603.687 417.578 601.376 426.942C598.204 439.79 588.804 463 586.772 463C586.282 463 586.191 463.5 586.569 464.112C586.947 464.723 586.861 465.511 586.378 465.862C585.895 466.213 583.851 471.225 581.836 477C579.821 482.775 576.971 490.65 575.503 494.5C574.034 498.35 572.745 501.95 572.638 502.5C572.531 503.05 572.092 504.063 571.663 504.75C571.233 505.438 571.16 506.45 571.5 507C571.84 507.55 571.667 508 571.116 508C570.566 508 570.29 508.912 570.505 510.027C570.72 511.141 570.469 511.79 569.948 511.468C569.426 511.146 569 511.532 569 512.327C569 513.121 568.361 515.004 567.579 516.51C566.798 518.016 566.396 519.868 566.686 520.624C566.976 521.381 566.716 522 566.107 522C565.498 522 565 522.81 565 523.8C565 524.79 564.46 526.14 563.8 526.8C563.14 527.46 562.906 528 563.281 528C563.656 528 562.662 531.712 561.073 536.25C556.004 550.724 552.25 563.95 547.094 585.5C544.331 597.05 540.711 612.181 539.049 619.125C537.388 626.069 535.778 633.494 535.47 635.625C534.987 638.981 534.287 643.06 531.547 658.5C531.254 660.15 530.76 663.525 530.448 666C530.137 668.475 529.46 672.975 528.944 676C528.428 679.025 527.123 690.05 526.044 700.5C524.964 710.95 523.866 721.075 523.603 723C523.34 724.925 522.812 729.2 522.429 732.5C522.045 735.8 521.57 739.625 521.372 741C521.05 743.235 519.786 755.597 518.459 769.5C517.684 777.619 516.116 789.249 512.953 810.328C511.317 821.233 510.235 830.571 510.548 831.078C510.862 831.585 510.693 832 510.173 832C509.653 832 508.934 833.954 508.576 836.342C507.9 840.852 507.82 841.325 505.529 854.5C504.764 858.9 503.849 864.678 503.494 867.34C503.14 870.003 502.659 873.04 502.425 874.09C502.191 875.141 501.773 877.013 501.495 878.25C501.217 879.487 500.765 882.233 500.491 884.351C500.217 886.469 499.82 888.494 499.608 888.851C499.396 889.208 498.927 892.2 498.566 895.5C498.205 898.8 497.231 905.55 496.403 910.5C495.574 915.45 494.719 920.625 494.503 922C494.135 924.332 492.103 939.695 488.548 967C486.648 981.594 484.284 1004.01 483.485 1015C483.146 1019.68 482.47 1028.45 481.983 1034.5C481.497 1040.55 480.836 1050.9 480.516 1057.5C480.195 1064.1 479.71 1072.57 479.438 1076.33C479.049 1081.7 479.216 1082.99 480.222 1082.39C481.209 1081.79 481.242 1081.94 480.366 1083.06C479.743 1083.85 478.958 1086.75 478.622 1089.5C477.87 1095.65 477.753 1134.74 478.456 1145C478.738 1149.12 479.444 1161.95 480.024 1173.5C480.604 1185.05 481.253 1195.85 481.467 1197.5C481.68 1199.15 482.163 1205.9 482.54 1212.5C482.917 1219.1 483.375 1224.76 483.558 1225.07C483.741 1225.38 484.155 1229.65 484.478 1234.57C485.352 1247.84 485.954 1255.14 486.452 1258.5C486.696 1260.15 487.135 1263.3 487.426 1265.5C487.718 1267.7 488.201 1270.85 488.501 1272.5C488.801 1274.15 489.457 1277.75 489.958 1280.5C490.46 1283.25 491.168 1288.2 491.531 1291.5C492.382 1299.22 498.36 1333.69 500.984 1346C502.098 1351.22 503.223 1356.62 503.484 1358C503.745 1359.38 504.896 1364.55 506.041 1369.5C507.186 1374.45 508.191 1379.29 508.275 1380.25C508.36 1381.21 508.711 1382 509.055 1382C509.585 1382 511.983 1390.98 512.055 1393.24C512.068 1393.64 512.739 1395.84 513.546 1398.13C514.353 1400.42 515.189 1403.24 515.404 1404.4C516.315 1409.31 533.963 1461.96 539.069 1475C540.901 1479.68 542.539 1484.34 542.711 1485.36C543.014 1487.18 545.942 1493 547.057 1494C547.363 1494.28 548.214 1496.08 548.948 1498C549.682 1499.92 552.107 1505.32 554.337 1510C556.567 1514.68 558.472 1518.84 558.571 1519.25C558.669 1519.66 558.86 1520.34 558.993 1520.75C559.127 1521.16 559.184 1521.84 559.118 1522.25C559.053 1522.66 559.45 1523 560 1523C560.55 1523 561 1523.93 561 1525.06C561 1526.19 561.426 1526.85 561.948 1526.53C562.469 1526.21 562.72 1526.86 562.505 1527.97C562.29 1529.09 562.539 1530 563.057 1530C563.576 1530 564 1531.12 564 1532.5C564 1533.88 564.394 1535 564.875 1535C565.356 1535 565.999 1536.24 566.302 1537.75C566.606 1539.26 567.41 1541.85 568.089 1543.5C568.768 1545.15 569.25 1546.84 569.161 1547.25C569.073 1547.66 569.477 1548 570.059 1548C570.641 1548 570.846 1548.44 570.513 1548.98C570.18 1549.52 570.375 1550.83 570.947 1551.9C571.518 1552.97 572.247 1555.57 572.567 1557.67C572.886 1559.78 573.767 1563.75 574.524 1566.5C576.237 1572.72 579.735 1592.64 580.406 1600C581.769 1614.93 583.304 1639.2 583.378 1647C583.402 1649.47 583.889 1651.83 584.461 1652.23C585.134 1652.71 585.06 1652.97 584.25 1652.98C583.563 1652.99 583 1653.9 583 1655C583 1656.1 583.563 1657.01 584.25 1657.02C585.024 1657.03 585.119 1657.31 584.5 1657.77C583.257 1658.68 582.535 1662.4 583.746 1661.66C584.23 1661.36 584.468 1663.23 584.275 1665.81C583.781 1672.41 583.969 1714.14 584.496 1714.99C584.735 1715.38 648.847 1715.71 726.966 1715.71L869 1715.73L869.077 1713.11C869.119 1711.68 869.279 1709.82 869.432 1709C869.585 1708.18 870.023 1704.35 870.405 1700.5C870.786 1696.65 871.782 1691.14 872.616 1688.26C873.451 1685.38 873.853 1682.57 873.508 1682.01C873.164 1681.46 873.284 1681 873.774 1681C874.265 1681 874.706 1680.44 874.753 1679.75C874.881 1677.9 875.817 1674.11 876.361 1673.22C876.622 1672.8 877.133 1670.46 877.498 1668.01C877.863 1665.57 878.651 1662.65 879.25 1661.53C880.414 1659.36 880.394 1659.18 878.774 1657.23C877.963 1656.25 878.137 1656.11 879.523 1656.65C880.765 1657.12 881.103 1656.98 880.605 1656.17C880.203 1655.52 880.426 1655 881.108 1655C881.782 1655 882.049 1654.72 881.702 1654.37C881.355 1654.02 881.46 1653.01 881.936 1652.12C882.412 1651.23 883.048 1649.15 883.349 1647.5C883.649 1645.85 885.308 1639.78 887.035 1634C888.763 1628.22 890.333 1622.82 890.526 1622C890.718 1621.18 893.394 1610.82 896.472 1599C899.55 1587.18 902.249 1576.6 902.471 1575.5C902.693 1574.4 904.018 1568.1 905.416 1561.5C906.814 1554.9 908.183 1547.59 908.457 1545.26C908.732 1542.93 909.187 1540 909.468 1538.76C909.749 1537.52 910.181 1535.38 910.428 1534C910.674 1532.62 911.332 1529.03 911.889 1526C912.447 1522.97 913.162 1518.7 913.479 1516.5C913.796 1514.3 914.473 1509.8 914.983 1506.5C915.493 1503.2 916.21 1497.12 916.576 1493C916.942 1488.88 917.482 1485.09 917.775 1484.6C918.068 1484.1 918.432 1481.85 918.585 1479.6C919.584 1464.85 920.179 1457.12 920.518 1454.5C921.801 1444.57 922.736 1432.43 923.558 1415C923.831 1409.22 924.227 1402.25 924.438 1399.5C924.649 1396.75 925.094 1389 925.427 1382.29C925.761 1375.57 926.221 1369.5 926.451 1368.79C926.681 1368.08 927.121 1365.18 927.429 1362.34C927.737 1359.5 928.642 1354.08 929.439 1350.29C930.236 1346.5 931.112 1342.17 931.386 1340.66C931.659 1339.15 932.56 1335.57 933.387 1332.71C934.213 1329.84 935.122 1326.38 935.406 1325C936.234 1320.99 941.603 1301.28 944.533 1291.5C946.923 1283.52 949.797 1273.33 950.455 1270.5C950.583 1269.95 950.972 1268.38 951.321 1267C951.669 1265.62 953.313 1258.88 954.973 1252C956.633 1245.12 958.934 1236.12 960.085 1232C961.237 1227.88 962.322 1223.82 962.498 1223C962.993 1220.67 964.742 1213.2 966.593 1205.5C967.518 1201.65 968.393 1197.54 968.536 1196.37C968.679 1195.21 969.277 1193.35 969.863 1192.26C970.45 1191.16 970.754 1190.09 970.54 1189.87C970.326 1189.66 970.773 1186.81 971.533 1183.53C972.294 1180.26 972.714 1177.38 972.467 1177.13C972.22 1176.89 972.514 1176.09 973.121 1175.35C973.727 1174.62 973.963 1173.34 973.643 1172.51C973.324 1171.68 973.439 1171 973.9 1171C974.36 1171 974.986 1169.31 975.291 1167.25C975.595 1165.19 977.418 1155.85 979.34 1146.5C981.263 1137.15 983.049 1127.92 983.309 1126C983.569 1124.08 984.481 1118.45 985.335 1113.5C986.189 1108.55 987.092 1103.15 987.341 1101.5C987.59 1099.85 988.936 1091.3 990.332 1082.5C994.099 1058.76 995.77 1047.01 997.513 1032C998.876 1020.27 1000.51 1008.43 1001.55 1002.81C1001.72 1001.88 1002.16 997.602 1002.53 993.307C1002.89 989.013 1003.35 984.157 1003.55 982.515C1003.75 980.874 1004.18 976.149 1004.5 972.015C1004.83 967.882 1005.28 962.475 1005.5 960C1006.88 944.641 1007.94 919.068 1008.61 885C1008.93 868.775 1009.35 855.335 1009.55 855.134C1009.74 854.933 1016.6 855.093 1024.79 855.49L1039.68 856.211L1039.94 859.856C1040.07 861.86 1040.16 865.525 1040.13 868C1039.93 883.602 1040.17 917.068 1040.5 920C1040.71 921.925 1041.38 932.5 1041.97 943.5C1042.57 954.5 1043.26 965.3 1043.5 967.5C1043.75 969.7 1044.21 974.2 1044.51 977.5C1046.16 995.099 1049.58 1023.99 1054.71 1063.75C1055.01 1066.09 1055.61 1068 1056.04 1068C1056.46 1068 1056.6 1068.81 1056.34 1069.79C1055.78 1071.94 1065.48 1130.62 1070.35 1154.5C1073.29 1168.92 1082.17 1208.38 1085.1 1220C1085.58 1221.92 1087.15 1228.68 1088.58 1235C1090.02 1241.32 1092.99 1253.25 1095.2 1261.5C1097.4 1269.75 1099.32 1276.95 1099.45 1277.5C1099.59 1278.05 1099.97 1279.18 1100.29 1280C1100.94 1281.65 1109.78 1314.7 1112.32 1325C1118.86 1351.49 1122.21 1367.86 1121.36 1369.22C1121.1 1369.65 1121.33 1370 1121.88 1370C1122.43 1370 1122.85 1370.79 1122.81 1371.75C1122.78 1372.71 1123.01 1376.42 1123.34 1380C1123.67 1383.58 1124.22 1393.4 1124.55 1401.84C1124.89 1410.28 1125.32 1418.15 1125.51 1419.34C1125.7 1420.53 1126.12 1427.12 1126.45 1434C1126.77 1440.88 1127.25 1448.75 1127.5 1451.5C1127.75 1454.25 1128.18 1459.42 1128.45 1463C1128.73 1466.58 1129.23 1472.55 1129.58 1476.28C1129.92 1480.01 1130.31 1484.51 1130.43 1486.28C1130.56 1488.05 1131.6 1495.12 1132.75 1502C1133.9 1508.88 1135.38 1518.76 1136.03 1523.96C1136.69 1529.16 1137.58 1534.34 1138 1535.46C1138.83 1537.64 1140.65 1545.55 1141.46 1550.5C1141.74 1552.15 1142.87 1557.55 1143.98 1562.5C1145.1 1567.45 1147.31 1578.05 1148.91 1586.06C1150.51 1594.07 1152.51 1602.28 1153.36 1604.31C1154.21 1606.34 1154.71 1608 1154.47 1608C1154.24 1608 1154.48 1609.14 1155.01 1610.53C1155.54 1611.92 1156.16 1614.08 1156.38 1615.33C1156.61 1616.59 1157.74 1621.19 1158.9 1625.56C1160.06 1629.93 1161.13 1634.4 1161.28 1635.5C1161.43 1636.6 1161.83 1637.95 1162.16 1638.5C1162.49 1639.05 1163.07 1641.08 1163.45 1643C1163.83 1644.92 1164.73 1648.53 1165.45 1651C1166.17 1653.47 1167.31 1657.53 1167.99 1660C1168.68 1662.47 1169.48 1665.18 1169.77 1666C1170.07 1666.82 1170.49 1668.59 1170.71 1669.92C1170.93 1671.26 1171.5 1673.07 1171.97 1673.95C1172.94 1675.75 1175.6 1685.73 1176.49 1690.92C1176.82 1692.8 1177.39 1694.82 1177.77 1695.42C1178.47 1696.54 1178.53 1696.82 1179.46 1703.5C1180.49 1710.9 1181.11 1713.5 1182.11 1714.5C1183.43 1715.84 1291 1716.17 1291 1714.84C1291 1714.31 1291.56 1714.24 1292.25 1714.69C1293.74 1715.66 1462.35 1716.02 1463.9 1715.06C1464.62 1714.62 1465.18 1701.98 1465.58 1676.95C1465.92 1656.35 1466.51 1638.92 1466.91 1638.2C1467.31 1637.49 1467.34 1634.68 1466.99 1631.95C1466.65 1629.23 1466.61 1627 1466.93 1627C1467.24 1627 1467.52 1622.84 1467.54 1617.75C1467.56 1612.66 1467.92 1605.58 1468.34 1602C1468.77 1598.42 1469.27 1594.15 1469.45 1592.5C1469.97 1587.96 1471.03 1581.91 1472 1578C1472.48 1576.08 1473.14 1572.71 1473.46 1570.53C1473.79 1568.35 1474.71 1564.05 1475.51 1560.98C1476.3 1557.91 1477.12 1554.52 1477.33 1553.45C1477.53 1552.38 1477.96 1550.82 1478.27 1550C1479.83 1545.91 1483 1535.88 1483 1535.02C1483 1534.49 1484.4 1531 1486.11 1527.28C1487.83 1523.55 1490.34 1518.03 1491.69 1515C1493.05 1511.97 1495.65 1506.58 1497.47 1503C1499.29 1499.42 1501.81 1494.03 1503.06 1491C1504.31 1487.97 1505.93 1484.8 1506.65 1483.94C1507.37 1483.09 1508.83 1479.71 1509.9 1476.44C1510.97 1473.17 1514.16 1463.97 1516.99 1456C1523.56 1437.5 1530.79 1412.86 1531.23 1407.43C1531.35 1406.09 1531.74 1405 1532.1 1405C1532.47 1405 1533.01 1403.99 1533.31 1402.75C1533.6 1401.51 1534.81 1397.12 1535.98 1393C1538.15 1385.42 1541.71 1371.18 1542.37 1367.5C1542.57 1366.4 1543.22 1363.7 1543.82 1361.5C1544.71 1358.21 1546.24 1351.19 1548.5 1340C1548.67 1339.18 1549.49 1335.12 1550.34 1331C1551.18 1326.88 1552.14 1321.47 1552.47 1319C1552.79 1316.53 1553.36 1313.15 1553.72 1311.5C1554.09 1309.85 1554.45 1307.82 1554.52 1307C1554.71 1304.91 1555.93 1298.28 1557.02 1293.43C1558.14 1288.44 1563.59 1241.86 1564.5 1229.5C1564.86 1224.55 1565.33 1218.7 1565.54 1216.5C1566.1 1210.44 1566.87 1198.74 1567.5 1186.5C1567.82 1180.45 1568.26 1172.12 1568.49 1168C1570.97 1124.05 1570.98 1092.46 1568.54 1064C1568.28 1060.97 1567.59 1052.2 1567.02 1044.5C1565.48 1024.04 1562.07 983.292 1561.4 977.5C1560.78 972.106 1557.15 945.876 1556.54 942.352C1556.34 941.17 1555.88 937.57 1555.52 934.352C1555.16 931.133 1554.45 926.25 1553.94 923.5C1553.04 918.687 1550.42 901.923 1547.46 882C1546.69 876.775 1545.79 871.375 1545.47 870C1545.14 868.625 1544.66 866.15 1544.39 864.5C1540.9 843.346 1539.03 831.792 1538.55 828.46C1538.23 826.238 1537.73 823.313 1537.44 821.96C1536.47 817.364 1534.1 802.53 1533.07 794.5C1532.5 790.1 1531.79 785.212 1531.48 783.637C1531.17 782.063 1530.75 778.913 1530.55 776.637C1530.34 774.362 1529.69 768.675 1529.1 764C1528.52 759.325 1527.93 754.038 1527.81 752.25C1527.68 750.462 1527.33 748.999 1527.04 748.998C1526.74 748.997 1526.45 747.085 1526.38 744.748C1526.23 739.629 1525.02 723.489 1524.52 720C1524.13 717.289 1523.39 709.54 1522.48 698.5C1522.16 694.65 1521.68 690.748 1521.41 689.83C1520.56 686.933 1520.02 683.672 1519.47 678C1519.17 674.975 1518.76 671.6 1518.54 670.5C1518.33 669.4 1518.12 667.727 1518.08 666.781C1518.02 665.594 1517.46 665.249 1516.25 665.666C1514.83 666.156 1514.88 665.968 1516.5 664.666L1518.5 663.064L1516.5 663.016C1515.08 662.983 1514.87 662.733 1515.78 662.157C1517.23 661.238 1515.08 645.816 1510.6 625C1509.24 618.675 1507.93 611.7 1507.69 609.5C1507.45 607.3 1505.6 599.2 1503.58 591.5C1498.9 573.671 1499.27 575.043 1498.12 571.232C1497.05 567.691 1497 567.475 1497 566.039C1497 565.51 1495.99 564.094 1494.75 562.892C1493.51 561.69 1493.06 561.024 1493.75 561.412C1494.53 561.85 1495 561.504 1495 560.5C1495 559.61 1494.55 559.157 1494.01 559.493C1493.46 559.833 1493.27 559.466 1493.57 558.667C1493.88 557.877 1492.26 551.441 1489.98 544.365C1479.06 510.444 1473.61 494.44 1468.94 482.5C1466.14 475.35 1463.32 468.15 1462.67 466.5C1462.03 464.85 1461.28 463.275 1461 463C1460.72 462.725 1460.35 461.825 1460.17 461C1459.99 460.175 1458.71 457.25 1457.31 454.5C1452.62 445.223 1447.02 425.293 1443.39 405C1443.15 403.625 1441.78 396.652 1440.36 389.505C1438.94 382.357 1436.51 369.307 1434.96 360.505C1431.97 343.466 1430.46 336.734 1429.06 334.12C1428.14 332.401 1424.79 332.294 1392.25 332.943C1381.44 333.159 1379 333.476 1379 334.663C1379 335.463 1379.45 335.84 1380 335.5C1380.55 335.16 1381 335.359 1381 335.941C1381 336.523 1380.52 337 1379.94 337C1379.36 337 1379.2 337.52 1379.59 338.155C1380.04 338.876 1379.87 339.037 1379.14 338.585C1378.49 338.187 1378.23 337.443 1378.54 336.931C1378.86 336.419 1378.66 336 1378.09 336C1377.52 336 1377.32 335.325 1377.64 334.5C1378.56 332.086 1360.25 332.323 1358.36 334.75C1357.14 336.311 1357.06 336.318 1357.58 334.815C1358.05 333.445 1357.54 333.144 1354.83 333.21C1353 333.255 1351.17 333.788 1350.77 334.395C1350.27 335.148 1350.03 335.081 1350.02 334.183C1350 333.201 1348.26 332.922 1343.16 333.088C1339.39 333.21 1335.79 332.989 1335.16 332.596C1334.52 332.203 1333.59 332.134 1333.09 332.443C1332.59 332.751 1289.62 333.016 1237.59 333.03C1163.78 333.051 1143 333.325 1142.98 334.278C1142.97 335.162 1142.77 335.186 1142.23 334.366C1141.35 332.997 1135.8 333.097 1134.77 334.5C1134.31 335.12 1134.03 335.026 1134.02 334.253C1134 333.266 1117.05 333.011 1052.96 333.035C989.562 333.059 972.081 333.33 972.653 334.283C973.216 335.22 973.052 335.232 971.942 334.336C970.757 333.379 947.941 332.683 922.5 332.828C894.401 332.988 753.835 332.938 715.5 332.754C686.35 332.614 652.971 332.621 641.325 332.77ZM1284 334.465C1284 334.72 1283.1 335.411 1282 336C1280.79 336.645 1280 336.688 1280 336.109C1280 335.579 1280.79 334.941 1281.75 334.689C1282.71 334.438 1283.61 334.18 1283.75 334.116C1283.89 334.052 1284 334.209 1284 334.465ZM1288.95 335.032C1288.25 335.463 1287.08 335.583 1286.34 335.3C1284.35 334.537 1284.7 334.25 1287.61 334.25C1289.27 334.25 1289.76 334.532 1288.95 335.032ZM1293.73 334.604C1293.4 334.936 1292.53 334.972 1291.81 334.683C1291.01 334.364 1291.25 334.127 1292.42 334.079C1293.47 334.036 1294.06 334.272 1293.73 334.604ZM1360.68 337.188C1360.36 337.985 1360.13 337.748 1360.08 336.583C1360.04 335.529 1360.27 334.939 1360.6 335.271C1360.94 335.603 1360.97 336.466 1360.68 337.188ZM704 337.833C704 338.292 703.345 338.667 702.544 338.667C701.743 338.667 701.32 338.292 701.603 337.833C701.886 337.375 702.541 337 703.059 337C703.577 337 704 337.375 704 337.833ZM1283.4 338.833C1283.68 339.292 1283.28 339.667 1282.5 339.667C1281.72 339.667 1281.32 339.292 1281.6 338.833C1281.89 338.375 1282.29 338 1282.5 338C1282.71 338 1283.11 338.375 1283.4 338.833ZM1288.46 338.931C1288.77 339.443 1288.65 340.098 1288.18 340.387C1287.72 340.676 1287.33 340.257 1287.33 339.456C1287.33 337.77 1287.65 337.623 1288.46 338.931ZM1434.5 367C1434.84 367.55 1434.64 368 1434.06 368C1433.48 368 1433 367.55 1433 367C1433 366.45 1433.2 366 1433.44 366C1433.68 366 1434.16 366.45 1434.5 367ZM1434.28 373.04C1433.99 374.161 1433.52 374.856 1433.25 374.583C1432.71 374.042 1433.66 371 1434.38 371C1434.62 371 1434.57 371.918 1434.28 373.04ZM1436.33 378.175C1436.65 379.371 1436.53 381.013 1436.08 381.824C1435.5 382.864 1435.13 382.225 1434.83 379.649C1434.37 375.685 1435.42 374.657 1436.33 378.175ZM1437.68 384.188C1437.36 384.985 1437.13 384.748 1437.08 383.583C1437.04 382.529 1437.27 381.939 1437.6 382.271C1437.94 382.603 1437.97 383.466 1437.68 384.188ZM606.683 413.188C606.364 413.985 606.127 413.748 606.079 412.583C606.036 411.529 606.272 410.939 606.604 411.271C606.936 411.603 606.972 412.466 606.683 413.188ZM605.667 424.933C605.625 427.645 605.315 429.695 604.977 429.486C604.64 429.278 604.482 427.17 604.627 424.803C604.936 419.757 604.899 420 605.371 420C605.575 420 605.708 422.22 605.667 424.933ZM1450 444.5C1450.72 445.365 1450.82 446 1450.23 446C1449.67 446 1448.95 445.325 1448.64 444.5C1448.32 443.675 1448.22 443 1448.41 443C1448.6 443 1449.31 443.675 1450 444.5ZM1453.97 449.872C1453.95 450.218 1452.71 451.379 1451.22 452.453C1448.52 454.391 1448.51 454.391 1450 452.453C1450.82 451.379 1451.95 450.169 1452.5 449.765C1453.12 449.31 1453.02 449.025 1452.25 449.015C1451.56 449.007 1451 448.495 1451 447.878C1451 447.102 1451.46 447.14 1452.5 448C1453.32 448.685 1453.99 449.527 1453.97 449.872ZM1455.49 453.989C1455.84 454.555 1455.44 454.723 1454.55 454.382C1452.82 453.717 1452.5 453 1453.94 453C1454.46 453 1455.16 453.445 1455.49 453.989ZM1455.72 458.002C1455.85 459.685 1455.57 459.839 1453.94 458.967C1452.87 458.396 1452 457.694 1452 457.406C1452 457.118 1452.42 457.141 1452.93 457.457C1453.44 457.774 1454.14 457.575 1454.49 457.016C1455.37 455.585 1455.55 455.728 1455.72 458.002ZM581.954 489.086C581.34 490.233 580.639 490.972 580.395 490.729C579.696 490.029 581.114 487 582.142 487C582.653 487 582.568 487.938 581.954 489.086ZM578.667 494C578.667 495.65 578.323 497 577.903 497C577.483 497 576.944 498.012 576.706 499.25C576.334 501.179 576.253 501.108 576.136 498.75C576.061 497.238 576.477 496 577.059 496C577.641 496 577.865 495.591 577.556 495.09C577.073 494.309 577.789 491 578.44 491C578.565 491 578.667 492.35 578.667 494ZM1359 505.441C1359 505.684 1358.55 506.16 1358 506.5C1357.45 506.84 1357 506.641 1357 506.059C1357 505.477 1357.45 505 1358 505C1358.55 505 1359 505.198 1359 505.441ZM574.124 509.267C573.136 510.247 573.022 510.132 573.564 508.707C573.94 507.721 574.499 507.166 574.807 507.474C575.115 507.781 574.808 508.588 574.124 509.267ZM691.232 509.71C692.869 511.191 693.261 511.225 694.155 509.96C695.027 508.728 695.109 508.752 694.677 510.116C694.117 511.886 703.618 522 705.84 522C706.543 522 706.84 522.45 706.5 523C706.16 523.55 706.61 524 707.5 524C708.504 524 708.85 523.526 708.412 522.75C707.892 521.828 708.073 521.841 709.103 522.8C709.871 523.514 710.588 525.089 710.696 526.3C711.032 530.068 711.917 545.97 712.479 558.331C712.775 564.838 713.479 571.026 714.044 572.081C714.781 573.459 714.744 574 713.913 574C713.128 574 713.072 574.403 713.74 575.25C714.282 575.938 714.828 582.125 714.954 589C715.079 595.875 715.313 603.146 715.473 605.158C715.632 607.169 716.061 614.369 716.426 621.158C716.79 627.946 717.506 637.1 718.017 641.5C718.528 645.9 719.648 657.15 720.506 666.5C721.364 675.85 722.703 688.45 723.482 694.5C724.261 700.55 725.173 708.2 725.51 711.5C726.317 719.402 730.762 749.107 735.462 778C736.401 783.775 738.489 796.637 740.102 806.583C741.715 816.528 743.732 827.778 744.584 831.583C745.435 835.387 746.287 839.4 746.476 840.5C746.88 842.856 747.208 844.429 749.914 857C753.586 874.058 759.285 895.297 764.096 909.855C764.706 911.7 766.699 918.675 768.525 925.355C772.427 939.633 777.812 956.673 781.526 966.5C790.297 989.704 805.647 1032.5 806.992 1037.5C808.229 1042.1 813.553 1056.24 815.375 1059.76C816.269 1061.49 817 1063.6 817 1064.45C817 1065.3 817.392 1066 817.872 1066C818.352 1066 819.035 1067.82 819.39 1070.04C819.745 1072.26 820.716 1074.34 821.548 1074.66C822.479 1075.01 822.836 1075.94 822.478 1077.07C822.158 1078.08 823.01 1081.74 824.37 1085.2C825.73 1088.66 829.807 1100.73 833.429 1112C837.051 1123.27 840.648 1134.08 841.423 1136C842.198 1137.92 844.032 1143.55 845.499 1148.5C846.966 1153.45 849.678 1162.45 851.526 1168.5C853.373 1174.55 855.171 1180.96 855.522 1182.75C855.872 1184.54 856.6 1186 857.138 1186C857.677 1186 857.861 1186.42 857.546 1186.93C857.232 1187.43 857.388 1188.9 857.892 1190.18C858.397 1191.45 859.788 1196.78 860.982 1202C862.177 1207.22 863.999 1215.1 865.032 1219.5C870.351 1242.16 872.2 1250.14 872.392 1251.26C873.642 1258.6 877.456 1275 877.912 1275C878.235 1275 878.454 1276.46 878.398 1278.25C878.342 1280.04 878.709 1282.85 879.214 1284.5C879.719 1286.15 880.349 1288.85 880.613 1290.5C880.878 1292.15 881.319 1294.15 881.593 1294.95C882.062 1296.32 883.463 1306.16 888.001 1340C888.628 1344.68 889.352 1349.85 889.61 1351.5C890.73 1358.67 891.01 1365.32 891.482 1396C891.766 1414.5 891.578 1430.49 891.044 1433.12C890.529 1435.67 889.824 1442.87 889.477 1449.12C889.131 1455.38 888.654 1461.11 888.418 1461.85C888.181 1462.59 887.75 1465.51 887.459 1468.35C887.168 1471.18 886.483 1476.2 885.937 1479.5C885.39 1482.8 884.732 1487.53 884.475 1490C883.665 1497.78 882.263 1506.77 881.72 1507.65C881.433 1508.12 880.918 1510.3 880.575 1512.5C880.233 1514.7 879.72 1517.25 879.434 1518.17C879.149 1519.09 878.755 1520.66 878.559 1521.67C877.961 1524.73 872.99 1540.19 870.934 1545.38C869.87 1548.07 869 1550.69 869 1551.2C869 1553.66 852.526 1584.39 849.233 1588.08C846.488 1591.16 837.966 1603 838.5 1603C839.263 1603 830.307 1610.92 825.419 1614.56C823.264 1616.17 821.275 1617.75 821 1618.06C819.973 1619.24 801.681 1627.17 799 1627.6C798.175 1627.73 795.952 1628.32 794.06 1628.91C792.169 1629.49 785.869 1629.8 780.06 1629.6C771.394 1629.3 768.334 1628.75 763 1626.53C744.95 1619.02 734.901 1608.38 723.453 1584.66C711.175 1559.21 706.497 1530.06 706.502 1479C706.505 1442.08 707.652 1421.22 711.037 1396.5C711.715 1391.55 712.41 1386.38 712.58 1385C712.751 1383.62 713.087 1381.6 713.328 1380.5C713.757 1378.54 714.426 1373.47 715.572 1363.5C716.066 1359.2 716.6 1355.63 717.37 1351.5C717.472 1350.95 717.908 1349.94 718.337 1349.25C718.796 1348.51 718.632 1348 717.937 1348C717.076 1348 717.051 1347.64 717.841 1346.69C718.439 1345.97 719.056 1343.05 719.214 1340.19C719.371 1337.34 719.798 1335 720.162 1335C720.526 1335 721.143 1333.09 721.533 1330.75C722.905 1322.52 723.127 1321.41 725.462 1311C727.821 1300.48 729.965 1289.74 731.949 1278.5C732.531 1275.2 733.223 1271.39 733.487 1270.04C733.75 1268.69 734.206 1265.97 734.5 1264C734.794 1262.03 735.21 1259.54 735.426 1258.46C736.53 1252.94 743.233 1217.38 744.561 1210C745.402 1205.32 746.515 1199.47 747.033 1197C747.552 1194.53 748.256 1190.25 748.599 1187.5C748.941 1184.75 749.399 1181.6 749.617 1180.5C751.191 1172.53 752.629 1162.86 754.005 1151C755.502 1138.09 755.782 1135.53 756.521 1128C756.871 1124.42 757.312 1120.38 757.5 1119C760.068 1100.22 761.266 1039.01 759.516 1016C758.452 1002.01 757.027 986.808 756.511 983.925C756.355 983.058 755.928 979.782 755.562 976.645C754.895 970.939 751.498 950.271 750.607 946.5C750.347 945.4 749.197 940 748.051 934.5C746.905 929 745.318 922.475 744.524 920C742.973 915.165 732.127 873.145 731.36 869C730.66 865.217 728.032 854.825 727.061 852C726.589 850.625 725.493 846.125 724.625 842C721.565 827.443 717.943 811.014 717.519 809.765C717.283 809.069 715.939 800.625 714.531 791C713.124 781.375 711.788 772.375 711.561 771C709.532 758.661 707.467 743.171 705.431 725C705.153 722.525 704.731 719.574 704.492 718.442C704.253 717.31 703.795 713.935 703.473 710.942C703.151 707.949 702.696 704.075 702.462 702.333C702.229 700.591 701.352 691.366 700.515 681.833C699.677 672.3 698.549 659.775 698.009 654C696.969 642.906 695.415 614.531 694.475 589.5C694.165 581.25 693.693 572.25 693.427 569.5C693.161 566.75 692.75 562.475 692.515 560C692.279 557.525 691.818 550.775 691.491 545C690.954 535.538 690.482 530.659 688.416 513.25C687.75 507.635 688.248 507.009 691.232 509.71ZM1359.45 517.036C1359.13 522.006 1358.72 526.843 1358.54 527.786C1358.36 528.729 1357.89 534.225 1357.5 540C1357.1 545.775 1356.63 551.307 1356.44 552.293C1356.25 553.279 1355.82 561.379 1355.49 570.293C1354.78 589.312 1352.16 640.067 1351.48 648C1351.23 651.025 1350.32 662.275 1349.46 673C1348.12 689.773 1345.83 711.532 1344.52 720C1344.31 721.375 1343.85 725.2 1343.5 728.5C1342.5 738.03 1341.32 746.065 1339.59 755C1339.33 756.375 1338.4 763.125 1337.53 770C1336.21 780.508 1332.15 805.42 1330.61 812.5C1330.37 813.6 1328.53 821.7 1326.53 830.5C1322.87 846.557 1319.56 861.335 1318.59 866C1318.3 867.375 1317.57 870.3 1316.97 872.5C1316.37 874.7 1315.26 878.975 1314.52 882C1313.78 885.025 1311.78 892.45 1310.08 898.5C1308.38 904.55 1306.79 910.4 1306.55 911.5C1306.31 912.6 1305.63 915.075 1305.03 917C1303.38 922.296 1298.43 945.758 1295.65 961.5C1290.42 991.036 1288.99 1012.38 1288.96 1061C1288.95 1083.27 1289.13 1102.43 1289.38 1103.57C1289.62 1104.7 1290.11 1108.98 1290.47 1113.07C1290.83 1117.16 1291.28 1121.85 1291.47 1123.5C1291.66 1125.15 1292.11 1129.2 1292.46 1132.5C1293.68 1143.99 1295.15 1156.52 1295.56 1159C1296.44 1164.18 1297.28 1170.55 1297.29 1172C1297.3 1172.82 1297.63 1173.72 1298.03 1174C1298.44 1174.28 1299.06 1177.2 1299.41 1180.5C1299.77 1183.8 1300.26 1187.62 1300.52 1189C1300.77 1190.38 1301.23 1193.3 1301.52 1195.5C1302.4 1201.99 1303.04 1206.34 1303.5 1208.91C1303.73 1210.23 1304.2 1213.38 1304.54 1215.91C1304.88 1218.43 1305.78 1222.75 1306.53 1225.5C1307.29 1228.25 1308.6 1234.55 1309.45 1239.5C1310.3 1244.45 1311.9 1253 1312.99 1258.5C1316.28 1274.96 1317.98 1283.91 1320.04 1295.5C1322.95 1311.87 1322.85 1311.36 1326.18 1327.5C1327.89 1335.75 1329.26 1343.18 1329.23 1344C1329.2 1344.82 1329.61 1346.93 1330.14 1348.67C1331.26 1352.37 1331.37 1353 1333.46 1367.5C1335.01 1378.32 1335.25 1380.02 1336.42 1389C1336.75 1391.47 1338.15 1404.9 1339.54 1418.83C1343.1 1454.44 1343.26 1485.04 1340.07 1520.91C1339.6 1526.18 1339.17 1531.18 1339.12 1532C1338.51 1541.41 1333.31 1564.87 1330.05 1572.93C1329.04 1575.44 1327.16 1580.2 1325.89 1583.5C1324.62 1586.8 1322.55 1591.03 1321.29 1592.89C1320.03 1594.75 1319 1596.89 1319 1597.64C1319 1598.39 1318.62 1599 1318.16 1599C1317.7 1599 1316.82 1600.09 1316.22 1601.42C1311.79 1611.15 1292.91 1625.44 1280.5 1628.46C1274.43 1629.94 1273.35 1630.05 1265.74 1630.07C1258.1 1630.09 1251.46 1629.3 1249.5 1628.15C1248.95 1627.82 1247.71 1627.43 1246.74 1627.28C1244.43 1626.92 1231.6 1620.72 1231.17 1619.75C1230.98 1619.34 1230.36 1619 1229.78 1619C1229.21 1619 1228.01 1618.18 1227.12 1617.17C1226.23 1616.16 1224.75 1614.93 1223.84 1614.42C1221.03 1612.86 1206.41 1598.63 1205.1 1596.18C1204.03 1594.19 1203.63 1594.06 1202.18 1595.19C1200.72 1596.33 1200.66 1596.3 1201.72 1594.94C1202.72 1593.65 1202.42 1592.76 1200.07 1589.91C1192.9 1581.2 1176.52 1543.42 1174.31 1530.5C1174.03 1528.85 1173.51 1527.28 1173.15 1527C1172.79 1526.72 1172.43 1526.05 1172.34 1525.5C1172.15 1524.39 1168.71 1509.84 1166.41 1500.42C1165.59 1497.07 1164.76 1492.57 1164.57 1490.42C1164.39 1488.26 1163.96 1485.82 1163.64 1485C1162.73 1482.72 1159.16 1451.06 1158.29 1437.5C1156.81 1414.6 1157.51 1365.81 1159.51 1351.5C1159.96 1348.3 1161.27 1333.67 1161.37 1330.75C1161.4 1329.79 1161.67 1329 1161.96 1329C1162.26 1329 1162.63 1326.64 1162.8 1323.75C1162.96 1320.86 1163.27 1317.38 1163.48 1316C1163.92 1313.21 1165 1304.58 1165.3 1301.5C1165.41 1300.4 1165.76 1299.28 1166.08 1299C1166.65 1298.52 1168.67 1287.49 1169.64 1279.67C1169.9 1277.57 1170.54 1274.71 1171.06 1273.33C1172.01 1270.85 1174.9 1257.68 1175.4 1253.6C1175.54 1252.44 1175.94 1250.82 1176.28 1250C1176.97 1248.36 1177.84 1243.71 1178.62 1237.5C1179.29 1232.18 1182.79 1217.5 1184.57 1212.5C1186.59 1206.88 1189.08 1192.96 1188.32 1191.62C1187.97 1191 1188.07 1190.86 1188.55 1191.3C1189.03 1191.74 1191.09 1185.91 1193.13 1178.3C1195.17 1170.71 1197.39 1162.92 1198.07 1161C1198.75 1159.08 1200.11 1155.25 1201.1 1152.5C1202.09 1149.75 1205.22 1140.3 1208.06 1131.5C1210.89 1122.7 1215.25 1109.65 1217.75 1102.5C1220.24 1095.35 1222.33 1088.3 1222.39 1086.84C1222.45 1085.39 1222.79 1084.37 1223.14 1084.58C1223.68 1084.92 1226.07 1079.08 1227.47 1074C1227.7 1073.18 1228.83 1070.03 1229.98 1067C1233.7 1057.27 1236.16 1050.6 1237.53 1046.5C1238.27 1044.3 1239.82 1040.03 1240.99 1037C1242.16 1033.97 1244.6 1027.22 1246.42 1022C1250.34 1010.76 1259.51 985.181 1261.67 979.5C1264.64 971.678 1270.82 953.386 1273 946C1274.21 941.875 1275.88 936.475 1276.69 934C1277.51 931.525 1278.34 928.729 1278.53 927.787C1278.72 926.845 1279.55 924.595 1280.38 922.787C1281.21 920.979 1282.61 916.8 1283.48 913.5C1285.42 906.209 1285.51 905.883 1287.53 899C1289.59 891.986 1292.74 880.24 1293.43 877C1293.72 875.625 1294.88 870.9 1295.99 866.5C1297.1 862.1 1298.25 857.15 1298.54 855.5C1298.83 853.85 1299.26 851.825 1299.5 851C1299.73 850.175 1300.16 848.375 1300.45 847C1300.74 845.625 1301.44 842.475 1302 840C1302.57 837.525 1303.2 834.6 1303.4 833.5C1303.61 832.4 1304.46 828.125 1305.31 824C1306.15 819.875 1307.17 814.25 1307.58 811.5C1307.99 808.75 1308.42 806.05 1308.54 805.5C1311.25 792.978 1315.39 769.03 1316.5 759.5C1316.81 756.75 1317.26 753.6 1317.48 752.5C1317.71 751.4 1318.14 748.475 1318.44 746C1319.29 738.983 1325.93 684.974 1326.48 680.5C1326.76 678.3 1327.23 672 1327.53 666.5C1327.83 661 1328.49 653.8 1328.99 650.5C1329.49 647.2 1330.14 641.35 1330.44 637.5C1330.73 633.65 1331.2 628.025 1331.49 625C1332.19 617.454 1333.28 599.052 1335.59 555.5C1335.94 548.9 1336.35 542.375 1336.5 541C1336.65 539.625 1336.82 536.209 1336.89 533.41C1337 528.328 1337.02 528.301 1347.23 518.16C1352.86 512.572 1358.04 508 1358.74 508C1359.73 508 1359.89 510.055 1359.45 517.036ZM1338.8 522.955C1338.13 524.03 1337.38 524.715 1337.15 524.479C1336.72 524.05 1338.9 521 1339.63 521C1339.84 521 1339.47 521.88 1338.8 522.955ZM708.5 525C708.16 525.55 708.359 526 708.941 526C709.523 526 710 525.55 710 525C710 524.45 709.802 524 709.559 524C709.316 524 708.84 524.45 708.5 525ZM1484.68 537.188C1484.36 537.985 1484.13 537.748 1484.08 536.583C1484.04 535.529 1484.27 534.939 1484.6 535.271C1484.94 535.603 1484.97 536.466 1484.68 537.188ZM674.905 572.686C681.395 583.77 682.766 586.536 685.37 593.791C688.313 601.992 689.13 606.724 689.142 615.644C689.157 626.511 688.004 637.041 685.542 648.5C682.958 660.529 675.437 686.37 667.496 710.5C664.962 718.2 662.818 725.288 662.732 726.25C662.645 727.212 662.295 728 661.954 728C661.613 728 661.319 728.563 661.302 729.25C661.272 730.482 651.882 755.609 649.999 759.5C647.557 764.545 627.572 825.045 624.587 836.427C622.295 845.171 619.418 857.347 618.664 861.5C618.464 862.6 618.071 864.175 617.791 865C615.172 872.719 615.069 873.178 612.034 890.5C610.974 896.55 608.989 907.35 607.622 914.5C606.256 921.65 604.882 929.413 604.569 931.75C604.256 934.087 603.751 937.913 603.447 940.25C603.142 942.587 602.48 946.75 601.975 949.5C600.052 959.962 596.417 996.434 595.497 1014.5C595.217 1020 594.738 1028.83 594.431 1034.12C593.78 1045.37 593.749 1117.51 594.394 1120.62C594.636 1121.78 595.126 1127.63 595.484 1133.62C595.841 1139.6 596.56 1148.32 597.083 1153C597.605 1157.68 598.482 1166.22 599.032 1172C600.253 1184.84 601.466 1194.53 603.977 1211.5C605.034 1218.65 606.188 1226.97 606.54 1230C606.892 1233.03 608.024 1239.55 609.056 1244.5C610.089 1249.45 612.06 1261.26 613.438 1270.75C614.816 1280.23 616.829 1291.71 617.911 1296.25C618.993 1300.79 620.835 1308.78 622.004 1314C623.173 1319.22 625.206 1328 626.523 1333.5C633.719 1363.55 634.937 1369.3 634.338 1370.35C633.976 1370.98 634.057 1371.16 634.518 1370.74C634.98 1370.32 636.108 1372.79 637.025 1376.24C637.943 1379.68 639.894 1386.96 641.362 1392.42C642.83 1397.88 644.255 1403.61 644.529 1405.17C644.803 1406.72 645.719 1410.98 646.564 1414.62C648.736 1423.99 648.684 1460.46 646.495 1462.65C645.341 1463.8 644.997 1463.84 644.985 1462.82C644.973 1461.79 644.776 1461.81 644.08 1462.91C642.814 1464.91 637.647 1465.36 638.397 1463.41C638.754 1462.48 638.115 1461.61 636.658 1461.06C634.87 1460.38 633.707 1458.2 631.464 1451.34C629.874 1446.48 628.487 1441.6 628.38 1440.5C628.274 1439.4 627.089 1434.68 625.747 1430C624.406 1425.32 622.315 1417 621.102 1411.5C614.923 1383.49 614.973 1383.7 609.722 1363C607.532 1354.37 602.654 1333.81 601.477 1328.25C601.214 1327.01 600.811 1325.15 600.581 1324.12C599.746 1320.38 596.103 1303.44 595.609 1301C595.33 1299.62 594.83 1297.38 594.497 1296C594.165 1294.62 593.743 1292.6 593.56 1291.5C593.377 1290.4 592.689 1287.25 592.031 1284.5C591.372 1281.75 590.638 1278.6 590.399 1277.5C589.93 1275.34 586.414 1254.03 585.449 1247.5C585.124 1245.3 584.213 1239.9 583.426 1235.5C581.354 1223.93 576.69 1187.33 575.525 1173.5C575.201 1169.65 574.748 1165.15 574.519 1163.5C574.29 1161.85 573.82 1156.45 573.476 1151.5C573.131 1146.55 572.668 1140.92 572.447 1139C571.815 1133.5 570.6 1086.47 570.547 1065.5C570.5 1046.34 571.574 1007.45 572.509 994.5C573.231 984.497 575.055 964.034 575.539 960.5C575.765 958.85 576.637 952.55 577.476 946.5C578.315 940.45 579.212 933.925 579.47 932C580.263 926.081 583.933 902.648 584.482 900C584.767 898.625 585.709 893.9 586.576 889.5C587.443 885.1 588.273 881.05 588.42 880.5C588.567 879.95 589.01 878.15 589.403 876.5C589.797 874.85 591.209 869.225 592.539 864C595.526 852.274 596.996 843.803 596.253 842.601C595.944 842.1 596.14 841.969 596.689 842.308C597.238 842.647 598.174 841.341 598.768 839.404C600.426 834.003 598.557 835.678 592.525 845C589.5 849.675 586.5 854.245 585.859 855.157C585.218 856.068 583.075 859.777 581.097 863.4C572.1 879.876 566.652 889.54 566.1 890C565.77 890.275 565.372 891.108 565.216 891.851C565.06 892.595 560.898 901.341 555.966 911.288C551.035 921.234 547 929.964 547 930.686C547 931.409 546.608 932 546.128 932C545.648 932 544.981 933.688 544.645 935.75C544.31 937.813 542.902 941.617 541.518 944.204C540.133 946.792 539 949.829 539 950.954C539 952.079 538.646 953 538.213 953C537.78 953 537.35 954.006 537.257 955.235C537.165 956.465 536.644 957.619 536.101 957.8C535.557 957.981 535.338 958.717 535.614 959.436C535.889 960.154 535.414 961.443 534.558 962.3C533.701 963.156 533 964.789 533 965.929C533 967.068 532.384 968 531.63 968C530.877 968 530.264 967.212 530.267 966.25C530.285 961.679 529.975 960.491 529.117 961.845C528.489 962.836 528.09 962.495 527.602 960.549C527.237 959.096 527.247 957.409 527.624 956.8C528.068 956.082 527.847 955.977 526.997 956.502C526.02 957.106 525.829 956.763 526.249 955.156C526.559 953.97 526.405 953 525.906 953C524.759 953 525.174 950.739 526.5 949.765C527.104 949.321 526.963 949.025 526.143 949.015C525.363 949.007 525.026 948.376 525.349 947.532C525.659 946.725 525.481 945.797 524.954 945.471C524.346 945.096 524.362 944.192 524.997 943.005C526.255 940.656 526.277 939.711 525.059 940.464C523.796 941.244 524.226 935.702 525.5 934.765C526.111 934.317 525.99 934.025 525.191 934.015C524.397 934.006 524.188 933.509 524.66 932.75C525.088 932.063 525.307 930.487 525.148 929.25C524.988 928.013 525.367 927 525.991 927C526.615 927 527.046 926.212 526.948 925.25C526.85 924.288 526.822 923.163 526.885 922.75C526.948 922.337 526.995 921.773 526.989 921.495C526.982 921.218 527.638 919.409 528.445 917.477C529.253 915.545 529.867 913.859 529.81 913.732C528.862 911.604 547.194 869.019 549.927 867C550.3 866.725 551.368 864.925 552.302 863C554.123 859.246 557.035 854.194 563.687 843.251C570.442 832.137 573.903 824.932 573.339 823.157C572.88 821.716 572.965 821.695 573.992 823C574.977 824.25 575.091 824.125 574.68 822.249C574.396 820.954 574.594 820.249 575.146 820.59C576.249 821.272 579.654 817.667 580.538 814.881C580.866 813.847 581.554 813 582.067 813C582.58 813 582.899 812.663 582.776 812.25C582.653 811.837 584.296 808.8 586.428 805.5C588.559 802.2 594.445 792.3 599.508 783.5C604.57 774.7 611.139 763.444 614.106 758.486C617.073 753.528 620.301 748.128 621.28 746.486C626.062 738.462 635.97 717.587 637.41 712.5C637.565 711.95 638.166 710.375 638.744 709C654.215 672.224 662.777 633.287 666.45 583C667.141 573.531 667.881 567.433 668.676 564.639C669.177 562.876 669.265 562.886 670.353 564.825C670.984 565.951 673.032 569.488 674.905 572.686ZM1380.5 564.165C1381.03 564.701 1381.25 567.238 1382.49 588C1383.68 607.783 1385.23 621.924 1387.58 634.5C1390.11 647.962 1393.46 662.651 1395 667C1395.49 668.375 1397.75 675.575 1400.02 683C1402.28 690.425 1404.51 697.4 1404.97 698.5C1406.74 702.771 1408.96 707.797 1412.26 715C1414.15 719.125 1415.99 723.316 1416.34 724.313C1416.7 725.311 1417.43 725.85 1417.98 725.511C1418.53 725.173 1418.74 725.506 1418.46 726.251C1417.68 728.286 1420.85 735.211 1422.19 734.386C1422.85 733.975 1423.03 734.139 1422.63 734.787C1422.03 735.763 1426.99 746.073 1435.01 760.5C1438.12 766.084 1449.52 784.792 1456.34 795.5C1461.47 803.544 1479.04 832.742 1483.87 841.229C1487.67 847.927 1488.86 848.983 1488.33 845.22C1487.98 842.657 1488.01 842.63 1488.95 844.751C1489.49 845.989 1489.7 847.618 1489.41 848.37C1489.12 849.122 1489.79 851.351 1490.9 853.322C1492.01 855.293 1496.6 864.24 1501.11 873.203C1505.62 882.166 1509.8 889.831 1510.41 890.235C1511.01 890.639 1511.17 890.976 1510.76 890.985C1509.84 891.004 1513.02 899.267 1514.27 900.112C1514.76 900.448 1515.06 900.898 1514.92 901.112C1514.78 901.325 1515.63 904.425 1516.81 908C1517.99 911.575 1519.45 916.866 1520.06 919.757C1520.67 922.648 1521.48 924.82 1521.86 924.584C1522.82 923.995 1523.06 928.081 1523.08 945C1523.1 958.032 1522.86 960.079 1520.71 965.217C1518.9 969.572 1518.05 970.655 1517.17 969.767C1516.52 969.125 1516 967.827 1516 966.883C1516 965.939 1515.63 965.017 1515.17 964.833C1514.71 964.65 1512.5 959.1 1510.25 952.5C1508 945.9 1504.96 937.8 1503.5 934.5C1496.05 917.753 1479.69 884.555 1474.96 876.582C1472.98 873.237 1468.54 865.55 1465.11 859.5C1456.78 844.819 1452.22 837.574 1451.09 837.197C1449.94 836.813 1450.88 840.971 1452.39 842.942C1453.2 843.997 1453.2 844.205 1452.39 843.718C1451.62 843.261 1451.7 844.851 1452.64 848.776C1453.39 851.924 1454.24 855.812 1454.54 857.416C1454.84 859.02 1455.33 860.72 1455.62 861.194C1455.91 861.668 1456.31 863.281 1456.51 864.778C1456.71 866.275 1457.57 870.182 1458.43 873.46C1459.29 876.738 1460 880.252 1460 881.269C1460 882.412 1460.44 882.846 1461.16 882.405C1461.87 881.963 1462.04 882.13 1461.6 882.841C1461.21 883.473 1462.02 890.18 1463.4 897.745C1467.28 918.983 1469.81 934.012 1470.43 939.5C1472.44 957.292 1473.62 966.5 1473.91 966.5C1474.16 966.5 1475.49 987.368 1476.49 1007C1476.79 1012.78 1477.27 1020.88 1477.55 1025C1478.2 1034.32 1478.24 1100.97 1477.6 1110.5C1477.34 1114.35 1476.83 1123.8 1476.45 1131.5C1476.08 1139.2 1475.65 1146.62 1475.49 1148C1475.33 1149.38 1474.88 1154.78 1474.49 1160C1474.09 1165.22 1473.64 1170.18 1473.49 1171C1473.21 1172.53 1472.39 1180.19 1471.46 1190C1471.17 1193.03 1470.74 1196.62 1470.5 1198C1470.26 1199.38 1468.23 1212.88 1466 1228C1461.58 1257.92 1458.08 1279.06 1457.33 1280.27C1457.07 1280.69 1456.65 1282.26 1456.4 1283.77C1455.25 1290.57 1453.94 1297.21 1452 1306C1450.85 1311.22 1449.45 1317.97 1448.89 1321C1448.02 1325.72 1441.44 1352.77 1425.53 1417C1417.37 1449.93 1416.47 1452.49 1412.81 1453.19C1409.48 1453.82 1408.61 1452.57 1406.03 1443.44C1404.8 1439.07 1403.28 1434.42 1402.65 1433.1C1401.36 1430.41 1401.11 1416.48 1402.24 1410.78C1403.13 1406.28 1409.08 1384.19 1412 1374.5C1413.16 1370.65 1414.3 1366.6 1414.53 1365.5C1414.75 1364.4 1415.84 1359.68 1416.93 1355C1418.02 1350.32 1420.05 1341.32 1421.45 1335C1428.56 1302.74 1431.15 1291.14 1432.07 1287.5C1432.63 1285.3 1434.16 1276.52 1435.47 1268C1436.78 1259.48 1439.2 1244.62 1440.84 1235C1445.6 1207.15 1446.16 1202.77 1449.49 1167.5C1450.27 1159.25 1451.25 1149.12 1451.68 1145C1452.11 1140.88 1452.47 1131.58 1452.48 1124.35C1452.49 1117.11 1452.8 1111.38 1453.17 1111.61C1455.93 1113.3 1453.92 1017.8 1450.43 981.5C1449.54 972.232 1443.9 930.397 1442.6 923.48C1442.4 922.391 1441.03 914.75 1439.57 906.5C1434.79 879.561 1432.89 870.049 1430.83 862.718C1429.71 858.748 1427.74 851.16 1426.44 845.855C1422.54 829.928 1416.4 809.507 1410.1 791.5C1402.48 769.744 1400.19 763.324 1398.51 759C1397.76 757.075 1395.94 752.125 1394.47 748C1392.99 743.875 1390.65 737.575 1389.26 734C1385.15 723.453 1376.05 696.299 1373.35 686.542C1368.5 669.043 1367.2 664 1367.56 664C1367.75 664 1367.26 662.166 1366.47 659.925C1365.68 657.684 1364.75 653.746 1364.41 651.175C1364.07 648.604 1363.63 646.237 1363.44 645.916C1362.99 645.175 1362.7 643.484 1359.95 625.828C1358.92 619.251 1359 612.963 1360.25 600.75C1360.35 599.788 1360.89 598.993 1361.46 598.985C1362.03 598.976 1361.82 598.533 1361 598C1359.75 597.189 1359.81 597.028 1361.42 597.015C1362.47 597.007 1363.09 596.751 1362.78 596.447C1362.04 595.704 1371.54 574.316 1373.47 572.385C1375.22 570.64 1375.47 569 1374 569C1373.45 569 1373 568.564 1373 568.031C1373 567.499 1373.64 567.309 1374.42 567.609C1375.85 568.158 1378.43 564.758 1377.37 563.707C1377.07 563.4 1377.52 563.253 1378.38 563.379C1379.24 563.506 1380.19 563.859 1380.5 564.165ZM551 588C551 588.55 550.523 589 549.941 589C549.359 589 549.16 588.55 549.5 588C549.84 587.45 550.316 587 550.559 587C550.802 587 551 587.45 551 588ZM1358 589C1358.59 590.1 1358.84 591 1358.57 591C1358.29 591 1357.59 590.1 1357 589C1356.41 587.9 1356.16 587 1356.43 587C1356.71 587 1357.41 587.9 1358 589ZM1391.7 637.631C1391.36 637.979 1391.53 639.216 1392.09 640.381C1393.07 642.414 1393.05 642.423 1391.59 640.603C1390.19 638.859 1390.26 637 1391.73 637C1392.06 637 1392.05 637.284 1391.7 637.631ZM1392.68 646.188C1392.36 646.985 1392.13 646.748 1392.08 645.583C1392.04 644.529 1392.27 643.939 1392.6 644.271C1392.94 644.603 1392.97 645.466 1392.68 646.188ZM725.227 680.25C725.431 682.313 725.239 684 724.799 684C724.36 684 724.036 681.862 724.079 679.25C724.166 674.022 724.651 674.445 725.227 680.25ZM1434.81 741.526C1434.5 741.834 1433.94 741.279 1433.56 740.293C1433.02 738.868 1433.14 738.753 1434.12 739.733C1434.81 740.412 1435.12 741.219 1434.81 741.526ZM1433.12 745.267C1432.14 746.247 1432.02 746.132 1432.56 744.707C1432.94 743.721 1433.5 743.166 1433.81 743.474C1434.12 743.781 1433.81 744.588 1433.12 745.267ZM716.349 815.532C715.568 817.568 715.097 817.366 715.27 815.069C715.35 814.007 715.752 813.347 716.164 813.601C716.576 813.856 716.659 814.725 716.349 815.532ZM1494 851C1494 851.55 1493.52 852 1492.94 852C1492.36 852 1492.16 851.55 1492.5 851C1492.84 850.45 1493.32 850 1493.56 850C1493.8 850 1494 850.45 1494 851ZM1466.82 865.923C1467.59 868.12 1467.53 868.967 1466.58 869.331C1465.73 869.658 1465.27 868.706 1465.19 866.408C1465.03 862.231 1465.49 862.096 1466.82 865.923ZM1469 871C1469 871.55 1468.8 872 1468.56 872C1468.32 872 1467.84 871.55 1467.5 871C1467.16 870.45 1467.36 870 1467.94 870C1468.52 870 1469 870.45 1469 871ZM1468.5 879C1468.84 879.55 1468.64 880 1468.06 880C1467.48 880 1467 879.55 1467 879C1467 878.45 1467.2 878 1467.44 878C1467.68 878 1468.16 878.45 1468.5 879ZM530 964.441C530 964.684 529.55 965.16 529 965.5C528.45 965.84 528 965.641 528 965.059C528 964.477 528.45 964 529 964C529.55 964 530 964.198 530 964.441ZM532 970C532 970.55 531.523 971 530.941 971C530.359 971 530.16 970.55 530.5 970C530.84 969.45 531.316 969 531.559 969C531.802 969 532 969.45 532 970ZM1449.68 1033.19C1449.36 1033.98 1449.13 1033.75 1449.08 1032.58C1449.04 1031.53 1449.27 1030.94 1449.6 1031.27C1449.94 1031.6 1449.97 1032.47 1449.68 1033.19ZM1261.32 1046.1C1261.62 1047.25 1261.59 1047.92 1261.24 1047.58C1260.54 1046.87 1258.5 1051.99 1253.97 1065.83C1252.23 1071.15 1250.17 1076.77 1249.4 1078.33C1248.63 1079.89 1248 1081.62 1248 1082.18C1248 1082.74 1247.36 1084.62 1246.59 1086.35C1244.48 1091.05 1239.05 1105.69 1238.65 1107.72C1238.46 1108.7 1238.01 1110.18 1237.65 1111C1236.1 1114.57 1221.39 1159.47 1219.13 1167.5C1218.05 1171.35 1215.72 1179.45 1213.95 1185.5C1212.18 1191.55 1210.68 1197.92 1210.62 1199.65C1210.55 1201.39 1210.27 1202.66 1209.99 1202.49C1209.7 1202.32 1208.23 1206.52 1206.71 1211.84C1205.19 1217.15 1203.25 1223.91 1202.39 1226.86C1201.53 1229.81 1200.64 1233.41 1200.4 1234.86C1199.76 1238.87 1197.05 1251.11 1196.05 1254.5C1194.57 1259.53 1190.96 1276.32 1190.57 1280.02C1190.13 1284.1 1188.67 1292.91 1185.94 1308C1183.27 1322.8 1178.91 1359.18 1177.31 1380C1176.35 1392.44 1176.38 1444.28 1177.35 1455C1177.99 1462.09 1178.3 1464.8 1179.5 1473.75C1179.78 1475.81 1180.26 1479.53 1180.56 1482C1183.34 1504.49 1196.28 1547.66 1201.28 1551.11C1201.77 1551.45 1202.06 1551.9 1201.92 1552.11C1201.42 1552.89 1205.25 1560 1206.17 1560C1206.69 1560 1206.87 1560.4 1206.57 1560.89C1206.27 1561.37 1206.69 1562.33 1207.51 1563.01C1208.33 1563.69 1209 1564.89 1209 1565.68C1209 1566.47 1209.4 1566.87 1209.89 1566.57C1210.38 1566.26 1211.05 1567.05 1211.37 1568.33C1211.91 1570.48 1216.02 1575.61 1223.75 1583.75C1225.54 1585.63 1227 1587.39 1227 1587.66C1227 1588.97 1236.66 1596.28 1240.75 1598.07C1242.54 1598.85 1244 1599.81 1244 1600.2C1244 1601.57 1254.53 1604.1 1262.6 1604.68C1275.06 1605.57 1279.51 1603.72 1289.65 1593.46C1294.13 1588.93 1298.1 1584.27 1298.47 1583.11C1298.83 1581.95 1299.55 1581 1300.07 1581C1300.58 1581 1301 1580.1 1301 1579C1301 1577.9 1301.45 1577 1302 1577C1302.55 1577 1303 1576.14 1303 1575.08C1303 1574.03 1303.41 1573.02 1303.91 1572.83C1304.4 1572.65 1304.97 1571.38 1305.16 1570C1305.35 1568.62 1305.72 1567.28 1306 1567C1306.52 1566.48 1308.82 1560.62 1309.52 1558C1312.18 1548.22 1313.99 1540.96 1314.41 1538.5C1315.95 1529.35 1316.99 1521.78 1317.5 1516C1317.82 1512.42 1318.3 1507.14 1318.58 1504.26C1319.32 1496.76 1319.27 1459.62 1318.52 1450.34C1317.36 1435.98 1313.45 1399.32 1312.62 1395C1312.36 1393.62 1311.85 1389.12 1311.5 1385C1310.68 1375.45 1310.42 1373.55 1309.09 1367.76C1308.49 1365.15 1308.07 1362.67 1308.16 1362.26C1308.25 1361.84 1308.04 1360.38 1307.69 1359C1307.34 1357.62 1306.86 1355.15 1306.61 1353.5C1305.52 1346.08 1302.76 1331.43 1302.33 1330.73C1302.07 1330.31 1301.67 1328.74 1301.43 1327.23C1301.19 1325.73 1300.73 1322.92 1300.4 1321C1300.07 1319.08 1299.61 1316.38 1299.37 1315C1299.14 1313.62 1298.3 1309.12 1297.5 1305C1296.7 1300.88 1295.79 1295.92 1295.49 1294C1295.18 1292.08 1294.75 1289.82 1294.52 1289C1294.3 1288.18 1293.87 1285.92 1293.57 1284C1293.27 1282.08 1292.09 1275.55 1290.96 1269.5C1289.83 1263.45 1288.03 1253.78 1286.96 1248C1285.9 1242.22 1284.84 1236.6 1284.63 1235.5C1284.41 1234.4 1283.92 1231.03 1283.55 1228C1283.17 1224.97 1282.47 1221.15 1281.98 1219.5C1281.5 1217.85 1280.84 1214.92 1280.52 1213C1279.89 1209.28 1279.74 1208.35 1278.43 1200.5C1277.49 1194.86 1277.34 1194.1 1277.04 1193.75C1276.8 1193.45 1276.5 1190.94 1275.57 1181.5C1275.2 1177.65 1274.54 1173.15 1274.11 1171.5C1273.68 1169.85 1273.38 1166.85 1273.44 1164.83C1273.5 1162.81 1273.2 1161.37 1272.78 1161.64C1272.35 1161.9 1271.98 1161.53 1271.95 1160.81C1271.92 1160.09 1271.73 1157.7 1271.52 1155.5C1271.31 1153.3 1270.87 1148.59 1270.55 1145.04C1270.22 1141.49 1269.78 1137.44 1269.56 1136.04C1267.91 1125.45 1267.03 1118.46 1266.53 1112C1264.48 1085.34 1264.02 1077.71 1263.57 1062.5C1263.29 1053.15 1263.05 1045.16 1263.03 1044.75C1263.01 1044.34 1262.5 1044 1261.88 1044C1261.24 1044 1261 1044.89 1261.32 1046.1ZM785.09 1053.75C784.95 1058.56 784.693 1065.42 784.518 1069C784.343 1072.58 784.109 1079.78 783.997 1085C783.886 1090.22 783.426 1098.1 782.976 1102.5C782.526 1106.9 781.879 1114.32 781.537 1119C780.663 1130.98 779.358 1141.77 777.186 1155C776.78 1157.47 776.459 1160.96 776.474 1162.75C776.488 1164.54 776.217 1166 775.87 1166C775.524 1166 775.008 1168.59 774.725 1171.75C774.441 1174.91 772.138 1189.2 769.607 1203.5C765.6 1226.14 761.659 1249.11 757.854 1272C757.26 1275.58 756.382 1279.4 755.903 1280.5C755.425 1281.6 754.913 1284.59 754.766 1287.15C754.62 1289.71 754.199 1291.62 753.831 1291.4C753.064 1290.92 752.757 1292.28 750.082 1308C747.032 1325.92 747.011 1326.03 745.474 1334.5C744.675 1338.9 743.762 1344.3 743.445 1346.5C742.299 1354.45 740.158 1367.78 739.507 1371C739.229 1372.38 738.791 1375.89 738.533 1378.82C738.275 1381.74 737.626 1386.69 737.091 1389.82C736.556 1392.94 735.843 1397.75 735.506 1400.5C734.619 1407.73 734.227 1410.61 732.979 1419C732.366 1423.12 731.633 1430.32 731.35 1435C731.067 1439.68 730.482 1448.45 730.049 1454.5C729.165 1466.85 729.362 1507.62 730.331 1513C730.678 1514.92 731.219 1518.53 731.534 1521C732.727 1530.37 733.141 1532.72 734.973 1540.5C736.009 1544.9 737.068 1549.85 737.328 1551.5C737.588 1553.15 738.284 1555.74 738.875 1557.25C739.467 1558.76 739.78 1560 739.571 1560C738.511 1560 746.3 1577.6 749.393 1582.2C759.663 1597.46 771.097 1605.19 783.816 1605.47C791.219 1605.63 801.372 1602.45 805.656 1598.62C806.345 1598 809.37 1595.94 812.377 1594.03C815.384 1592.12 817.628 1590.21 817.363 1589.78C816.911 1589.05 818.479 1588.59 820.324 1588.91C820.778 1588.99 820.864 1588.59 820.515 1588.03C820.167 1587.46 820.274 1587 820.752 1587C821.911 1587 824.558 1584.43 830 1578.01C832.475 1575.09 835.004 1572.19 835.62 1571.55C836.237 1570.92 837.537 1568.85 838.51 1566.95C839.483 1565.05 840.613 1563.28 841.022 1563C844.194 1560.87 857.333 1530.29 860.576 1517.5C860.995 1515.85 861.405 1514.28 861.488 1514C862.664 1510.11 863.997 1504.99 864.351 1503C864.596 1501.62 865.548 1496.9 866.467 1492.5C868.375 1483.37 869.086 1478.98 869.468 1474C869.616 1472.08 869.998 1469.38 870.319 1468C872.911 1456.86 873.109 1387.16 870.591 1372C870.362 1370.62 869.905 1366.12 869.575 1362C869.245 1357.88 868.781 1353.38 868.546 1352C868.31 1350.62 867.6 1344.1 866.969 1337.51C866.337 1330.91 865.659 1325.26 865.462 1324.94C865.266 1324.62 864.821 1322.14 864.473 1319.43C864.125 1316.72 863.226 1311.35 862.476 1307.5C860.927 1299.55 860.132 1295.05 859.388 1290C856.088 1267.62 843.595 1214.64 834.392 1184C832.987 1179.32 830.692 1171.68 829.29 1167C827.888 1162.32 825.633 1155.12 824.279 1151C822.925 1146.88 821.675 1142.82 821.502 1142C821.329 1141.18 820.452 1138.47 819.554 1136C818.655 1133.53 817.754 1130.79 817.55 1129.92C817.346 1129.05 814.843 1121.85 811.987 1113.92C809.131 1105.99 803.741 1090.73 800.01 1080C796.279 1069.27 792.438 1058.7 791.474 1056.5C789.499 1051.99 788.439 1049.31 787.622 1046.75C786.341 1042.74 785.328 1045.54 785.09 1053.75ZM1242.12 1105.27C1241.14 1106.25 1241.02 1106.13 1241.56 1104.71C1241.94 1103.72 1242.5 1103.17 1242.81 1103.47C1243.12 1103.78 1242.81 1104.59 1242.12 1105.27ZM1236.22 1125.18C1235.59 1125.81 1235.45 1125.15 1235.82 1123.33C1236.25 1121.23 1236.5 1120.98 1236.79 1122.36C1237.01 1123.38 1236.75 1124.65 1236.22 1125.18ZM1291.68 1295.19C1291.36 1295.98 1291.13 1295.75 1291.08 1294.58C1291.04 1293.53 1291.27 1292.94 1291.6 1293.27C1291.94 1293.6 1291.97 1294.47 1291.68 1295.19ZM601.683 1351.19C601.364 1351.98 601.127 1351.75 601.079 1350.58C601.036 1349.53 601.272 1348.94 601.604 1349.27C601.936 1349.6 601.972 1350.47 601.683 1351.19ZM647.309 1400.31C647.002 1400.81 646.386 1400.62 645.941 1399.91C645.496 1399.19 645.384 1398.19 645.691 1397.69C645.998 1397.19 646.614 1397.38 647.059 1398.09C647.504 1398.81 647.616 1399.81 647.309 1400.31ZM1429 1424C1429 1425.1 1428.83 1426 1428.62 1426C1428.41 1426 1428 1425.1 1427.71 1424C1427.42 1422.9 1427.59 1422 1428.09 1422C1428.59 1422 1429 1422.9 1429 1424ZM643.985 1466C644.856 1464.67 644.971 1464.68 644.985 1466.03C644.993 1466.87 644.1 1468.21 643 1469C641.068 1470.39 640.08 1472.69 641.895 1471.56C642.388 1471.26 643.088 1471.79 643.452 1472.74C643.817 1473.69 643.636 1474.62 643.051 1474.82C642.466 1475.01 642.242 1475.58 642.553 1476.08C642.864 1476.59 642.668 1477 642.118 1477C640.528 1477 639.627 1474.87 639.382 1470.54C639.154 1466.5 640.779 1464.07 642.224 1466.3C642.803 1467.2 643.25 1467.12 643.985 1466ZM1136.68 1506.19C1136.36 1506.98 1136.13 1506.75 1136.08 1505.58C1136.04 1504.53 1136.27 1503.94 1136.6 1504.27C1136.94 1504.6 1136.97 1505.47 1136.68 1506.19ZM1220.49 1574.99C1220.84 1575.56 1220.44 1575.72 1219.55 1575.38C1217.82 1574.72 1217.5 1574 1218.94 1574C1219.46 1574 1220.16 1574.45 1220.49 1574.99ZM1226 1577C1226 1577.55 1225.8 1578 1225.56 1578C1225.32 1578 1224.84 1577.55 1224.5 1577C1224.16 1576.45 1224.36 1576 1224.94 1576C1225.52 1576 1226 1576.45 1226 1577ZM829.5 1615C829.16 1615.55 828.346 1615.99 827.691 1615.98C826.975 1615.97 827.099 1615.58 828 1615C829.921 1613.76 830.267 1613.76 829.5 1615Z" fill="currentColor"/>
</svg>
