<svg width="509" height="412" viewBox="0 0 509 412" fill="none" xmlns="http://www.w3.org/2000/svg">

<path fill-rule="evenodd" clip-rule="evenodd" d="M434.021 0.843725C417.137 4.53073 389.639 13.5197 383.345 17.4097C377.049 21.3007 373.334 31.2957 375.161 39.4287C376.015 43.2307 375.853 43.6847 372.117 47.9287C368.09 52.5037 365.004 59.6147 365.043 64.2287C365.132 74.6207 382.51 90.3007 393.938 90.3007C397.599 90.3007 398.163 90.6547 399.912 94.0507C400.975 96.1137 403.328 99.3047 405.142 101.144C408.696 104.747 418.903 110.289 425.771 112.345C429.885 113.577 430.021 113.751 430.021 117.773C430.021 125.382 427.151 143.69 424.565 152.585C418.934 171.946 413.413 180.639 395.531 198.301C388.57 205.176 380.978 213.276 378.66 216.301C373.86 222.565 367.021 233.578 367.021 235.044C367.021 235.584 365.762 239.125 364.224 242.913C362.685 246.702 360.597 253.394 359.584 257.785L357.74 265.768L354.737 257.785C351.928 250.319 350.646 248.033 343.101 237.051C337.75 229.26 325.326 219.235 314.495 213.965C295.584 204.765 281.768 201.852 260.582 202.599C245.743 203.121 237.098 204.704 226.817 208.78L223.112 210.248L215.817 203.025C204.214 191.537 194.875 184.853 180.702 177.895C163.878 169.635 154.843 166.648 140.526 164.611C134.198 163.711 129.021 162.701 129.021 162.367C129.021 161.81 118.617 162.323 100.28 163.784C93.6548 164.311 82.6588 167.014 72.5208 170.607C68.6628 171.974 68.3718 171.922 64.3208 169.149C56.5868 163.854 39.8098 156.156 26.3638 151.732C14.7668 147.915 1.23779 144.75 0.343792 145.644C0.0587922 145.93 -0.0242205 193.652 0.00577952 339.496L0.0207942 410.192L47.7708 410.259C74.0338 410.296 97.6348 410.6 100.218 410.935C102.801 411.27 105.971 411.279 107.262 410.955C110.026 410.262 117.468 401.24 125.33 389.053C130.812 380.555 144.182 355.027 145.496 350.551C145.859 349.314 146.482 348.301 146.88 348.301C147.279 348.301 149.611 350.368 152.063 352.893C170.737 372.129 203.116 392.565 227.021 400.204C263.574 411.883 296.279 413.383 336.401 405.22C345.681 403.332 347.259 403.289 362.401 404.506C371.644 405.248 391.983 405.749 410.077 405.678C446.473 405.537 450.183 404.958 457.418 398.289C463.363 392.809 466.383 386.686 470.912 370.933C473.761 361.021 477.044 352.806 482.863 341.033C492.413 321.714 497.144 308.062 499.926 291.801C503.681 269.851 504.16 263.349 503.857 238.407C503.285 191.232 503.804 158.964 505.363 144.718C509.219 109.479 509.205 104.714 505.216 93.2027C499.861 77.7517 469.156 18.9197 460.815 8.12974C455.523 1.28274 445.051 -1.56527 434.021 0.843725ZM53.8338 159.984C54.5548 160.273 55.4178 160.237 55.7498 159.905C56.0818 159.573 55.4918 159.337 54.4378 159.38C53.2728 159.428 53.0358 159.665 53.8338 159.984Z" fill="currentColor"/>
</svg>
