<svg width="818" height="1472" viewBox="0 0 818 1472" fill="none" xmlns="http://www.w3.org/2000/svg">
<path fill-rule="evenodd" clip-rule="evenodd" d="M113.837 1.34297C102.665 4.87797 93.4089 11.51 85.5449 21.61C76.4859 33.244 72.4159 51.421 66.3229 107.443C64.9739 119.85 60.5689 148.401 59.3799 152.443C58.8949 154.093 58.1939 157.468 57.8229 159.943C56.7879 166.846 48.5069 199.762 46.9139 203.304C46.1369 205.03 44.1759 211.845 42.5549 218.448C40.9349 225.05 37.9939 236.3 36.0199 243.448C32.9229 254.66 19.2819 312.748 17.8829 320.681C17.6149 322.2 16.4899 327.844 15.3829 333.223C13.4329 342.698 7.15689 386.745 5.87689 399.943C5.52989 403.518 4.8299 408.468 4.3219 410.943C3.8139 413.418 3.14592 418.818 2.83692 422.943C2.52892 427.068 1.7849 437.193 1.1839 445.443C-0.404099 467.245 -0.391094 545.374 1.20191 555.443C2.74891 565.218 2.99791 567.303 3.83191 577.443C5.49591 597.702 11.9689 635.212 17.7219 657.943C23.0199 678.874 37.2589 724.272 44.4419 743.132C51.3869 761.365 55.8709 774.444 57.3189 780.693C57.9889 783.581 58.9679 785.943 59.4959 785.943C60.0229 785.943 60.1899 786.372 59.8659 786.895C59.5429 787.419 59.9409 792.032 60.7529 797.145C64.7419 822.296 65.5449 829.835 66.0579 846.943C67.0399 879.753 63.6319 905.884 51.7109 956.943C39.8479 1007.75 37.4869 1018.17 36.8679 1022.44C36.5489 1024.64 35.6369 1030.04 34.8409 1034.44C30.1869 1060.17 28.8379 1078.49 28.8379 1115.94C28.8369 1169.48 31.2759 1191.27 42.3279 1236.44C43.9419 1243.04 47.1059 1256.32 49.3569 1265.94C51.6079 1275.57 54.3139 1286.37 55.3699 1289.94C56.4259 1293.52 59.5659 1306.79 62.3479 1319.44C65.1299 1332.09 68.0649 1345.26 68.8709 1348.69C72.2979 1363.3 73.3189 1367.87 74.8549 1375.44C75.7469 1379.84 77.3439 1387.72 78.4029 1392.94C81.1479 1406.49 85.0889 1431.23 85.8099 1439.44C87.7089 1461.07 92.1209 1469.63 102.016 1470.9C104.688 1471.24 140.109 1471.62 180.729 1471.73L254.583 1471.93L259.33 1469.35C266.563 1465.41 268.058 1461.16 268.793 1442.44C269.538 1423.48 275.428 1367.35 279.288 1342.44C282.073 1324.47 289.404 1287.53 292.786 1274.44C293.638 1271.14 294.586 1267.09 294.892 1265.44C296.05 1259.2 299.504 1244.02 302.287 1232.94C309.193 1205.45 312.665 1179.83 314.522 1142.66C316.141 1110.24 315.143 1098.24 306.231 1042.94C305.122 1036.07 303.578 1027.52 302.799 1023.94C294.463 985.7 296.672 964.06 312.805 925.943C328.794 888.166 338.978 845.172 341.864 803.258C342.197 798.41 342.642 793.904 342.853 793.245C343.063 792.585 343.332 782.46 343.452 770.745C343.822 734.444 346.465 702.066 350.956 678.831C353.825 663.983 353.81 664.054 354.588 661.943C354.892 661.118 357.436 650.093 360.242 637.443C363.048 624.793 367.823 603.643 370.853 590.443C373.883 577.243 377.905 559.018 379.789 549.943C381.674 540.868 384.622 526.918 386.341 518.943C390.65 498.949 394.41 476.55 395.827 462.443C396.158 459.143 396.624 455.768 396.862 454.943C397.099 454.118 398.437 443.543 399.834 431.443C403.846 396.711 405.208 387.929 406.84 386.297C408.498 384.639 412.337 385.33 412.337 387.287C412.337 387.951 412.753 392.084 413.261 396.469C413.768 400.855 414.442 407.593 414.757 411.443C416.066 427.447 420.401 462.396 422.696 475.443C424.05 483.143 426.351 496.193 427.81 504.443C431.534 525.5 439.989 563.877 455.901 631.943C469.02 688.064 471.613 706.586 472.837 752.943C474.106 800.945 476.794 830.427 482.23 855.943C485.06 869.228 491.978 893.195 496.663 905.943C497.976 909.518 499.38 913.343 499.782 914.443C500.184 915.543 502.92 922.293 505.862 929.443C514.302 949.956 517.097 959.314 518.386 971.384C520.19 988.268 519.198 999.767 513.251 1030.94C509.308 1051.61 508.06 1060.42 504.363 1093.65C502.19 1113.17 501.657 1149.95 503.322 1165.44C506.73 1197.16 509.1 1209.72 521.144 1259.94C523.32 1269.02 526.977 1285.89 529.27 1297.44C531.563 1308.99 534.295 1322.49 535.341 1327.44C536.387 1332.39 537.745 1340.04 538.358 1344.44C538.972 1348.84 539.643 1353.57 539.851 1354.94C540.618 1360.02 543.278 1382.78 544.352 1393.44C544.961 1399.49 545.69 1405.12 545.973 1405.94C546.255 1406.77 546.672 1410.71 546.9 1414.69C547.127 1418.68 547.511 1423.63 547.753 1425.69C547.994 1427.76 548.497 1435.52 548.871 1442.94C549.647 1458.37 551.19 1463.28 556.468 1467.1C563.306 1472.06 560.358 1471.9 640.837 1471.67L716.837 1471.44L721.066 1468.69C727.165 1464.73 728.849 1460.56 731.285 1443.41C735.831 1411.39 739.003 1393.55 745.412 1363.94C748.496 1349.7 752.071 1332.73 755.317 1316.94C756.391 1311.72 757.742 1305.87 758.32 1303.94C758.897 1302.02 759.588 1299.24 759.855 1297.77C761.023 1291.32 764.59 1277.35 765.301 1276.44C765.73 1275.89 767.967 1267.12 770.272 1256.94C772.577 1246.77 775.303 1235.07 776.33 1230.94C778.472 1222.33 783.872 1193.03 785.359 1181.94C788.262 1160.3 788.683 1152.86 788.753 1121.94C788.801 1101.18 788.335 1083.5 787.529 1075.44C786.345 1063.62 783.15 1040.14 781.882 1033.94C781.601 1032.57 779.578 1022.44 777.388 1011.44C773.376 991.294 771.142 980.951 764.859 953.443C754.106 906.361 751.156 885.029 751.229 854.887C751.302 824.391 756.298 789.174 763.455 768.699C764.559 765.54 765.207 762.541 764.894 762.035C764.581 761.528 764.693 760.963 765.144 760.778C766.221 760.337 771.337 746.384 771.337 743.886C771.337 742.817 771.836 741.943 772.445 741.943C773.143 741.943 773.317 740.923 772.915 739.193C772.546 737.604 772.629 736.968 773.111 737.686C773.668 738.514 774.564 737.179 775.795 733.686C776.811 730.802 778.453 726.643 779.443 724.443C782.092 718.558 785.83 707.255 790.359 691.443C792.565 683.743 794.574 676.768 794.825 675.943C797.322 667.717 803.72 640.674 805.708 629.943C809.682 608.492 815.299 567.175 815.293 559.443C815.291 557.793 815.863 547.537 816.564 536.653C818.132 512.28 817.283 458.047 814.948 433.443C813.178 414.791 812.697 409.665 811.801 399.943C810.799 389.072 804.493 348.872 799.751 323.124C794.651 295.433 788.821 271.583 773.55 215.943C768.4 197.178 758.13 153.948 756.712 145.066C756.416 143.209 755.984 140.734 755.753 139.566C754.173 131.575 752.258 119.019 751.388 110.943C748.324 82.498 743.258 51.218 739.733 38.986C734.427 20.569 721.25 6.76599 703.905 1.45298C699.553 0.119985 664.871 -0.0490389 408.405 0.00996109C176.917 0.0629611 117.024 0.333969 113.837 1.34297ZM572.066 2.54698C571.734 2.87898 570.871 2.91499 570.15 2.62599C569.352 2.30699 569.589 2.06999 570.754 2.02199C571.808 1.97899 572.398 2.21498 572.066 2.54698ZM95.9799 14.443C95.1549 15.268 94.1679 15.943 93.7859 15.943C93.4039 15.943 93.6519 15.268 94.3369 14.443C95.0219 13.618 96.0089 12.943 96.5309 12.943C97.0529 12.943 96.8049 13.618 95.9799 14.443ZM116.837 158.116C139.018 161.451 162.624 170.971 180.837 183.925C199.701 197.343 218.977 221.049 230.695 245.242C240.163 264.791 252.967 303.493 271.785 369.443C284.057 412.452 285.751 418.749 290.355 438.443C292.669 448.343 296.265 463.643 298.345 472.443C300.426 481.243 303.113 492.943 304.317 498.443C305.52 503.943 307.579 512.943 308.893 518.443C311.918 531.11 314.084 542.008 315.848 553.443C316.611 558.393 318.143 567.393 319.251 573.443C321.332 584.798 324.856 611.693 325.912 624.282C326.411 630.218 325.98 633.714 323.391 644.718C317.792 668.52 315.08 687.332 312.834 717.943C312.572 721.518 311.897 737.718 311.334 753.943C310.771 770.168 309.864 785.9 309.319 788.902C307.71 797.76 300.46 807.695 289.138 816.555C285.933 819.063 278.168 822.912 271.222 825.436C261.551 828.951 244.506 829.929 233.578 827.596C218.817 824.446 208.877 818.722 196.695 806.359C184.552 794.035 175.708 779.062 169.281 759.943C165.32 748.158 164.025 748.419 159.342 761.943C157.342 767.718 154.665 774.468 153.394 776.943C145.448 792.409 131.505 807.157 119.006 813.319C111.754 816.893 100.732 820.305 99.2969 819.418C98.8679 819.153 98.0109 815.675 97.3919 811.689C96.7739 807.704 96.0499 803.044 95.7839 801.334C95.3159 798.332 95.5009 798.151 101.153 796.09C118.185 789.88 131.892 775.474 137.451 757.943C143.291 739.525 139.978 706.775 128.7 671.443C121.908 650.164 120.093 644.192 115.484 627.943C106.439 596.055 100.018 563.254 94.7739 522.139C88.9009 476.092 89.6079 402.824 96.3499 358.943C100.332 333.022 105.64 303.154 106.726 300.556C108.501 296.31 110.274 295.05 115.483 294.336C119.33 293.809 120.353 294.086 123.098 296.395C126.975 299.657 127.844 303.6 126.432 311.511C125.849 314.773 125.132 319.018 124.837 320.943C124.542 322.868 123.637 328.718 122.825 333.943C120.837 346.744 117.805 373.324 115.696 396.443C112.887 427.234 113.728 488.304 117.438 522.943C122.111 566.58 136.486 629.901 150.355 667.943C151.859 672.068 154.312 679.718 155.805 684.943C160.358 700.869 161.526 704.158 162.319 703.283C162.738 702.821 163.617 696.143 164.272 688.443C164.926 680.743 165.639 673.318 165.855 671.943C171.782 634.249 177.385 603.577 179.231 598.721C180.389 595.676 184.956 592.943 188.886 592.943C192.756 592.943 198.362 595.905 199.589 598.597C200.423 600.427 199.761 605.556 196.548 622.189C186.894 672.152 183.929 702.338 186.31 726.443C189.515 758.903 197.409 778.193 212.972 791.597C227.481 804.094 240.718 808.272 258.104 805.842C270.087 804.167 282.153 795.54 290.694 782.541C297.504 772.176 303.617 745.028 305.239 717.943C306.731 693.037 305.361 639.512 302.781 621.943C302.498 620.018 301.39 611.018 300.319 601.943C299.247 592.868 297.666 581.618 296.805 576.943C295.943 572.268 294.344 563.268 293.251 556.943C288.195 527.692 284.031 505.608 281.844 496.443C280.531 490.943 278.293 481.493 276.869 475.443C272.571 457.18 258.319 401.026 255.675 391.943C254.315 387.268 251.611 378.043 249.666 371.443C247.722 364.843 245.55 357.418 244.839 354.943C243.629 350.726 240.393 340.432 233.208 317.943C213.404 255.954 204.858 237.609 186.653 217.998C175.798 206.306 165.799 198.66 153.95 192.991C136 184.404 121.321 180.52 102.581 179.4C97.2219 179.08 91.8839 178.627 90.7189 178.394C88.4959 177.95 88.4959 177.784 90.7349 167.943C91.0469 166.568 91.5689 164.093 91.8949 162.443C93.3059 155.284 92.7379 155.636 101.692 156.383C106.172 156.758 112.987 157.537 116.837 158.116ZM724.726 157.693C725.567 160.506 728.468 178.148 728.138 178.445C727.972 178.593 723.337 179.029 717.837 179.414C691.378 181.264 669.946 188.05 651.337 200.469C625.135 217.955 608.314 243.622 594.336 287.443C592.582 292.943 590.334 299.468 589.342 301.943C585.561 311.373 568.978 366.56 562.299 391.943C560.2 399.918 557.317 410.493 555.892 415.443C552.417 427.515 545.574 453.893 543.828 461.943C543.053 465.518 540.579 476.543 538.33 486.443C536.082 496.343 532.878 510.743 531.212 518.443C529.545 526.143 527.302 536.493 526.229 541.443C525.155 546.393 523.869 553.143 523.37 556.443C522.872 559.743 521.535 568.518 520.4 575.943C517.719 593.473 515.678 609.622 513.638 629.443C511.471 650.503 511.167 719.693 513.178 733.943C516.593 758.137 520.9 773.21 527.191 782.986C531.508 789.693 539.545 797.243 546.041 800.695C568.377 812.563 592.322 807.201 610.231 786.322C616.741 778.733 619.18 774.565 623.176 764.206C628.908 749.341 630.469 739.044 631.024 712.443C631.478 690.7 631.278 686.468 628.9 667.443C627.456 655.893 625.876 644.868 625.388 642.943C624.9 641.018 623.962 636.068 623.304 631.943C622.646 627.818 621.713 623.952 621.231 623.351C620.749 622.75 620.576 622.037 620.847 621.766C621.118 621.495 620.439 617.752 619.338 613.448C616.529 602.466 616.698 599.736 620.414 596.02C622.89 593.544 624.325 592.943 627.766 592.943C633.156 592.943 638.761 596.451 639.011 599.982C639.107 601.335 640.804 610.543 642.782 620.443C646.653 639.814 651.564 672.364 653.417 690.943C654.548 702.275 655.602 705.923 656.696 702.294C657.003 701.276 660.229 690.562 663.865 678.486C667.5 666.409 670.634 656.271 670.829 655.956C671.598 654.712 685.221 605.984 686.769 598.943C687.676 594.818 689.07 588.518 689.866 584.943C693.388 569.147 700.448 518.63 701.886 498.943C702.267 493.718 702.76 489.133 702.98 488.753C703.476 487.899 703.399 430.131 702.893 423.943C702.691 421.468 702.244 412.918 701.901 404.943C701.1 386.355 699.649 369.812 697.821 358.443C695.819 345.99 691.203 313.402 690.668 307.943C690.121 302.366 692.638 297.015 696.72 295.076C700.857 293.111 706.812 295.031 709.307 299.135C711.379 302.541 715.336 322.604 718.342 344.943C719.415 352.918 720.94 363.943 721.732 369.443C723.366 380.799 725.095 399.378 726.292 418.443C727.654 440.13 726.18 499.138 723.782 518.943C717.517 570.691 707.409 615.343 688.81 673.443C685.288 684.443 681.748 696.368 680.943 699.943C676.545 719.462 676.293 745.252 680.371 758.443C685.674 775.599 699.832 789.845 717.122 795.422C722.389 797.121 722.405 797.139 721.93 800.785C721.669 802.797 721.147 806.918 720.771 809.943C720.396 812.968 719.714 816.432 719.257 817.642L718.426 819.84L711.279 817.86C685.725 810.778 665.333 788.076 656.729 757.13C654.189 747.993 652.382 748.655 648.375 760.193C644.288 771.958 637.765 785.057 631.692 793.691C625.408 802.628 613.158 814.612 605.96 818.866C586.262 830.508 563.134 832.081 541.837 823.227C528.433 817.655 514.986 806.11 510.309 796.16C508.454 792.213 508.103 788.802 507.269 766.571C504.951 704.798 501.445 674.291 492.891 641.483C490.188 631.116 490.805 622.947 497.918 574.943C500.296 558.892 505.446 532.124 513.311 494.943C518.528 470.276 536.069 399.834 541.2 382.943C542.787 377.718 546.239 366.243 548.871 357.443C551.502 348.643 554.742 337.843 556.071 333.443C557.399 329.043 559.764 321.168 561.327 315.943C562.89 310.718 564.67 305.093 565.282 303.443C565.895 301.793 567.926 295.718 569.796 289.943C580.12 258.058 585.456 245.124 594.512 230.031C605.472 211.764 621.969 193.273 635.847 183.699C645.151 177.28 662.24 167.943 664.684 167.943C665.608 167.943 667.146 167.507 668.101 166.974C675.122 163.056 706.492 156.466 720.02 156.066C723.205 155.972 724.327 156.36 724.726 157.693ZM678.837 160.943C676.088 162.124 674.509 162.124 676.337 160.943C677.162 160.41 678.512 159.998 679.337 160.029C680.326 160.065 680.156 160.376 678.837 160.943ZM157.337 167.55C157.337 167.766 156.662 167.943 155.837 167.943C155.012 167.943 154.337 167.507 154.337 166.974C154.337 166.442 155.012 166.265 155.837 166.581C156.662 166.898 157.337 167.334 157.337 167.55ZM139.337 188.943C139.337 189.493 138.86 189.943 138.278 189.943C137.696 189.943 137.497 189.493 137.837 188.943C138.177 188.393 138.653 187.943 138.896 187.943C139.139 187.943 139.337 188.393 139.337 188.943ZM532.682 404.486C532.356 405.335 531.875 405.815 531.613 405.553C531.351 405.291 531.433 404.596 531.796 404.01C532.782 402.414 533.358 402.724 532.682 404.486ZM813.02 553.131C812.701 553.928 812.464 553.691 812.416 552.526C812.373 551.472 812.609 550.882 812.941 551.214C813.273 551.546 813.309 552.409 813.02 553.131ZM693.02 670.131C692.701 670.928 692.464 670.691 692.416 669.526C692.373 668.472 692.609 667.882 692.941 668.214C693.273 668.546 693.309 669.409 693.02 670.131ZM131.999 694.193C131.722 694.881 131.495 694.318 131.495 692.943C131.495 691.568 131.722 691.006 131.999 691.693C132.277 692.381 132.277 693.506 131.999 694.193ZM165.637 754.284C165.92 755.021 165.701 756.259 165.15 757.034C164.357 758.15 164.266 758.079 164.711 756.693C165.021 755.73 164.812 754.943 164.247 754.943C163.681 754.943 163.497 754.493 163.837 753.943C164.659 752.613 165.023 752.681 165.637 754.284ZM653.337 755.884C653.337 756.402 652.962 757.057 652.504 757.34C652.045 757.623 651.67 757.2 651.67 756.399C651.67 755.598 652.045 754.943 652.504 754.943C652.962 754.943 653.337 755.366 653.337 755.884ZM162.52 761.16C161.803 761.877 161.337 761.936 161.337 761.31C161.337 759.975 162.52 758.792 163.187 759.46C163.471 759.744 163.171 760.509 162.52 761.16ZM167.322 759.693C167.313 760.105 166.883 761.112 166.366 761.93C165.627 763.099 165.462 762.939 165.594 761.18C165.743 759.198 167.36 757.806 167.322 759.693ZM652.02 761.131C651.701 761.928 651.464 761.691 651.416 760.526C651.373 759.472 651.609 758.882 651.941 759.214C652.273 759.546 652.309 760.409 652.02 761.131ZM161.337 765.943C161.337 766.493 160.887 766.943 160.337 766.943C159.787 766.943 159.337 766.493 159.337 765.943C159.337 765.393 159.787 764.943 160.337 764.943C160.887 764.943 161.337 765.393 161.337 765.943ZM159.337 771.384C159.337 771.627 158.887 772.103 158.337 772.443C157.787 772.783 157.337 772.584 157.337 772.002C157.337 771.42 157.787 770.943 158.337 770.943C158.887 770.943 159.337 771.141 159.337 771.384ZM265.99 960.71C265.659 962.782 265.115 970.994 264.781 978.96C264.111 994.951 263.711 996.542 257.984 1005.94C245.314 1026.74 228.86 1068.96 222.794 1096.22C217.979 1117.86 214.1 1148.42 212.736 1175.44C212.347 1183.14 211.899 1191.92 211.74 1194.94C211.47 1200.11 213.195 1304.42 213.827 1321.11C213.987 1325.33 214.339 1329.15 214.61 1329.61C214.881 1330.07 215.182 1335.14 215.28 1340.89C215.378 1346.63 215.618 1351.59 215.814 1351.91C216.225 1352.57 217.451 1380.07 217.681 1393.77L217.837 1403.09L214.002 1406.61C210.57 1409.76 209.704 1410.08 205.748 1409.68C202.433 1409.35 200.703 1408.52 198.832 1406.34C195.655 1402.65 195.075 1398.72 193.825 1372.44C193.537 1366.39 193.09 1358.74 192.831 1355.44C192.572 1352.14 192.073 1344.49 191.723 1338.44C191.373 1332.39 190.958 1327.21 190.8 1326.93C190.437 1326.28 189.329 1297.83 188.388 1264.94C187.669 1239.86 187.885 1177.32 188.71 1171.44C188.942 1169.79 189.431 1164.17 189.797 1158.94C192.528 1119.99 204.215 1068.78 217.302 1038.44C222.091 1027.34 243.376 986.663 245.297 984.943C245.604 984.668 247.629 981.518 249.797 977.943C251.964 974.368 254.323 970.848 255.037 970.122C255.752 969.395 256.344 968.495 256.353 968.122C256.361 967.748 258.154 965.418 260.337 962.943C262.52 960.468 264.313 958.105 264.321 957.693C264.33 957.281 264.845 956.943 265.465 956.943C266.209 956.943 266.388 958.225 265.99 960.71ZM561.837 969.849C570.58 981.02 588.879 1014.37 600.021 1039.44C606.652 1054.36 615.099 1082.79 619.333 1104.44C620.517 1110.49 622.098 1118.37 622.848 1121.94C627.903 1146.04 629.171 1167 629.109 1225.44C629.046 1285.25 626.979 1339.42 623.254 1378.94C620.738 1405.64 620.297 1407.03 613.811 1408.82C609.574 1409.99 606.307 1409.29 602.745 1406.45L599.837 1404.13V1391.29C599.837 1384.22 600.402 1368.54 601.093 1356.44C607.432 1245.42 607.661 1176.71 601.82 1138.44C596.283 1102.16 591.86 1082.6 583.918 1059.29C578.315 1042.84 577.331 1040.5 568.661 1022.96C560.881 1007.22 556.117 999.497 554.926 1000.69C554.51 1001.1 554.287 1000.99 554.43 1000.44C554.573 999.893 554.198 997.643 553.597 995.443C552.996 993.243 552.321 983.849 552.096 974.568L551.689 957.692L554.763 961.215C556.454 963.152 559.637 967.038 561.837 969.849Z" fill="currentColor"/>
</svg>
