<svg width="524" height="411" viewBox="0 0 524 411" fill="none" xmlns="http://www.w3.org/2000/svg">

<path fill-rule="evenodd" clip-rule="evenodd" d="M237.25 0.109037L215 0.378019V13.7C215 38.103 211.344 43.45 191.229 48.466C180.903 51.041 167.064 57.952 158.572 64.774C154.761 67.835 151.045 70.34 150.315 70.34C149.585 70.34 144.377 69.631 138.743 68.764C103.676 63.367 62.072 77.111 37.919 102.072C34.85 105.245 29.9 110.378 26.919 113.48C20.971 119.671 18.018 120.917 6.75 121.986L0 122.627V163.484V204.34L3.25 204.311C14.291 204.211 39.071 201.121 50 198.48C64.457 194.986 70.734 192.911 84.323 187.134C95.512 182.378 95.153 182.247 96.958 191.735C101.152 213.773 110.61 241.052 120.744 260.34C128.332 274.783 129.888 277.302 139.583 290.84C148.101 302.734 148.871 304.184 152.852 315.84C159.138 334.244 160.408 343.27 160.448 369.84C160.472 385.305 160.014 396.626 159.161 401.675C158.433 405.985 158.027 409.7 158.259 409.932C158.817 410.49 381.16 410.513 381.717 409.956C381.955 409.719 381.44 403.727 380.574 396.642C378.753 381.734 378.535 359.787 380.08 346.84C382.471 326.801 389.003 307.108 396.996 295.84C404.644 285.056 417.992 263.571 421.535 256.34C427.665 243.827 435.911 220.692 439.938 204.707C442.172 195.839 444.007 187.966 444.015 187.212C444.06 183.196 445.564 183.151 454.6 186.893C475.583 195.581 493.976 200.637 511.994 202.668C518.096 203.356 523.293 203.713 523.544 203.463C523.795 203.212 524 184.638 524 162.187V121.367L520.703 119.989C518.89 119.232 515.403 116.237 512.953 113.333C502.028 100.383 486.052 87.434 472.66 80.676C462.867 75.734 447.159 70.761 435.057 68.772C423.721 66.908 408.751 67.174 395.384 69.476L388.268 70.701L382.721 65.811C374.421 58.493 366.18 53.937 354.762 50.353C338.316 45.19 336.668 44.515 332.868 41.383C326.833 36.408 325.809 32.967 325.229 15.694L324.715 0.392026L292.107 0.116025C274.173 -0.0359746 249.488 -0.0389632 237.25 0.109037Z" fill="currentColor"/>
</svg>
