<svg width="1121" height="1248" viewBox="0 0 1121 1248" fill="none" xmlns="http://www.w3.org/2000/svg">
<path fill-rule="evenodd" clip-rule="evenodd" d="M185.172 2.435C178.802 6.764 177.776 12.574 180.656 28C181.529 32.675 182.484 38.525 182.779 41C183.073 43.475 183.535 47.3 183.805 49.5C187.956 83.329 186.821 112.697 179.805 153C174.391 184.1 160.13 229.633 145.902 261.251C144.603 264.138 141.73 270.775 139.518 276C137.306 281.225 131.892 292.925 127.487 302C114.129 329.523 106.201 348.113 106.842 350.414C107.293 352.031 107.197 352.171 106.415 351.034C105.593 349.839 105.21 350.085 104.342 352.368C103.757 353.908 103.575 355.65 103.939 356.238C104.303 356.827 104.177 357.047 103.658 356.726C103.139 356.405 101.763 358.248 100.599 360.822C99.4356 363.395 96.1556 370.627 93.3096 376.893C90.4646 383.158 86.1076 393.283 83.6276 399.393C81.1486 405.502 76.4826 416.8 73.2586 424.5C67.0266 439.389 55.8266 470.736 51.6656 484.936C42.0686 517.693 39.3806 527.527 32.3836 555.5C22.9886 593.056 13.0966 650.098 6.8046 703C5.6096 713.042 3.3226 742.48 1.8306 767C0.3756 790.919 0.0186133 804.482 0.000613274 836.5C-0.0183867 870.514 0.396596 884.45 2.2956 913.5C2.7996 921.2 3.48159 932 3.81159 937.5C4.14159 943 4.58758 949.075 4.80258 951C5.01758 952.925 5.46959 958.1 5.80759 962.5C6.14559 966.9 6.61159 972.075 6.84259 974C7.07459 975.925 7.95561 983.518 8.80161 990.874C14.4096 1039.64 26.8896 1112.64 38.3116 1163.5C39.4236 1168.45 40.5626 1173.85 40.8426 1175.5C41.1226 1177.15 42.4286 1182.32 43.7436 1187C45.0596 1191.68 47.5636 1201.57 49.3076 1209C53.3536 1226.21 56.0376 1235.05 58.3986 1238.94C61.1716 1243.5 65.9146 1245.99 71.8136 1246C78.2406 1246 83.3806 1242.12 85.6076 1235.59C86.4376 1233.15 86.9716 1231.01 86.7936 1230.83C86.6166 1230.65 86.2386 1228.37 85.9546 1225.77C85.6706 1223.17 85.1216 1220.53 84.7346 1219.91C84.3466 1219.28 82.0416 1211.06 79.6116 1201.63C77.1816 1192.21 75.0196 1183.82 74.8066 1183C74.2356 1180.79 66.7246 1147.63 64.9526 1139.5C64.1136 1135.65 62.7126 1128.68 61.8396 1124C60.9666 1119.32 60.0296 1114.38 59.7566 1113C55.8926 1093.53 48.1706 1049.27 46.9366 1039.5C46.6576 1037.3 46.1716 1033.92 45.8556 1032C44.2716 1022.36 36.6586 954.454 35.8226 942.5C34.7526 927.219 34.1016 919.486 33.6746 917C32.1636 908.185 31.1966 824.056 32.1916 788C32.8056 765.757 35.7686 728.797 38.8056 705.5C39.0206 703.85 39.4576 700.25 39.7766 697.5C40.4416 691.754 41.1776 686.796 42.0016 682.5C42.4896 679.958 42.9376 680.874 44.9356 688.5C54.0786 723.4 60.7756 741.788 74.7956 770.488C91.8756 805.455 120.064 842.38 146.292 864.146C149.317 866.656 155.167 871.526 159.292 874.968C166.657 881.113 184.677 893.354 197.292 900.78C203.43 904.394 225.297 915.03 230.892 917.123C233.862 918.235 236.287 919.449 236.28 919.822C236.273 920.195 235.096 922.525 233.664 925C225.127 939.751 208.603 980.664 200.142 1008C191.727 1035.18 179.354 1093.42 176.771 1118C176.453 1121.03 175.558 1128.45 174.781 1134.5C172.921 1149 172.559 1152.74 171.303 1170.5C170.719 1178.75 170.046 1187.97 169.808 1191C169.569 1194.03 169.308 1205.57 169.226 1216.67C169.063 1239.01 169.407 1240.51 175.637 1244.72C182.86 1249.61 190.54 1248.26 196.191 1241.13C199.003 1237.58 199.075 1237.19 199.246 1224.5C199.52 1204.17 201.024 1164.27 201.838 1155.75C204.1 1132.08 206.345 1112.66 207.82 1104C218.875 1039.11 231.289 999.775 258.907 942.135C265.127 929.154 265.389 928.787 268.051 929.355C275.759 930.999 293.909 934.002 302.43 935.042C311.71 936.175 353.849 935.91 360.792 934.674C362.442 934.381 367.617 933.609 372.292 932.96C382.389 931.558 398.437 927.935 407.953 924.909C430.247 917.82 464.44 901.1 477.792 890.759C490.835 880.658 499.5 873.645 501.898 871.25C502.586 870.563 503.477 870 503.877 870C505.098 870 503.492 936.298 501.794 956C498.218 997.499 488.07 1056.83 477.677 1097C475.187 1106.62 471.581 1120.57 469.663 1128C467.746 1135.43 464.122 1148.25 461.61 1156.5C459.098 1164.75 455.772 1175.81 454.219 1181.08C452.666 1186.35 450.428 1193.1 449.246 1196.08C443.604 1210.3 439.292 1224.7 439.292 1229.32C439.292 1235.39 442.07 1240.64 446.994 1243.86C450.003 1245.83 451.524 1246.14 456.149 1245.76C461.175 1245.34 462.053 1244.9 465.486 1241.03C468.61 1237.51 470.087 1234.19 473.888 1222.13C476.425 1214.08 480.087 1202.78 482.027 1197C483.967 1191.22 485.91 1184.92 486.344 1183C486.778 1181.08 487.875 1177.03 488.782 1174C489.69 1170.97 491.253 1165.58 492.256 1162C494.963 1152.36 501.136 1130.94 502.2 1127.5C505.007 1118.42 515.619 1072.55 518.277 1058C519.433 1051.68 520.793 1044.41 521.3 1041.86C521.807 1039.31 522.937 1032.34 523.811 1026.36C524.685 1020.39 525.577 1014.38 525.793 1013C526.775 1006.75 531.246 972.885 531.8 967.5C532.139 964.2 532.588 960.15 532.796 958.5C533.004 956.85 533.458 950.55 533.803 944.5C534.148 938.45 534.612 931.025 534.832 928C536.137 910.085 536.35 874.416 535.255 856.989L534.029 837.479L540.531 826.959C546.476 817.341 553.309 804.065 557.881 793.25C559.732 788.87 561.292 787.707 561.292 790.706C561.292 793.436 571.967 813.61 579.174 824.5L585.792 834.5V880.5C585.792 945.623 588.486 976.573 599.847 1042C604.984 1071.58 619.206 1133.75 623.296 1144.51C623.916 1146.14 625.974 1153.11 627.869 1159.99C629.764 1166.87 636.147 1187.11 642.053 1204.97C651.616 1233.88 653.186 1237.85 656.387 1241.22C659.758 1244.76 660.352 1245 665.915 1245C673.179 1245 676.508 1243.1 680.679 1236.6C683.914 1231.55 682.95 1227 672.281 1197C663.199 1171.46 662.382 1168.96 661.748 1164.69C661.406 1162.39 660.008 1157.35 658.642 1153.5C644.718 1114.25 623.775 1011.62 619.768 963C619.428 958.875 618.993 954.375 618.802 953C618.61 951.625 618.146 945.55 617.771 939.5C617.396 933.45 616.92 928.222 616.713 927.882C616.228 927.085 615.953 870.992 616.431 870.569C616.63 870.394 622.417 874.66 629.292 880.048C639.929 888.386 649.471 894.77 665.643 904.369C675.078 909.97 690.598 916.976 700.292 920.011C701.667 920.442 708.642 922.67 715.792 924.963C737.765 932.01 756.132 934.924 783.385 935.685C805.137 936.293 819.341 935.329 838.292 931.959C844.067 930.931 850.221 929.845 851.967 929.544L855.142 928.998L861.861 942.249C869.415 957.148 878.29 977.624 884.943 995.5C890.112 1009.39 895.003 1023.28 894.981 1024C894.972 1024.28 895.666 1026.75 896.522 1029.5C903.026 1050.39 913.349 1101.61 915.769 1125C917.176 1138.6 918.279 1150.51 918.87 1158.5C919.237 1163.45 919.664 1168.2 919.819 1169.05C920.144 1170.84 921.038 1193.28 921.847 1219.94C922.443 1239.56 922.934 1241.62 927.877 1245.3C929.206 1246.29 932.463 1247.35 935.114 1247.67C940.974 1248.36 945.012 1246.54 948.874 1241.48L951.56 1237.96L950.99 1201.73C950.676 1181.8 950.193 1164.15 949.916 1162.5C949.639 1160.85 948.913 1154.1 948.303 1147.5C947.693 1140.9 946.778 1133.03 946.269 1130C945.419 1124.95 942.623 1106.93 941.771 1101C937.635 1072.26 932.35 1048.09 923.683 1018.26C921.165 1009.59 918.66 1000.92 918.117 999C916.844 994.489 914.925 988.888 912.292 982C911.136 978.975 909.493 974.475 908.642 972C906.316 965.235 901.011 953.279 892.552 935.735C883.76 917.503 883.399 919.374 896.749 913.966C913.597 907.142 939.153 891.984 958.792 877.167C972.117 867.113 992.53 847.292 1005.82 831.5C1009.06 827.65 1012.97 823.15 1014.5 821.5C1016.03 819.85 1017.28 817.938 1017.29 817.25C1017.29 816.563 1017.71 816 1018.22 816C1018.74 816 1019.44 815.103 1019.79 814.006C1020.14 812.909 1020.96 811.435 1021.61 810.729C1026.74 805.166 1046.94 771.043 1050.2 762.43C1051.22 759.718 1054.17 752.775 1056.75 747C1059.33 741.225 1061.81 735.325 1062.26 733.889C1062.71 732.454 1063.61 730.277 1064.26 729.052C1064.92 727.827 1065.67 725.627 1065.93 724.162C1066.19 722.698 1066.99 719.7 1067.7 717.5C1068.41 715.3 1070.03 709.675 1071.3 705C1075.49 689.487 1078.59 679.487 1078.89 680.5C1079.13 681.334 1081.98 703.701 1083.73 718.5C1083.99 720.7 1084.91 731.5 1085.77 742.5C1086.64 753.5 1087.54 763.85 1087.77 765.5C1088.46 770.328 1089.79 823.768 1089.75 845C1089.69 875.856 1087.45 922.451 1084.8 948C1084.54 950.475 1083.39 961.95 1082.25 973.5C1081.1 985.05 1079.5 999.45 1078.68 1005.5C1077.87 1011.55 1076.53 1021.9 1075.7 1028.5C1074.14 1040.94 1066.07 1088.8 1061.71 1111.5C1056.88 1136.66 1051.08 1162.82 1043.54 1193.5C1034.95 1228.42 1034.27 1234.36 1038.19 1239.86C1044.02 1248.04 1056.55 1248.06 1062.36 1239.91C1064.94 1236.28 1075.32 1196.92 1082.77 1162.5C1084.2 1155.9 1086.48 1145.74 1087.85 1139.92C1090.91 1126.92 1090.64 1128.3 1095.82 1099.54C1096.71 1094.61 1097.6 1090.31 1097.81 1089.97C1098.02 1089.64 1098.46 1087.14 1098.8 1084.43C1099.14 1081.72 1100.09 1075.22 1100.91 1070C1102.25 1061.44 1110.26 1005.11 1111.72 994C1112.4 988.799 1115.75 952.324 1117.23 934C1117.78 927.125 1118.49 915.425 1118.79 908C1119.1 900.575 1119.55 891.35 1119.79 887.5C1122.33 846.054 1120.46 767.554 1115.82 721.25C1115.53 718.362 1115.05 713.412 1114.76 710.25C1114.18 704.067 1112.24 687.462 1111.8 685C1111.66 684.175 1110.99 679.45 1110.32 674.5C1108.12 658.291 1104.46 634.772 1101.84 620C1099.69 607.888 1091.86 568.868 1090.91 565.5C1090.76 564.95 1090.05 562.475 1089.35 560C1088.65 557.525 1086.28 547.85 1084.09 538.5C1079.37 518.343 1079.75 519.867 1078.97 518C1078.25 516.266 1073.81 501.058 1071.67 493C1068.62 481.517 1066 473.157 1062.28 463C1060.17 457.225 1056.09 445.975 1053.22 438C1047.65 422.522 1043.32 411.83 1035.79 395C1033.2 389.225 1029.59 380.853 1027.77 376.395C1025.95 371.937 1022.11 363.162 1019.24 356.895C1016.37 350.628 1013.35 343.925 1012.53 342C1011.7 340.075 1008.39 333.212 1005.17 326.75C1001.95 320.288 999.601 315 999.955 315C1000.31 315 999.6 314.134 998.379 313.076C997.159 312.017 996.19 310.892 996.226 310.576C996.439 308.712 996.201 307.938 995.542 308.345C995.13 308.6 994.731 307.839 994.656 306.654C994.581 305.469 991.736 298.425 988.334 291C984.931 283.575 981.117 275.25 979.857 272.5C977.722 267.84 967.863 243.18 961.265 226C959.681 221.875 957.711 216.25 956.887 213.5C948.074 184.095 944.292 170.6 944.292 168.556C944.292 167.739 943.654 165.142 942.874 162.785C942.094 160.428 941.235 156.925 940.965 155C940.695 153.075 939.73 146.775 938.821 141C935.974 122.913 934.538 102.172 934.841 83.5C935.001 73.6 935.347 64.15 935.609 62.5C935.872 60.85 936.41 56.125 936.805 52C937.201 47.875 937.635 43.825 937.771 43C942.437 14.565 942.664 12.264 941.186 8.38C939.002 2.643 934.44 0 926.721 0C916.502 0 912.98 4.123 909.908 19.681C909.059 23.981 908.142 29.3 907.871 31.5C907.6 33.7 906.626 41.35 905.705 48.5C903.928 62.307 903.328 105.018 904.695 120.5C905.68 131.657 909.158 155.519 910.199 158.256C910.675 159.507 911.363 162.773 911.729 165.515C912.391 170.474 916.372 187.143 920.085 200.5C923.799 213.86 941.38 264.015 945.642 273.41C952.464 288.445 953.556 291.07 953.158 291.467C952.611 292.014 931.2 287.803 920.792 285.101C903.658 280.653 878.612 277.538 852.792 276.643C842.707 276.294 818.567 277.955 803.792 280.016C792.789 281.55 762.29 288.623 754.333 291.486C750.735 292.781 745.317 294.74 742.292 295.841C726.666 301.529 694.62 317.427 681.792 325.855C672.446 331.996 652.29 347.275 644.894 353.827C634.626 362.922 615.938 382.443 608.349 392C590.515 414.46 580.519 431.72 562.6 471L560.547 475.5L557.397 468.5C549.249 450.396 535.672 424.52 534.454 424.775C533.726 424.928 533.443 424.565 533.818 423.957C534.189 423.357 532.78 420.083 530.686 416.683C526.498 409.882 526.575 409.992 522.514 405C520.947 403.075 517.478 398.575 514.804 395C490.728 362.815 454.192 332.43 415.001 311.998C389.43 298.667 355.403 286.506 333.816 282.983C326.138 281.73 322.98 281.178 316.792 280.008C299.681 276.774 257.328 275.978 237.593 278.52C221.78 280.557 203.147 284.245 183.96 289.135C175.253 291.354 167.873 292.914 167.561 292.602C166.938 291.98 172.473 278.112 178.401 265.439C180.475 261.005 182.823 255.605 183.618 253.439C194.341 224.231 200.905 202.801 199.717 200.878C199.277 200.167 199.41 199.955 200.046 200.348C200.725 200.768 202.204 196.403 204.144 188.252C211.747 156.298 214.702 140.266 215.709 125.5C216.009 121.1 216.559 113.225 216.933 108C218.661 83.821 216.803 51.608 212.12 24.554C208.613 4.29099 205.602 0 194.889 0C190.039 0 188.007 0.508998 185.172 2.435ZM313.02 309.352C319.745 310.619 326.383 311.605 327.77 311.544C329.157 311.484 330.292 311.786 330.292 312.217C330.292 312.648 331.252 313 332.426 313C333.6 313 336.38 313.545 338.605 314.212C341.774 315.161 342.738 315.161 343.055 314.212C343.277 313.545 343.919 313 344.482 313C345.045 313 345.267 313.622 344.976 314.381C344.584 315.402 347.886 316.852 357.619 319.934C371.957 324.474 375.745 325.955 390.765 332.893C422.203 347.414 438.116 357.877 464.522 381.387C469.773 386.063 474.417 389.576 474.841 389.194C475.266 388.812 475.274 389.087 474.859 389.805C474.374 390.645 475.838 392.959 478.972 396.305C505.706 424.847 529.465 469.629 537.17 506C540.705 522.686 542.924 540.868 543.396 557C543.5 560.575 543.715 563.747 543.874 564.049C544.5 565.244 545.636 635.371 545.403 658.5C545.315 667.3 545.245 682.15 545.248 691.5C545.254 713.385 544.625 721.484 541.638 737.978C534.305 778.466 519.022 809.291 491.39 839.327C484.744 846.551 467.22 861.052 457.464 867.4C426.257 887.706 402.144 896.926 365.292 902.645C350.88 904.881 310.156 905.184 297.792 903.147C257.886 896.574 228 885.838 197.792 867.226C174.962 853.159 149.408 830.504 133.292 810.042C131.367 807.598 128.618 804.226 127.184 802.549C115.496 788.883 95.7586 753.62 87.6966 732C86.3636 728.425 84.8286 724.6 84.2866 723.5C79.0436 712.863 68.6796 670.917 64.7676 644.5C64.4416 642.3 64.0036 639.825 63.7926 639C62.7086 634.743 61.8046 615.343 61.9056 598.5C62.0136 580.485 62.7396 573.662 66.7966 552.5C70.6256 532.531 88.6036 470.345 91.3556 467.55C91.8706 467.027 92.2916 465.782 92.2916 464.783C92.2916 462.654 97.9066 445.749 99.9406 441.754C100.71 440.243 102.695 435.293 104.351 430.754C106.007 426.214 108.647 419.8 110.218 416.5C111.789 413.2 114.09 408.025 115.331 405C116.573 401.975 119.049 396.291 120.835 392.368C122.62 388.446 124.389 383.833 124.766 382.118C125.143 380.403 125.865 379 126.371 379C126.878 379 127.292 378.564 127.292 378.031C127.292 377.498 130.744 369.96 134.964 361.281C141.478 347.882 143.519 344.632 148.489 339.75C151.709 336.587 155.006 334 155.817 334C156.628 334 157.292 333.624 157.292 333.163C157.292 330.89 190.53 317.645 206.792 313.439C208.442 313.012 210.017 312.595 210.292 312.512C218.102 310.152 219.705 309.893 241.792 307.428C260.192 305.374 297.201 306.374 313.02 309.352ZM885.098 308.52C920.016 312.855 954.652 324.704 970.792 337.839C975.26 341.474 977.589 344.353 979.914 349.111C988.175 366.02 994.379 379.178 997.304 386C999.074 390.125 1002.75 398.45 1005.47 404.5C1008.19 410.55 1011.49 417.975 1012.79 421C1016.86 430.436 1028.97 463.046 1032.1 473C1033.74 478.225 1036.96 488.35 1039.25 495.5C1044.8 512.802 1047.54 523.296 1052.24 545.196C1058.46 574.155 1059.27 581.562 1058.86 606C1058.4 633.725 1054.57 661.195 1047.69 686.188C1046.37 690.967 1045.29 695.601 1045.29 696.487C1045.29 699.147 1035.37 727.69 1030.22 739.85C1023.2 756.443 1006.7 786.169 1001.04 792.439C1000.08 793.505 999.292 794.733 999.292 795.167C999.292 797.172 978.356 821.633 968.157 831.545C956.246 843.12 935.001 860.128 924.792 866.261C913.846 872.837 898.385 880.999 889.531 884.876C872.342 892.404 847.543 899.283 825.321 902.688C813.733 904.464 784.781 905.001 769.525 903.724C750.529 902.134 723.524 896.289 712.641 891.412C710.908 890.635 709.052 890 708.518 890C707.332 890 700.86 887.202 688.315 881.265C677.937 876.353 666.088 869.123 656.833 862.052C653.555 859.549 649.987 856.825 648.905 856C634.593 845.096 615.983 824.826 606.423 809.729C591.239 785.752 582.515 761.759 577.795 731C577.499 729.075 576.971 726.15 576.621 724.5C575.749 720.386 575.607 596.547 576.451 575.5C577.671 545.092 578.423 536.54 581.425 519C586.409 489.872 595.099 464.637 607.079 444.5C617.666 426.705 623.534 418.05 631.78 408.064C636.701 402.104 652.357 385.231 655.419 382.587C657.274 380.985 661.042 377.61 663.792 375.087C666.542 372.564 670.142 369.499 671.792 368.275C673.442 367.052 677.141 364.239 680.013 362.025C682.884 359.811 685.49 358 685.805 358C686.119 358 686.92 357.538 687.584 356.974C688.248 356.409 691.042 354.513 693.792 352.761C696.542 351.008 699.017 349.317 699.292 349.004C700.001 348.196 712.782 340.859 719.141 337.61C732.419 330.826 756.896 321.315 770.792 317.54C774.092 316.643 779.176 315.255 782.091 314.455C785.005 313.655 788.268 313 789.341 313C790.414 313 791.292 312.523 791.292 311.941C791.292 311.359 791.681 311.122 792.156 311.416C792.63 311.709 796.343 311.255 800.406 310.406C821.236 306.055 858.547 305.224 885.098 308.52ZM338.292 312C338.292 312.55 337.815 313 337.233 313C336.651 313 336.452 312.55 336.792 312C337.132 311.45 337.608 311 337.851 311C338.094 311 338.292 311.45 338.292 312ZM975.792 339C976.132 339.55 975.933 340 975.351 340C974.769 340 974.292 339.55 974.292 339C974.292 338.45 974.49 338 974.733 338C974.976 338 975.452 338.45 975.792 339Z" fill="currentColor"/>
</svg>
