<svg width="2048" height="2048" viewBox="0 0 2048 2048" fill="currentColor" xmlns="http://www.w3.org/2000/svg">
<path fill-rule="evenodd" clip-rule="evenodd" d="M446.945 399.996L430.389 400.504L422.672 404.318C413.073 409.061 405.595 416.291 401.278 425C394.427 438.822 394.983 401.291 395.013 847.487C395.029 1094.93 395.404 1254.02 395.982 1258C398.625 1276.23 406.879 1299.93 415.319 1313.5C436.264 1347.19 468.2 1371.83 511 1387.31C547.863 1400.65 594.057 1407.02 643.453 1405.56C655.528 1405.2 670.093 1404.47 675.821 1403.92C703.253 1401.33 742.119 1393.44 766.5 1385.52C799.075 1374.95 829.267 1361.14 854 1345.5C898.975 1317.05 931.36 1287.12 963.87 1243.96C967.789 1238.76 971.38 1234.03 971.849 1233.45C975.225 1229.3 985.608 1213.09 995.188 1197C999.771 1189.3 1014.19 1160.26 1016.54 1154C1017.26 1152.08 1019.46 1146.69 1021.42 1142.04C1023.39 1137.38 1025 1133.22 1025 1132.78C1025 1132.34 1025.87 1130.07 1026.94 1127.74C1031.31 1118.16 1043 1080.08 1043 1075.41C1043 1073.44 1041.27 1071.22 1030.79 1059.77C1026.23 1054.79 1021.68 1049.77 1020.68 1048.61C1019.67 1047.45 1016.05 1043.58 1012.62 1040C1006.84 1033.97 990.254 1015.28 978.5 1001.55C962.861 983.287 938.989 952.539 924.196 931.607C884.962 876.093 863.506 841.816 841.501 799.5C837.211 791.25 833.37 784.05 832.967 783.5C831.184 781.073 817.757 750.284 817.635 748.346C817.561 747.161 817.199 746.378 816.831 746.605C816.462 746.832 815.642 745.446 815.008 743.523C814.373 741.601 813.496 739.806 813.058 739.536C812.62 739.265 807.732 740.57 802.196 742.434C775.45 751.441 748.558 756.217 700.5 760.494C687.203 761.678 640.45 766.96 625.131 769.009C581.158 774.892 540.099 786.321 511.65 800.597C500.62 806.132 496.587 808.62 485 817.035C474.885 824.381 470.463 826.299 464.881 825.763C458.602 825.159 455.248 822.815 452.825 817.338C448.823 808.29 453.685 798.865 467.356 789.175C479.355 780.669 491.973 773.676 506.554 767.45C551.029 748.461 590.353 739.287 654.075 733.036C733.863 725.209 755.905 722.285 779 716.463C801.943 710.678 816.509 704.45 848 686.96C878.012 670.292 910.396 654.611 929.451 647.521C953.074 638.731 987.814 629.394 1004.02 627.479L1009.54 626.827L1017.91 635.962C1031.5 650.796 1034.17 652.541 1064 666.015C1076.93 671.854 1104.07 685.823 1116.97 693.271C1144.84 709.368 1179.5 736.477 1206.08 762.97C1237.15 793.947 1258.95 822.923 1283.19 865.5C1303.51 901.187 1322.91 951.473 1333.92 997C1335.58 1003.88 1337.42 1011.47 1338 1013.88C1343.99 1038.59 1347.48 1060.49 1351.97 1101.5C1355.24 1131.29 1356.51 1183.55 1354.78 1216.02C1353.98 1230.98 1351.12 1265.9 1350.57 1267.55C1349.97 1269.33 1352.18 1272.43 1360.62 1281.64C1378.28 1300.93 1388.82 1315.07 1401 1335.83C1404.58 1341.93 1407.73 1346.93 1408.02 1346.96C1408.75 1347.02 1421.29 1320.88 1424.52 1312.56C1435.59 1284.03 1445.31 1252 1455.6 1210.12C1458.09 1200.02 1460.77 1190.75 1461.57 1189.53C1463.33 1186.84 1467.11 1185 1470.88 1185C1477.15 1185 1488 1195.25 1488 1201.17C1488 1204.59 1482.34 1230.54 1477.02 1251.5C1472.35 1269.93 1457.8 1313.81 1451.88 1327.31C1447.27 1337.84 1437.89 1355.83 1430.93 1367.5C1422.99 1380.81 1423.14 1378.87 1428.8 1394.09C1443.04 1432.44 1451.79 1466.77 1456.43 1502.5C1461.5 1541.58 1461.55 1599.32 1456.54 1633C1455.84 1637.68 1455.36 1641.62 1455.48 1641.76C1455.59 1641.9 1492.1 1642.03 1536.59 1642.03L1617.5 1642.04L1622.45 1645.27C1626.75 1648.07 1628.26 1648.5 1633.95 1648.5C1642.36 1648.5 1646.2 1645.98 1649.82 1638.09L1652.39 1632.5L1652.63 1591.5C1652.77 1568.95 1652.48 1546.45 1652 1541.5C1651.52 1536.55 1650.89 1529.58 1650.59 1526C1648.4 1499.63 1641.47 1450.82 1637.03 1430.5C1634.42 1418.57 1628.35 1394.03 1626.56 1388.17C1616.42 1355.08 1608.23 1331.6 1600 1312C1598.27 1307.88 1595.25 1300.68 1593.29 1296C1587.57 1282.32 1575.09 1258.07 1562.69 1236.5C1555.87 1224.64 1542.5 1203.76 1522.83 1174.21C1509.38 1154 1504 1145.1 1504 1143.06C1504 1141.49 1504.86 1135.09 1505.91 1128.85C1509.05 1110.11 1510.61 1087.6 1510.86 1057C1511.17 1021.1 1505.9 978.754 1496.55 942C1483.33 890.014 1457.97 835.981 1426.68 793.143C1385.37 736.589 1338.08 696.871 1274 664.918C1226.97 641.467 1185.37 628.968 1132.5 622.408C1124.2 621.379 1108.14 620.625 1088.1 620.327L1056.71 619.859L1044.1 608.637C1032.8 598.57 1015.27 583.601 999.992 570.956C981.113 555.335 943.915 528.952 922.5 515.997C891.3 497.121 878.056 489.961 831 466.53C812.575 457.355 794.35 448.243 790.5 446.281C775.978 438.88 736.942 417.27 729.287 412.393C726.42 410.566 723.829 409.468 723.529 409.953C723.23 410.437 723.101 448.334 723.242 494.167C723.528 586.611 723.942 580.505 716.99 586.355C708.884 593.175 697.939 591.548 690.789 582.459L688.5 579.55L687.5 399.897L575.5 399.692C513.9 399.58 456.05 399.716 446.945 399.996ZM961.477 671.988C948.9 673.837 926.314 682.246 905.211 692.937C891.901 699.68 876.838 707.792 848.264 723.603C845.385 725.196 843.022 727.023 843.014 727.661C842.96 732.019 870.943 788.446 888.31 819C917.008 869.489 954.322 922.55 1001.88 980.5C1008.2 988.2 1015.25 996.525 1017.55 999C1019.85 1001.48 1024.58 1006.88 1028.07 1011C1037.91 1022.65 1044.46 1029.5 1072.98 1058.05C1110.26 1095.37 1132.73 1114.7 1169.5 1141.05C1174.45 1144.6 1179.37 1148.29 1180.44 1149.25C1181.5 1150.21 1182.8 1151 1183.32 1151C1183.83 1151 1187.24 1153.17 1190.88 1155.83C1194.52 1158.49 1202.36 1163.78 1208.31 1167.58C1214.25 1171.39 1223.92 1177.65 1229.81 1181.51C1238.84 1187.44 1256.67 1198.78 1272.99 1209C1292.05 1220.93 1298.5 1225.25 1307.8 1232.3C1313.68 1236.77 1319.37 1241.23 1320.44 1242.21C1323.25 1244.81 1323.86 1244.45 1323.83 1240.25C1323.82 1238.19 1324.05 1215.12 1324.34 1189C1324.96 1134.9 1323.94 1115.69 1318.49 1078C1317.74 1072.78 1316.85 1066.47 1316.52 1064C1314.21 1046.8 1303.55 1001.44 1295.84 976C1271.75 896.581 1223 818.15 1167 768.741C1121.61 728.696 1064.47 696.508 1007.59 678.957C984.712 671.896 973.564 670.211 961.477 671.988ZM1074.67 1122.25C1071.34 1155.92 1070.64 1169.91 1070.57 1204.5C1070.51 1234.39 1071.35 1262.8 1072.51 1270.42C1072.69 1271.57 1073.34 1277.22 1073.97 1283C1074.59 1288.78 1075.75 1297.32 1076.53 1302C1077.32 1306.68 1078.92 1316.57 1080.08 1324C1083.18 1343.86 1090.65 382.16 1093.44 1392.5C1098.42 1410.99 1099.3 1413.93 1105.51 1432.51C1118.34 1470.94 1126.21 1490.26 1141.14 1520C1154.11 1545.86 1163.95 1563.26 1169.69 1570.52C1170.51 1571.56 1175.59 1579.27 1184.48 1593C1187.15 1597.13 1192.63 1604.9 1196.66 1610.27C1200.69 1615.65 1204.93 1621.9 1206.09 1624.17C1208.17 1628.24 1208.83 1635.8 1207.49 1640.03C1206.8 1642.19 1201.95 1642.1 1317.5 1642.04C1335.1 1642.03 1365.99 1642.01 1386.14 1642.01L1422.78 1642L1423.33 1639.75C1424.4 1635.36 1426.89 1616.36 1427.69 1606.5C1429.56 1583.44 1428.45 1534.66 1425.51 1510.5C1424.01 1498.22 1418.97 1470.59 1415.46 1455.43C1407.43 1420.78 1390.98 1378.99 1375.76 1354.58C1357.04 1324.55 1344.17 1307.95 1324.39 1288.31C1303.75 1267.81 1296.55 1262.33 1247 1229.35C1236.27 1222.21 1226.04 1215.5 1224.26 1214.44C1196.98 1198.15 1165.76 1177.03 1140.5 1157.8C1110.08 1134.63 1104.53 1130.1 1088.39 1115.25C1082.26 1109.61 1077.05 1105 1076.81 1105C1076.57 1105 1075.61 1112.76 1074.67 1122.25ZM1027.44 1212.25C1019.8 1225.81 994.859 1263.3 986.358 1274C968.79 1296.11 944.993 1321.13 927.67 1335.72C922.626 1339.97 918.275 1343.69 918 1344C913.246 1349.33 876.312 1374.81 858.5 1385.05C839.021 1396.24 807.07 1410.64 785 1418.18C753.19 1429.03 704.276 1438.53 668 1440.89C649.356 1442.11 618.575 1442.16 600.5 1441.01C560.626 1438.48 520.948 1429.77 490 1416.75C459.978 1404.12 435.562 1388.51 413.173 1367.63C407.493 1362.33 402.66 1358 402.434 1358C402.207 1358 402.129 1415.49 402.261 1485.75L402.5 1613.5L404.735 1619.02C407.214 1625.14 413.95 1632.61 420.399 1636.39C430.678 1642.41 412.046 1642 684.276 1642.26L932.972 1642.5L932.836 1635.36C932.657 1625.97 933.937 1623.74 949.378 1606.59C953.295 1602.23 956.954 1598.18 957.509 1597.59C961.455 1593.33 973.521 1578.05 983.233 1565C1013.27 1524.64 1037.23 1484.77 1051.21 1451.87C1065.45 1418.35 1065.01 1420.25 1061.52 1407.5C1055.74 1386.44 1052.92 1375.07 1050.48 1363C1049.1 1356.12 1047.73 1349.38 1047.45 1348C1044.94 1335.8 1038.54 1286.23 1037.52 1271C1037.2 1266.32 1036.73 1260.47 1036.46 1258C1035.82 1252.05 1035.02 1227.34 1035.01 1213.25C1035 1207.06 1034.6 1202 1034.11 1202C1033.61 1202 1030.61 1206.61 1027.44 1212.25Z" fill="currentColor"/>
</svg>