<svg width="988" height="1547" viewBox="0 0 988 1547" fill="none" xmlns="http://www.w3.org/2000/svg">
<path fill-rule="evenodd" clip-rule="evenodd" d="M127.374 0.586999C123.667 1.346 120.07 4.325 116.841 9.311C115.951 10.686 111.815 20.811 107.651 31.811C103.487 42.811 99.4526 53.161 98.6876 54.811C96.3996 59.743 92.3845 70.502 91.0355 75.311C90.3415 77.786 89.1595 80.823 88.4085 82.061C87.6575 83.299 87.3336 84.311 87.6886 84.311C88.0436 84.311 87.8866 84.874 87.3396 85.561C86.7926 86.249 85.3526 90.411 84.1406 94.811C82.9276 99.211 81.2955 104.161 80.5125 105.811C79.7295 107.461 78.2476 111.961 77.2186 115.811C76.1896 119.661 74.3715 126.186 73.1785 130.311C71.9845 134.436 70.7626 139.161 70.4616 140.811C70.1616 142.461 69.1095 146.286 68.1245 149.311C67.1405 152.336 66.0516 157.386 65.7066 160.533C65.3616 163.68 64.4316 168.739 63.6406 171.775C62.8506 174.811 61.2496 183.036 60.0846 190.053C58.9196 197.07 57.8106 203.711 57.6196 204.811C57.4296 205.911 56.7866 208.067 56.1906 209.603C55.5946 211.138 54.8795 214.738 54.6005 217.603C54.3215 220.467 53.6416 226.186 53.0896 230.311C52.5376 234.436 51.8805 239.386 51.6295 241.311C51.3785 243.236 50.9025 249.986 50.5725 256.311C49.2225 282.184 46.9926 307.108 45.6066 311.811C43.8446 317.79 40.7365 328.609 40.5795 329.311C40.5185 329.586 39.7265 331.51 38.8195 333.586C37.9125 335.662 36.8776 338.924 36.5186 340.836C36.1606 342.747 35.5625 344.311 35.1915 344.311C34.8195 344.311 34.4445 345.248 34.3585 346.393C34.1315 349.405 28.9616 362.679 27.6776 363.546C27.0796 363.95 26.9155 364.287 27.3145 364.296C27.7135 364.304 27.5626 365.548 26.9796 367.061C25.7896 370.145 18.0685 394.981 17.5745 397.311C17.3995 398.136 16.7435 400.836 16.1165 403.311C14.7175 408.835 9.53155 433.112 7.57155 443.311C6.25155 450.182 4.95658 458.594 3.41658 470.311C3.09058 472.786 2.72754 475.486 2.60854 476.311C2.05254 480.18 0.911543 488.154 0.462543 491.311C-0.409457 497.44 0.0375659 552.236 1.08657 567.811C3.87757 609.247 14.6365 658.015 30.7285 702.163C42.7275 735.082 51.5496 754.387 64.3856 775.811C77.3316 797.419 80.3776 803.293 85.3906 816.311C90.5076 829.6 93.3376 840.511 95.5056 855.311C97.3226 867.718 97.7056 875.505 96.5886 877.313C96.0546 878.177 96.1715 878.378 96.9345 877.906C97.7575 877.398 98.1176 879.006 98.1856 883.502C98.2386 886.972 98.4446 892.286 98.6436 895.311C99.2296 904.2 99.1255 936.546 98.5015 939.811C98.1855 941.461 97.7935 945.061 97.6295 947.811C97.3185 953.025 96.7196 957.505 94.9096 968.141C94.0776 973.033 93.3676 974.642 91.7846 975.228L89.7365 975.986L91.8195 976.53C93.8535 977.062 93.8696 977.248 92.5216 984.443C90.5006 995.234 87.3006 1008.51 84.1196 1019.31C76.6666 1044.61 72.1325 1061.64 70.1445 1071.81C69.4995 1075.11 68.7045 1078.49 68.3795 1079.31C68.0535 1080.14 67.6866 1081.26 67.5626 1081.81C61.6786 1107.97 59.8106 1137.08 60.9486 1184.86C61.4596 1206.32 66.0686 1232.35 75.9016 1269.31C77.5846 1275.64 79.1025 1282.61 79.2755 1284.81C79.4485 1287.01 79.9385 1289.07 80.3665 1289.39C80.7935 1289.7 81.2435 1291.35 81.3665 1293.05C81.4885 1294.75 81.7866 1295.94 82.0266 1295.71C82.5256 1295.21 92.3665 1324.01 94.5355 1332.31C95.3255 1335.34 97.8366 1342.99 100.116 1349.31C105.258 1363.58 111.083 1382.26 111.087 1384.48C111.089 1385.39 111.489 1386.29 111.976 1386.48C113.01 1386.87 128.882 1439.07 129.733 1444.88C130.049 1447.04 131.582 1453.31 133.138 1458.81C135.663 1467.74 138.045 1479.18 139.485 1489.31C139.759 1491.24 140.672 1496.41 141.514 1500.81C142.356 1505.21 143.257 1509.94 143.517 1511.31C143.971 1513.71 144.256 1515.82 145.617 1526.81C146.57 1534.51 148.086 1538.59 150.961 1541.19C155.797 1545.56 159.406 1546.42 172.426 1546.31C179.116 1546.25 185.04 1546.25 185.59 1546.31C189.75 1546.74 214.736 1546.07 215.294 1545.51C215.681 1545.12 214.474 1531.08 212.612 1514.31C210.147 1492.12 208.13 1478.91 205.208 1465.81C202.999 1455.91 200.98 1445.88 200.721 1443.51C200.462 1441.14 199.838 1438.67 199.334 1438.01C198.83 1437.35 197.704 1434.34 196.831 1431.31C187.508 1399 182.821 1384.5 178.568 1374.81C174.258 1364.99 164.155 1343.51 160.223 1335.81C154.859 1325.3 153.915 1322.67 155.471 1322.57C176.739 1321.16 181.25 1320.24 189.211 1315.74C202.03 1308.5 210.875 1300.82 216.78 1291.81C218.223 1289.61 220.15 1286.69 221.064 1285.31C222.868 1282.6 224.229 1279.62 224.675 1277.41C224.83 1276.64 225.346 1275.74 225.822 1275.41C226.298 1275.08 227.24 1272.92 227.916 1270.6C228.592 1268.29 229.53 1266.16 230.001 1265.87C230.647 1265.47 234.98 1274.99 235.66 1278.31C237.08 1285.24 253.682 1312.71 260.262 1319.03C264.784 1323.37 278.656 1330.72 289.069 1334.3C296.839 1336.97 297.614 1337.48 297.867 1340.02C298.019 1341.55 297.429 1345.29 296.555 1348.31C295.681 1351.34 294.195 1356.82 293.251 1360.5C292.308 1364.19 291.211 1367.52 290.813 1367.92C290.416 1368.32 290.09 1369.87 290.09 1371.37C290.09 1372.87 289.176 1378.53 288.059 1383.95C286.942 1389.37 285.157 1398.54 284.093 1404.31C283.028 1410.09 281.962 1415.72 281.724 1416.84C279.89 1425.42 274.597 1483.91 273.582 1506.81C272.321 1535.27 272.178 1542.88 272.883 1544C274.463 1546.51 311.522 1547.62 317.063 1545.32C322.741 1542.97 325.25 1534.53 326.584 1513.31C326.912 1508.09 327.372 1502.01 327.605 1499.81C328.467 1491.7 330.322 1472.69 330.631 1468.81C331.583 1456.86 332.295 1450.3 333.125 1445.81C334.566 1438.02 335.119 1434.47 336.129 1426.51C336.644 1422.44 337.568 1417.25 338.183 1414.97C338.797 1412.69 339.442 1410.14 339.615 1409.32C339.789 1408.49 340.579 1405.34 341.371 1402.31C342.163 1399.29 343.376 1393.66 344.067 1389.81C346.213 1377.84 356.899 1344.52 362.027 1333.81C369.884 1317.4 380.104 1283.05 387.618 1247.81C391.941 1227.54 394.525 1168.97 391.595 1157.68C390.863 1154.86 389.742 1148.11 389.105 1142.68C388.467 1137.25 386.083 1123.81 383.808 1112.81C381.533 1101.81 379.653 1091.39 379.631 1089.64C379.608 1087.9 379.392 1086.68 379.15 1086.92C378.45 1087.62 373.385 1070.31 369.482 1053.88C361.087 1018.55 360.98 1002.47 368.984 979.311C378.05 953.083 381.366 943.744 385.102 933.921C392.133 915.435 400.997 885.01 402.614 873.811C402.932 871.611 404.267 864.636 405.58 858.311C411.072 831.858 414.805 805.127 416.613 779.311C417.161 771.486 418.446 757.319 419.607 746.311C419.868 743.836 420.531 737.086 421.081 731.311C423.157 709.504 426.515 685.042 428.289 678.811C428.915 676.611 429.556 674.361 429.713 673.811C429.87 673.261 430.652 669.886 431.45 666.311C432.248 662.736 434.541 654.411 436.545 647.811C438.549 641.211 442.367 627.486 445.029 617.311C447.691 607.136 452.366 589.361 455.418 577.811C462.281 551.833 465.562 537.607 467.525 525.311C468.359 520.086 469.943 510.186 471.045 503.311C473.74 486.5 478.052 455.223 478.697 447.811C478.984 444.511 479.47 440.461 479.776 438.811C480.082 437.161 480.45 413.856 480.593 387.022L480.854 338.232L483.22 333.772C484.522 331.318 485.925 329.311 486.338 329.311C486.752 329.311 487.09 328.668 487.09 327.882C487.09 327.097 487.653 325.859 488.34 325.132C489.028 324.406 490.412 322.036 491.416 319.867L493.242 315.924L494.981 318.867C495.938 320.486 498.809 325.319 501.362 329.607L506.003 337.402L506.077 350.107C506.118 357.094 506.137 373.836 506.12 387.311C506.103 400.786 506.304 414.511 506.566 417.811C506.829 421.111 507.284 428.564 507.578 434.374C508.027 443.262 509.579 460.245 511.549 477.811C511.796 480.011 512.887 487.436 513.974 494.311C515.062 501.186 516.213 508.551 516.534 510.678C516.854 512.804 517.343 514.914 517.622 515.365C517.901 515.816 519.032 521.276 520.133 527.498C524.21 550.527 528.902 570.961 536.277 597.811C537.938 603.861 539.732 610.611 540.262 612.811C540.793 615.011 541.719 617.71 542.322 618.809C542.924 619.909 544.219 623.734 545.198 627.309C546.178 630.885 549.263 642.136 552.055 652.311C554.848 662.486 557.791 674.186 558.595 678.311C560.618 688.698 564.849 724.845 566.086 742.311C567.146 757.276 567.246 758.357 569.049 774.311C577.035 844.972 581.619 870.07 594.164 911.811C599.684 930.179 612.311 965.374 617.662 977.311C626.184 996.321 626.17 1020.11 617.619 1052.31C613.01 1069.67 604.173 1106.7 601.506 1119.85C598.11 1136.58 597.404 1141.28 596.098 1155.81C595.505 1162.41 594.822 1169.51 594.581 1171.59C593.652 1179.57 594.007 1215.49 595.093 1223.45C598.811 1250.71 604.15 1276.14 607.882 1284.38C610.174 1289.43 625.09 1332.76 625.09 1334.37C625.09 1334.95 625.992 1337.4 627.093 1339.82C630.439 1347.16 637.094 1368.39 637.435 1372.81C637.52 1373.91 637.957 1375.08 638.406 1375.41C638.856 1375.74 639.384 1376.87 639.58 1377.91C639.776 1378.96 640.023 1379.81 640.128 1379.81C640.232 1379.81 640.47 1381.12 640.657 1382.72C640.843 1384.32 641.471 1385.93 642.053 1386.29C643.754 1387.34 648.026 1407.95 648.735 1418.53C649.093 1423.87 649.769 1428.01 650.237 1427.72C650.706 1427.43 651.09 1427.63 651.09 1428.17C651.09 1428.71 650.614 1429.3 650.033 1429.5C649.451 1429.69 649.273 1430.62 649.638 1431.57C650.002 1432.52 650.674 1433.07 651.133 1432.78C651.592 1432.5 651.982 1433.07 651.997 1434.04C652.012 1435.01 652.896 1440.31 653.961 1445.81C655.027 1451.31 656.404 1463.46 657.021 1472.81C657.638 1482.16 658.575 1494.99 659.104 1501.31C659.632 1507.64 660.357 1516.86 660.714 1521.81C661.071 1526.76 661.454 1531.26 661.565 1531.81C662.92 1538.5 663.712 1540.14 666.878 1542.81C670.378 1545.77 670.64 1545.82 684.511 1546.31C692.254 1546.59 702.077 1546.59 706.339 1546.31L714.089 1545.81L713.653 1524.81C713.413 1513.26 712.975 1500.89 712.68 1497.31C712.385 1493.74 711.885 1485.19 711.568 1478.31C711.251 1471.44 710.524 1460.41 709.952 1453.81C709.38 1447.21 708.891 1441.14 708.865 1440.31C708.839 1439.49 708.438 1438.33 707.975 1437.73C707.511 1437.14 706.687 1433.54 706.143 1429.73C700.977 1393.56 698.827 1382.34 690.95 1350.43C687.555 1336.68 687.487 1336.94 694.692 1335.95C699.627 1335.28 708.89 1330.87 717.143 1325.27C731.393 1315.6 744.185 1296.76 752.617 1273.01C754.12 1268.78 755.652 1265.31 756.022 1265.31C756.392 1265.31 757.52 1267.67 758.528 1270.56C767.4 1295.96 788.649 1315.82 811.794 1320.34C815.207 1321.01 821.619 1321.35 826.044 1321.1C830.469 1320.86 834.09 1320.78 834.09 1320.93C834.09 1321.08 830.524 1328.32 826.166 1337.01C815.217 1358.84 808.09 1374.06 808.09 1375.61C808.09 1376.33 807.7 1377.34 807.223 1377.86C806.746 1378.38 805.661 1380.84 804.812 1383.31C803.963 1385.79 801.615 1392.54 799.594 1398.31C790.562 1424.12 783.855 1452.23 777.164 1492.34C773.648 1513.41 771.127 1537.06 771.819 1542.47L772.287 1546.12L778.438 1546.17C832.01 1546.55 828.938 1546.68 833.08 1543.94C837.764 1540.84 839.318 1536.5 841.558 1520.31C843.756 1504.42 845.866 1493.2 847.56 1488.4C848.348 1486.16 849.725 1479.94 850.62 1474.57C852.718 1461.98 856.672 1444.58 859.06 1437.43C860.092 1434.34 862.576 1425.74 864.579 1418.31C866.581 1410.89 868.603 1403.69 869.072 1402.31C869.541 1400.94 871.341 1395.09 873.073 1389.31C876.27 1378.65 885.731 1349.33 889.211 1339.31C912.713 1271.63 918.054 1250.91 923.621 1205.81C924.435 1199.21 925.578 1189.95 926.159 1185.24C927.384 1175.32 927.182 1142.73 925.82 1130.31C925.307 1125.64 923.737 1113.71 922.33 1103.81C920.923 1093.91 919.73 1084.17 919.68 1082.16C919.63 1080.15 919.309 1078.68 918.966 1078.89C918.623 1079.1 917.807 1076.47 917.152 1073.04C915.138 1062.5 909.07 1039.16 906.562 1032.31C904.63 1027.03 900.85 1013.59 898.614 1004.06C898.388 1003.09 897.997 1001.97 897.746 1001.56C897.494 1001.15 897.03 999.236 896.716 997.311C896.402 995.386 895.495 991.336 894.7 988.311C891.902 977.673 889.175 960.668 888.058 946.884C886.631 929.285 887.466 886.887 889.685 864.311C890.868 852.273 896.652 826.898 898.881 823.966C899.364 823.331 900.792 819.436 902.055 815.311C904.39 807.683 907.536 800.752 911.563 794.361C927.554 768.983 953.919 711.738 963.169 682.311C964.812 677.086 966.795 670.786 967.576 668.311C974.686 645.763 980.025 617.508 983.542 583.811C984.403 575.561 985.296 567.833 985.527 566.638C986.995 559.021 987.729 522.428 986.727 506.811C984.317 469.269 983.391 461.474 978.469 437.311C978.189 435.936 977.137 430.761 976.13 425.811C973.221 411.506 965.597 384.113 959.987 367.811C957.148 359.561 954.81 352.249 954.791 351.561C954.772 350.874 954.382 350.311 953.923 350.311C953.465 350.311 953.09 349.63 953.09 348.797C953.09 347.965 952.633 346.502 952.075 345.547C949.9 341.826 943.934 321.487 941.49 309.457C939.528 299.802 938.792 292.554 938.383 278.811C938.089 268.911 937.512 260.361 937.1 259.811C936.688 259.261 936.053 254.761 935.69 249.811C934.947 239.682 933.557 227.737 932.081 218.811C930.701 210.461 930.373 208.378 928.555 196.376C927.674 190.565 926.278 182.436 925.452 178.311C924.626 174.186 923.793 169.686 923.602 168.311C922.751 162.211 921.917 158.807 921.002 157.705C920.46 157.052 918.061 148.933 915.671 139.664C910.348 119.018 904.409 98.006 902.57 93.311C901.816 91.386 898.062 81.036 894.227 70.311C890.392 59.586 885.135 45.186 882.544 38.311C879.954 31.436 876.752 22.886 875.43 19.311C874.107 15.736 872.519 11.662 871.901 10.258C870.513 7.10799 861.972 1.322 857.73 0.657998C852.434 -0.171002 131.414 -0.241001 127.374 0.586999ZM697.59 91.274C698.14 91.652 700.615 92.523 703.09 93.21C708.483 94.708 718.269 98.507 726.865 102.44C730.316 104.019 733.389 105.311 733.695 105.311C736.936 105.311 759.413 119.403 778.09 133.144C788.235 140.608 810.62 163.194 820.09 175.521C820.915 176.595 823.069 179.299 824.877 181.531C830.839 188.89 836.152 199.035 836.767 204.234C837.283 208.589 837.057 209.435 834.765 211.727C832.777 213.714 831.176 214.311 827.827 214.311C825.432 214.311 822.732 213.749 821.827 213.061C820.041 211.703 811.09 198.638 811.09 197.388C811.09 196.966 810.208 195.823 809.13 194.847C808.052 193.871 807.243 192.789 807.333 192.442C807.812 190.597 776.328 158.437 765.59 149.802C751.841 138.745 716.02 119.674 697.193 113.388C685.79 109.581 682.189 107.555 681.427 104.517C680.578 101.136 681.746 95.348 683.716 93.172C686.701 89.874 694.082 88.864 697.59 91.274ZM303.032 92.749C304.414 94.221 305.512 96.895 305.803 99.499C306.567 106.336 304.352 108.255 289.886 113.287C273.065 119.138 260.851 125.168 237.59 139.103C226.418 145.796 212.631 156.656 203.09 166.278C190.437 179.039 191.37 177.901 173.39 202.539C166.46 212.035 162.464 214.736 156.969 213.637C150.403 212.324 147.869 205.86 151.077 198.607C152.712 194.911 160.262 182.703 163.319 178.811C181.973 155.065 199.692 138.211 223.699 121.38C233.149 114.755 253.826 103.996 255.716 104.721C256.471 105.011 257.09 104.812 257.09 104.28C257.09 103.747 257.765 103.311 258.59 103.311C259.415 103.311 260.09 102.861 260.09 102.311C260.09 101.761 260.764 101.311 261.587 101.311C262.411 101.311 265.942 99.961 269.434 98.311C272.926 96.661 276.453 95.311 277.27 95.311C278.088 95.311 279.092 94.974 279.502 94.561C280.907 93.146 291.59 90.474 296.166 90.392C299.786 90.328 301.22 90.82 303.032 92.749ZM222.59 423.83C227.67 424.409 231.319 425.489 232.961 426.901C233.341 427.227 228.241 436.403 227.177 437.311C225.65 438.613 192.09 504.138 192.09 505.817C192.09 506.065 190.554 509.548 188.677 513.558C183.346 524.945 164.528 581.558 162.501 592.311C161.553 597.34 158.858 608.901 157.865 612.196C157.305 614.057 156.703 617.053 156.529 618.853C156.354 620.652 155.749 624.754 155.184 627.968C153.22 639.128 149.212 673.876 148.569 685.311C148.214 691.636 147.736 698.386 147.507 700.311C146.04 712.665 147.295 742.385 150.949 781.811C152.528 798.855 152.911 833.175 151.79 857.311C151.496 863.636 150.935 877.136 150.542 887.311L149.828 905.811L154.896 899.189C157.683 895.547 162.138 889.247 164.795 885.189C167.453 881.131 170.732 876.327 172.082 874.513C177.469 867.277 198.081 827.203 201.761 816.811C203.696 811.346 208.771 798.759 211.034 793.811C213.364 788.717 216.658 778.556 217.68 773.311C217.948 771.936 219.91 763.836 222.042 755.311C224.173 746.786 226.22 737.898 226.591 735.561C226.962 733.224 227.594 731.311 227.994 731.311C228.395 731.311 229.318 742.449 230.047 756.061C231.825 789.294 231.931 793.477 231.055 795.811C230.643 796.911 229.085 801.636 227.594 806.311C216.49 841.124 189.915 889.751 164.473 921.811C149.059 941.235 128.828 963.527 127.772 962.251C127.572 962.009 127.83 957.536 128.344 952.311C128.859 947.086 129.396 926.161 129.539 905.811C129.682 885.461 130.041 867.236 130.337 865.311C131.185 859.805 132.281 841.373 132.368 831.138C132.449 821.65 131.36 805.722 128.48 774.311C125.714 744.129 126.295 685.897 129.619 660.311C129.869 658.386 130.323 654.561 130.629 651.811C132.156 638.078 134.304 623.137 135.589 617.311C136.377 613.736 137.946 606.536 139.075 601.311C142.03 587.633 145.371 575.926 146.561 575.076C147.127 574.672 147.295 574.335 146.935 574.326C145.068 574.283 158.995 530.834 165.05 517.811C166.073 515.611 168.32 510.436 170.042 506.311C175.237 493.873 178.414 487.311 179.242 487.311C179.674 487.311 179.786 486.682 179.49 485.912C179.195 485.143 179.434 484.216 180.022 483.853C180.609 483.49 181.09 482.32 181.09 481.252C181.09 480.184 181.54 479.311 182.09 479.311C182.64 479.311 183.09 478.736 183.09 478.033C183.09 476.427 189.513 462.952 191.954 459.436C192.957 457.992 195.576 453.436 197.774 449.311C208.902 428.431 212.982 422.17 215.088 422.74C215.914 422.964 219.29 423.455 222.59 423.83ZM776.341 427.561C778.236 430.449 781.045 435.061 782.585 437.811C784.124 440.561 787.31 446.186 789.664 450.311C800.009 468.432 802.478 473.214 809.549 488.811C812.961 496.338 818.768 510.481 819.609 513.311C820.017 514.686 821.212 517.661 822.265 519.922C825.197 526.218 828.515 535.4 833.609 551.311C836.163 559.286 838.63 566.711 839.093 567.811C844.277 580.13 851.36 615.841 855.555 650.811C856.413 657.961 857.359 665.611 857.658 667.811C859.654 682.487 860.18 692.268 860.215 715.377C860.245 734.67 859.669 750.144 858.6 758.811C858.397 760.461 857.961 766.086 857.632 771.311C857.303 776.536 856.821 783.736 856.56 787.311C854.873 810.492 854.171 833.307 854.654 849.311C855.359 872.664 855.42 873.548 856.402 875.066C856.848 875.756 857.006 888.131 856.751 902.566C856.329 926.504 857.152 951.35 858.612 958.724C859.122 961.304 859.006 961.486 857.594 960.314C856.717 959.586 856.239 958.364 856.533 957.599C856.827 956.833 856.661 956.458 856.164 956.765C854.118 958.03 831.355 933.019 817.526 914.311C791.163 878.646 771.24 841.511 758.882 805.003C756.263 797.267 755.757 794.227 755.687 785.811C755.557 770.231 757.362 733.706 758.309 732.759C758.498 732.57 761.06 741.729 764.003 753.113C774.622 794.183 784.09 818.855 802.643 853.811C811.107 869.759 813.076 873.195 814.849 875.111C815.542 875.86 815.852 876.886 815.539 877.392C815.227 877.897 815.449 878.311 816.031 878.311C816.613 878.311 817.09 878.949 817.09 879.728C817.09 880.507 817.477 881.294 817.95 881.478C818.424 881.661 823.004 887.421 828.128 894.278C833.252 901.135 837.641 906.159 837.88 905.441C838.119 904.724 837.788 898.438 837.145 891.474C836.502 884.509 835.993 877.011 836.015 874.811C836.037 872.611 835.817 868.111 835.527 864.811C835.237 861.511 834.811 855.436 834.581 851.311C834.35 847.186 834.111 843.586 834.047 843.311C833.983 843.036 833.909 833.811 833.883 822.811C833.835 803.305 834.562 791.972 837.761 762.311C839.419 746.941 839.859 714.989 838.69 694.811C837.86 680.473 835.158 647.632 834.576 644.811C834.349 643.711 833.9 640.561 833.576 637.811C833.253 635.061 832.357 629.886 831.586 626.311C820.807 576.328 820.374 574.68 810.171 545C806.803 535.203 804.316 526.755 804.643 526.225C804.971 525.695 804.643 525.385 803.914 525.536C803.186 525.687 802.726 525.177 802.893 524.403C803.059 523.628 802.81 522.728 802.341 522.403C801.871 522.077 799.076 516.411 796.127 509.811C788.821 493.455 765.516 446.631 764.025 445.311C763.714 445.036 761.326 440.869 758.718 436.052C754.761 428.743 754.237 427.192 755.557 426.685C757.757 425.841 770.337 422.511 771.742 422.401C772.376 422.352 774.446 424.673 776.341 427.561ZM323.078 430.561C323.072 431.249 322.203 435.186 321.149 439.311C318.105 451.215 313.428 469.153 311.242 477.311C308.112 488.987 298.614 532.736 294.524 554.311C292.49 565.036 290.483 575.611 290.062 577.811C281.287 623.696 274.997 683.402 275.051 720.311C275.094 750.238 276.711 773.483 280.632 800.536C284.145 824.775 286.67 835.985 292.295 852.311C295.042 860.286 298.409 870.186 299.775 874.311C302.728 883.223 307.788 894.311 308.902 894.311C309.338 894.311 309.817 890.388 309.967 885.594C310.117 880.8 310.439 876.556 310.681 876.163C310.924 875.771 310.623 875.14 310.013 874.763C308.853 874.046 309.185 866.795 311.222 848.395C312.653 835.464 314.578 827.074 321.564 803.311C325.959 788.364 332.774 770.033 336.2 763.948C336.777 762.923 337.402 761.348 337.589 760.448C337.777 759.548 339.357 754.536 341.1 749.311C355.49 706.188 365.232 661.744 368.611 623.811C369.767 610.824 371.029 600.039 371.439 599.629C371.853 599.215 373.535 610.277 374.584 620.311C374.9 623.336 375.598 628.961 376.135 632.811C377.506 642.649 380.178 667.441 380.788 675.985C381.744 689.355 372.017 726.551 358.083 762.811C347.201 791.128 339.802 814.22 336.615 829.811C333.831 843.432 331.09 863.273 331.09 869.803C331.09 872.218 330.736 874.412 330.303 874.679C328.454 875.822 333.403 923.852 336.55 935.311C341.081 951.808 342.09 955.837 342.09 957.427C342.09 958.39 340.779 963.37 339.177 968.494C337.575 973.619 335.984 979.08 335.64 980.632C335.297 982.184 334.501 983.281 333.871 983.071C330.116 981.82 292.205 911.594 284.454 891.53C280.139 880.361 275.059 864.17 275.597 863.3C275.875 862.85 275.762 862.331 275.346 862.146C274.247 861.659 269.618 846.402 267.053 834.811C265.836 829.311 264.468 823.911 264.014 822.811C263.139 820.694 261.05 810.385 258.642 796.311C252.636 761.203 252.169 731.52 256.638 668.811C257.678 654.22 260.674 625.406 261.681 620.311C261.952 618.936 263.045 612.411 264.108 605.811C265.171 599.211 266.939 588.636 268.036 582.311C269.134 575.986 270.293 569.011 270.612 566.811C273.216 548.859 280.291 517.022 292.057 470.311C300 438.78 301.384 433.783 302.516 432.555C303.153 431.863 307.03 430.909 311.132 430.434C322.032 429.172 323.091 429.183 323.078 430.561ZM679.011 430.8C681.442 431.045 683.753 431.765 684.145 432.4C684.867 433.568 695.552 470.708 696.49 475.311C696.771 476.686 698.191 483.436 699.648 490.311C701.105 497.186 702.419 503.711 702.567 504.811C702.714 505.911 702.94 506.811 703.07 506.811C703.199 506.811 703.423 508.161 703.567 509.811C703.712 511.461 703.945 512.923 704.085 513.061C704.225 513.199 704.403 513.648 704.48 514.061C704.557 514.474 704.998 515.408 705.461 516.138C708.456 520.862 718.741 577.025 723.439 614.311C723.751 616.786 724.899 625.786 725.989 634.311C727.08 642.836 728.255 653.411 728.601 657.811C728.947 662.211 729.403 666.936 729.615 668.311C733.432 693.088 732.804 765.169 728.518 794.2C725.669 813.502 720.849 835.028 715.648 851.689C704.477 887.47 701.74 894.684 690.742 917.311C684.418 930.322 660.559 974.111 655.374 982.222L653.833 984.633L652.497 982.222C651.762 980.896 651.145 979.034 651.125 978.084C651.106 977.134 649.689 972.278 647.976 967.293L644.862 958.23L647.903 946.02C654.877 918.014 657.514 893.614 656.034 870.811C653.651 834.109 648.799 814.946 628.315 761.311C615.119 726.759 606.938 696.957 606.628 682.311C606.347 669.02 607.739 651.213 610.676 630.474C611.507 624.609 612.678 615.847 613.279 611.002C613.88 606.158 614.695 602.558 615.088 603.002C615.482 603.447 616.368 609.211 617.057 615.811C618.604 630.621 623.386 663.939 626.143 679.109C629.776 699.098 635.519 718.83 646.281 748.311C649.594 757.386 653.091 767.319 654.053 770.385C655.014 773.451 657.639 780.876 659.888 786.885C664.59 799.446 671.339 824.789 674.249 840.811C675.622 848.368 676.414 858.227 676.779 872.311C677.072 883.586 677.641 893.167 678.043 893.603C678.749 894.368 686.601 874.777 691.782 859.325C693.168 855.192 694.59 851.586 694.945 851.311C695.676 850.744 695.515 851.339 698.753 837.311C702.042 823.058 705.589 803.388 707.588 788.311C708.5 781.436 709.701 773.336 710.257 770.311C711.598 763.023 712.171 706.278 711.07 689.811C709.757 670.157 708.26 654.545 705.943 636.37C704.263 623.191 704.089 619.542 705.067 617.975C706.106 616.312 706.05 616.112 704.689 616.635C703.81 616.972 703.09 617.117 703.09 616.956C703.09 616.289 700.058 596.614 699.6 594.311C699.327 592.936 698.399 587.536 697.539 582.311C696.679 577.086 695.12 568.311 694.074 562.811C693.028 557.311 691.419 548.761 690.5 543.811C689.58 538.861 687.511 528.736 685.902 521.311C684.292 513.886 682.783 506.888 682.549 505.761C680.857 497.613 670.477 457.247 667.159 445.91C664.921 438.265 663.09 431.425 663.09 430.711C663.09 429.423 665.502 429.436 679.011 430.8Z" fill="currentColor"/>
</svg>
