<svg width="1143" height="1550" viewBox="0 0 1143 1550" fill="none" xmlns="http://www.w3.org/2000/svg">
<path fill-rule="evenodd" clip-rule="evenodd" d="M44.5 2.224C44.513 3.391 44.968 6.14601 45.51 8.34601C52.109 35.11 62.2429 89.23 63.8599 106.346C64.5059 113.19 65.518 121.735 66.109 125.346C68.749 141.469 70.0009 194.502 68.3989 222.346C67.6729 234.978 65.684 253.943 64.048 263.846C63.82 265.221 63.108 269.721 62.465 273.846C59.271 294.329 54.234 311.733 40.035 351.346C34.909 365.646 30.406 378.471 30.028 379.846C29.045 383.42 25.891 394.408 24.001 400.846C23.113 403.871 20.391 414.136 17.953 423.657C15.514 433.178 13.276 441.361 12.98 441.84C11.531 444.184 4.07597 491.381 2.07997 510.846C-0.0100296 531.223 -0.668048 570.8 0.766952 589.846C2.24495 609.464 3.48998 621.617 5.03398 631.492C5.88198 636.912 7.01695 644.271 7.55595 647.846C9.26995 659.204 9.44597 660.198 11.089 667.846C13.841 680.657 21.44 710.709 25.503 724.846C27.637 732.271 29.607 739.471 29.881 740.846C30.155 742.221 33.974 753.895 38.367 766.788C42.761 779.681 46.132 790.594 45.857 791.038C45.583 791.482 45.79 791.846 46.318 791.846C47.25 791.846 56.347 818.159 61.012 834.346C62.28 838.746 64.758 847.071 66.519 852.846C68.279 858.621 69.822 863.796 69.947 864.346C70.072 864.896 70.427 866.021 70.736 866.846C71.045 867.671 71.5279 869.246 71.8079 870.346C73.4309 876.706 78.551 893.967 79.879 897.554C82.193 903.804 89.9419 930.638 93.3909 944.346C96.5459 956.887 97.557 960.518 102.027 975.346C107.016 991.899 108.504 997.229 113.895 1017.85C118.652 1036.04 120.598 1042.95 123.468 1051.85C125.364 1057.72 137.442 1106.66 138.151 1111.35C138.401 1113 139.074 1116.14 139.646 1118.34C140.875 1123.07 140.696 1122.3 143.964 1136.85C150.381 1165.41 153.17 1182.78 154.478 1202.33C155.857 1222.96 153.833 1242.63 148.462 1260.76C143.657 1276.98 140.531 1289.98 139.423 1298.35C138.399 1306.09 138.177 1323 139.015 1329.54C139.297 1331.75 138.504 1334.49 136.466 1338.37C133.61 1343.79 123.1 1360.17 121.001 1362.47C120.437 1363.08 117.951 1365.98 115.476 1368.91C113.001 1371.83 107.826 1377.57 103.976 1381.67C82.98 1403.99 79.347 1411.44 79.409 1432.05C79.44 1442.16 79.839 1444.97 82.34 1452.75C88.335 1471.39 100.087 1483.01 130.476 1500.31C135.151 1502.97 143.026 1507.72 147.976 1510.86C172.127 1526.18 185.1 1532.49 206.562 1539.34C220.443 1543.78 226.429 1545.15 236.976 1546.35C239.726 1546.66 244.001 1547.17 246.476 1547.48C248.951 1547.79 259.976 1548 270.976 1547.95C288.475 1547.85 296.353 1547.4 316.476 1545.34C330.958 1543.86 353.629 1534.93 368.433 1524.88C375.62 1519.99 387.384 1508.68 390.294 1503.85C396.839 1492.98 401.801 1479.38 404.422 1465.12C405.966 1456.72 406.447 1435.49 405.357 1423.85C404.515 1414.85 403.714 1409.81 397.802 1376.35C394.978 1360.36 394.483 1346.82 396.431 1338.85C397.17 1335.82 400.051 1325.47 402.833 1315.85C407.777 1298.74 407.892 1298.04 407.932 1284.85C407.995 1263.3 406.76 1256.15 399.291 1234.85C384.21 1191.82 381.065 1164.87 385.407 1115.85C388.473 1081.24 392.729 1044.32 396.014 1023.85C396.764 1019.17 397.637 1013.32 397.954 1010.85C398.272 1008.37 398.97 1003.2 399.506 999.346C400.493 992.258 400.755 990.131 401.972 979.346C402.345 976.046 402.834 972.221 403.059 970.846C405.292 957.218 406.446 949.408 406.964 944.417C407.302 941.157 407.757 938.2 407.975 937.848C408.193 937.495 408.648 934.988 408.986 932.277C409.325 929.565 412.298 913.396 415.592 896.346C423.739 854.187 428.566 833.727 433.167 821.846C434.551 818.271 437.686 810.171 440.133 803.846C446.433 787.564 454.258 768.378 457.469 761.346C458.976 758.046 460.556 754.221 460.98 752.846C461.404 751.471 462.789 748.067 464.058 745.282C468.358 735.841 477.857 695.291 481.007 672.926C485.025 644.402 485.292 596.373 481.637 559.846C479.42 537.696 478.93 534.292 475.527 517.441C474.426 511.993 473.253 505.703 472.919 503.462C472.143 498.258 466.817 469.988 466.115 467.346C461.428 449.699 458.761 438.846 459.111 438.846C459.35 438.846 459.016 437.854 458.367 436.642C457.718 435.43 456.623 432.392 455.933 429.892C452.693 418.146 447.256 400.357 443.996 390.841C442.019 385.069 440.229 379.671 440.018 378.846C439.807 378.021 438.893 374.646 437.987 371.346C436.027 364.211 435.461 353.814 436.544 344.846C436.975 341.271 437.563 335.786 437.849 332.658C438.611 324.332 440.894 314.144 445.536 298.346C447.799 290.646 450.695 280.521 451.97 275.846C453.246 271.171 454.735 266.221 455.279 264.846C455.823 263.471 456.82 260.321 457.495 257.846C458.169 255.371 459.319 251.321 460.049 248.846C461.947 242.409 469.695 212.177 474.4 192.846C480.429 168.078 486.915 133.054 491.902 98.346C492.692 92.846 493.614 85.646 493.95 82.346C494.286 79.046 494.987 72.296 495.506 67.346C498.583 38.036 500.473 3.26801 499.109 1.06201C498.657 0.330012 429.314 0.0230232 271.467 0.0550232L44.476 0.10202L44.5 2.224ZM644.419 2.297C643.998 17.492 645.589 50.546 647.478 65.846C649.601 83.049 653.544 111.704 654.551 117.259C655.146 120.542 655.852 125.055 656.118 127.287C656.957 134.307 662.423 166.075 663.871 172.346C664.633 175.646 665.966 181.046 666.834 184.346C667.702 187.646 670.036 197.096 672.022 205.346C674.008 213.596 678.227 229.346 681.397 240.346C687.283 260.766 692.225 278.762 692.93 282.346C693.147 283.446 694.232 287.271 695.342 290.846C697.703 298.454 701.298 312.087 702.043 316.262C702.329 317.866 702.762 319.501 703.006 319.895C703.25 320.29 703.709 322.353 704.027 324.479C704.703 329.016 705 330.645 706.37 337.346C706.932 340.096 707.262 348.421 707.103 355.846L706.814 369.346L700.567 387.655C684.201 435.629 674.683 475.087 663.977 539.346C663.404 542.785 660.646 568.008 660.04 575.346C659.275 584.612 659.126 649.097 659.856 654.846C660.17 657.321 660.925 663.793 661.535 669.229C662.144 674.664 662.832 680.064 663.064 681.229C663.474 683.287 665.067 692.279 666.097 698.346C666.377 699.996 667.076 703.146 667.65 705.346C668.224 707.546 668.879 710.471 669.105 711.846C669.331 713.221 669.891 715.246 670.349 716.346C670.807 717.446 673.094 724.421 675.432 731.846C677.77 739.271 680.536 747.544 681.579 750.229C682.622 752.915 683.479 755.615 683.482 756.229C683.486 756.844 684.177 758.666 685.018 760.28C685.86 761.894 686.323 763.801 686.048 764.518C685.773 765.235 685.937 765.715 686.412 765.584C686.887 765.453 687.285 765.707 687.296 766.149C687.306 766.59 687.95 767.94 688.727 769.149C689.504 770.357 690.979 773.708 692.005 776.596C693.031 779.484 694.232 781.846 694.674 781.846C695.115 781.846 695.476 782.267 695.476 782.781C695.476 783.295 695.958 784.983 696.546 786.531C697.135 788.079 697.664 789.571 697.721 789.846C697.779 790.121 699.048 792.821 700.541 795.846C704.704 804.281 711.779 825.602 716.301 843.346C720.191 858.604 720.835 861.427 722.014 868.369C722.296 870.031 723.446 875.656 724.568 880.869C725.691 886.081 726.778 891.696 726.984 893.346C727.191 894.996 728.727 903.321 730.399 911.846C732.071 920.371 733.924 930.946 734.516 935.346C735.661 943.846 736.137 946.832 736.982 950.846C737.272 952.221 738.176 958.071 738.991 963.846C739.806 969.621 741.133 978.846 741.94 984.346C742.746 989.846 743.884 998.621 744.468 1003.85C745.051 1009.07 745.953 1015.82 746.472 1018.85C747.961 1027.52 748.296 1029.92 748.987 1036.85C749.344 1040.42 750.02 1045.15 750.491 1047.35C751.868 1053.79 755.718 1090.02 757.025 1108.85C758.844 1135.03 759.141 1143.13 758.934 1160.85C758.681 1182.61 756.6 1197.36 752.129 1209.11C750.713 1212.83 749.571 1216.11 749.592 1216.39C749.612 1216.67 748.489 1219.93 747.095 1223.62C738.729 1245.82 735.322 1262.08 735.213 1280.35C735.134 1293.61 736.331 1301.64 740.51 1315.85C745.925 1334.25 746.742 1338.46 747.214 1350.35C747.703 1362.66 747.455 1364.7 741.401 1398.35C738.151 1416.41 737.647 1422.77 737.995 1441.35C738.458 1466.11 741.161 1479.99 748.51 1495.35C753.171 1505.08 754.352 1506.74 761.976 1514.23C776.359 1528.37 798.316 1538.99 824.976 1544.71C833.736 1546.59 853.828 1548.15 870.976 1548.29C874.276 1548.31 877.307 1548.79 877.711 1549.34C878.187 1549.99 878.451 1549.96 878.461 1549.24C878.47 1548.54 882.759 1547.89 890.226 1547.45C899.898 1546.88 911.118 1545.34 926.976 1542.39C940.751 1539.83 972.805 1526.78 979.976 1520.82C981.076 1519.9 986.476 1516.52 991.976 1513.29C997.476 1510.07 1002.2 1507.16 1002.48 1506.82C1002.96 1506.23 1006.43 1504.11 1022.98 1494.32C1038.44 1485.16 1042.85 1481.48 1050.54 1471.35C1060.95 1457.61 1064.66 1447.5 1064.64 1432.85C1064.61 1416 1058.88 1403.86 1041.52 1383.85C1036.51 1378.07 1030.49 1371.1 1028.14 1368.35C1019.56 1358.29 1011.55 1347.19 1008.3 1340.85L1004.98 1334.35L1004.86 1318.35C1004.8 1309.55 1004.44 1300.77 1004.08 1298.85C1002.43 1290.22 994.279 1256.15 993.428 1254.35C990.932 1249.06 988.476 1231.21 988.476 1218.34C988.476 1207.55 990.771 1183.26 992.917 1171.35C995.575 1156.59 1001.27 1128.66 1003.62 1118.85C1005.26 1111.97 1007.24 1103.42 1008.01 1099.85C1008.78 1096.27 1011.01 1087.27 1012.97 1079.85C1014.93 1072.42 1016.69 1065.45 1016.88 1064.35C1017.08 1063.25 1017.73 1061.11 1018.33 1059.6C1018.93 1058.08 1019.24 1056.85 1019.02 1056.85C1018.8 1056.85 1019.05 1055.38 1019.58 1053.6C1020.11 1051.81 1022.11 1044.27 1024.03 1036.85C1025.95 1029.42 1028.61 1019.75 1029.94 1015.35C1031.27 1010.95 1032.82 1005.55 1033.4 1003.35C1033.97 1001.15 1035.85 994.396 1037.57 988.346C1041.36 975.031 1041.56 974.31 1045.36 959.846C1048.7 947.128 1054.7 926.956 1059.94 910.846C1061.82 905.071 1064.73 894.946 1066.4 888.346C1070.74 871.275 1086.05 821.564 1094.11 798.346C1108.15 757.936 1123.95 706.518 1127 691.346C1127.77 687.496 1129.78 677.821 1131.47 669.846C1134.78 654.162 1134.93 653.293 1136.45 641.346C1137.01 636.946 1137.9 630.646 1138.43 627.346C1142.36 602.657 1142.89 594.992 1142.88 561.846C1142.87 532.051 1142.57 525.747 1140.19 504.846C1137.31 479.646 1137.41 480.335 1135.09 468.346C1127.98 431.489 1122.95 410.697 1116.12 389.846C1113.69 382.421 1110.94 373.679 1110.01 370.42C1109.08 367.161 1105.61 357.261 1102.3 348.42C1093.89 325.941 1091.3 317.674 1086.98 299.346C1084.9 290.546 1082.97 282.671 1082.68 281.846C1081.99 279.818 1081.68 278.143 1080.99 272.846C1080.43 268.462 1079.98 265.487 1078.99 259.346C1075.92 240.406 1074.2 215.913 1074.09 189.846C1073.98 162.996 1074.24 156.495 1076.46 129.346C1077.46 117.11 1081.83 85.165 1083.98 74.346C1085.66 65.893 1087.44 56.428 1088.11 52.346C1088.61 49.386 1093.36 28.016 1096.12 16.346C1098.3 7.13201 1098.43 6.566 1099.07 3.173L1099.67 0L872.073 0.124023L644.476 0.248016L644.419 2.297ZM184.46 204.41C188.243 205.271 191.874 206.621 192.53 207.41C193.185 208.2 194.115 208.846 194.596 208.846C197.53 208.846 214.455 223.718 221.644 232.614C225.107 236.898 238.797 263.786 242.99 274.54C245.392 280.696 248.577 290.371 250.07 296.04C252.696 306.013 254.476 310.217 254.476 306.447C254.476 300.716 275.609 256.892 281.191 251.047C281.873 250.332 283.004 248.982 283.704 248.047C284.403 247.111 287.83 243.744 291.317 240.564C298.91 233.642 308.301 228.601 312.789 229.039C315.758 229.329 316.085 229.791 318.662 237.336C320.162 241.73 321.218 246.23 321.007 247.336C320.797 248.441 320.591 249.935 320.55 250.655C320.509 251.375 320.026 251.686 319.476 251.346C318.926 251.006 318.476 251.178 318.476 251.727C318.476 252.276 316.093 254.391 313.181 256.426C306.529 261.075 299.81 269.632 293.221 281.846C288.301 290.967 279.476 311.005 279.476 313.057C279.476 313.6 278.841 315.462 278.064 317.195C276.806 320.003 275.384 325.403 273.943 332.846C271.573 345.092 268.141 364.346 266.965 371.993C264.848 385.755 259.507 444.456 256.971 481.846C254.631 516.339 254.215 573.218 255.99 615.846C257.155 643.841 257.532 651.554 257.942 655.846C258.178 658.321 258.891 666.196 259.526 673.346C260.81 687.807 260.925 688.709 261.765 690.846C262.09 691.671 263.09 697.296 263.988 703.346C267.754 728.724 276.144 752.787 288.044 772.346C294.467 782.903 295.037 787.309 290.967 794.927C286.058 804.117 287.36 815.147 294.203 822.346C301.793 830.331 317.603 840.295 329.976 844.891C338.795 848.168 349.681 850.786 354.701 850.838C355.624 850.848 354.498 857.032 353.344 858.296C352.866 858.818 352.476 859.776 352.476 860.424C352.476 861.072 351.721 863.344 350.799 865.474C349.877 867.604 348.994 869.796 348.838 870.346C348.681 870.896 346.848 876.362 344.764 882.492C342.681 888.622 340.875 894.1 340.751 894.666C340.627 895.232 339.615 899.104 338.501 903.271C336.321 911.424 333.484 922.157 330.551 933.346C329.541 937.196 328.154 943.046 327.469 946.346C326.783 949.646 325.422 955.271 324.445 958.846C323.469 962.421 322.329 967.146 321.912 969.346C320.076 979.044 319.621 981.621 318.911 986.346C318.58 988.546 316.576 1000.02 314.457 1011.85C311.074 1030.72 306.731 1062.28 305.029 1080.35C304.718 1083.65 303.598 1094.45 302.54 1104.35C301.482 1114.25 300.355 1127.07 300.036 1132.85C298.845 1154.39 298.343 1161.45 297.726 1165.35C297.003 1169.91 297.206 1248.19 297.98 1263.35C299.113 1285.53 299.823 1293.72 302.399 1314.35C302.948 1318.75 303.663 1325.05 303.987 1328.35C304.312 1331.65 304.771 1335.47 305.009 1336.85C305.983 1342.47 307.28 1352.01 308.003 1358.85C309.055 1368.79 312.473 1395.26 313.232 1399.35C313.641 1401.55 313.976 1407.85 313.976 1413.35C313.976 1422.43 313.727 1423.77 311.252 1427.98C304.329 1439.76 292.302 1446.15 277.771 1445.78C263.512 1445.42 253.985 1439.68 248.232 1428.01C245.213 1421.88 244.976 1420.67 244.976 1411.37C244.976 1405.86 245.304 1398.42 245.705 1394.85C246.944 1383.79 249.336 1352.03 249.998 1337.85C250.344 1330.42 250.829 1323.22 251.077 1321.85C251.988 1316.78 252.261 1272.88 251.472 1258.35C251.023 1250.1 250.34 1237.05 249.954 1229.35C249.568 1221.65 249.126 1214.67 248.974 1213.85C248.821 1213.02 248.401 1208.52 248.04 1203.85C247.679 1199.17 247.199 1194.22 246.974 1192.85C246.749 1191.47 246.286 1186.97 245.945 1182.85C244.631 1166.98 236.027 1110.74 230.033 1078.85C223.543 1044.31 212.519 996.725 204.035 966.615C201.597 957.963 199.375 949.638 199.098 948.115C197.544 939.574 185.629 901.002 182.49 894.346C181.971 893.246 180.36 888.521 178.909 883.846C176.225 875.198 165.814 845.432 162.295 836.346C158.88 827.53 156.62 823.47 151.997 817.853C149.51 814.832 147.476 811.999 147.476 811.558C147.476 810.697 153.484 811.572 157.291 812.986C163.392 815.252 176.436 812.295 184.812 806.747C189.674 803.527 197.476 796.14 197.476 794.758C197.476 794.335 198.039 793.394 198.726 792.667C201.441 789.797 210.36 775.139 214.742 766.346C222.583 750.61 232.295 719.276 233.957 704.346C234.141 702.696 234.58 698.844 234.932 695.786C235.29 692.673 234.906 684.506 234.058 677.232C233.225 670.086 232.271 659.763 231.937 654.293C231.603 648.822 231.138 642.996 230.905 641.346C229.113 628.702 228.459 610.826 228.441 574.031C228.419 526.924 228.936 513.348 233.053 452.846C233.371 448.171 233.804 440.521 234.015 435.846C234.226 431.171 234.873 421.271 235.453 413.846C238.1 379.958 237.954 373.293 233.902 343.346C231.183 323.254 218.402 280.577 210.242 264.346C204.534 252.991 201.618 248.903 193.033 240.219C186.413 233.522 181.169 230.445 171.976 227.864C163.802 225.57 161.124 221.842 161.704 213.566C162.159 207.053 163.597 205.03 168.615 203.845C173.849 202.608 177.037 202.722 184.46 204.41ZM977.566 204.558C980.926 206.543 982.051 210.636 981.115 217.467C980.2 224.142 978.17 226.14 970.303 228.111C959.438 230.835 952.304 236.093 943.146 248.128C940.125 252.098 936.026 258.331 934.037 261.98C927.846 273.335 917.794 303.936 913.386 324.846C905.675 361.425 904.522 375.522 906.882 404.346C907.782 415.346 908.717 429.736 908.959 436.323C909.379 447.748 910.242 459.645 911.016 464.683C911.757 469.509 913.642 504.19 914.394 526.846C915.173 550.296 914.943 616.318 914.054 624.846C913.796 627.321 913.324 632.946 913.005 637.346C912.686 641.746 912.208 646.921 911.941 648.846C911.675 650.771 911.014 657.296 910.473 663.346C909.095 678.747 908.399 685.151 907.953 686.557C907.328 688.527 909.441 705.573 911.642 716.308C914.772 731.574 923.501 757.025 929.833 769.346C938.259 785.741 942.888 792.588 950.687 800.188C962.589 811.787 973.344 815.36 987.483 812.412C991.53 811.568 995.056 811.093 995.319 811.355C995.582 811.618 994.937 812.624 993.886 813.59C992.836 814.556 991.83 816.021 991.651 816.846C991.472 817.671 990.51 819.246 989.511 820.346C988.513 821.446 986.471 824.821 984.972 827.846C983.474 830.871 981.512 834.211 980.612 835.268C979.527 836.543 979.445 836.914 980.37 836.37C981.445 835.738 981.395 836.214 980.154 838.448C978.716 841.037 963.171 886.177 961.956 891.292C961.688 892.422 959.266 899.813 956.574 907.718C952.141 920.735 948.962 931.695 941.888 958.346C940.575 963.296 937.646 973.871 935.38 981.846C933.114 989.821 929.783 1003.1 927.976 1011.35C926.17 1019.6 923.935 1029.72 923.009 1033.85C922.083 1037.97 921.118 1042.47 920.865 1043.85C920.611 1045.22 919.982 1047.7 919.467 1049.35C918.35 1052.92 912.839 1077.86 912.063 1082.85C911.763 1084.77 910.81 1090.17 909.943 1094.85C909.076 1099.52 907.949 1106.27 907.439 1109.85C906.928 1113.42 906.052 1119.05 905.492 1122.35C904.933 1125.65 904.246 1129.7 903.966 1131.35C902.495 1140.02 900.851 1152.61 899.981 1161.85C899.645 1165.42 898.745 1173.3 897.981 1179.35C896.662 1189.79 896.006 1195.28 894.989 1204.35C894.743 1206.55 894.296 1213.52 893.996 1219.85C893.207 1236.48 892.309 1252.74 891.923 1257.35C891.433 1263.2 891.356 1313 891.833 1315.35C892.057 1316.45 892.528 1324.55 892.881 1333.35C893.93 1359.56 894.295 1364.58 896.987 1389.8C900.176 1419.67 899.073 1426.5 889.574 1435.75C881.524 1443.59 876.935 1445.35 864.476 1445.35C855.255 1445.35 853.3 1445.03 848.43 1442.75C840.608 1439.08 835.982 1434.64 832.544 1427.51C828.167 1418.43 827.978 1414.66 830.881 1394.32C832.292 1384.43 834.125 1369.91 834.954 1362.05C835.784 1354.19 836.677 1346.54 836.939 1345.05C837.496 1341.89 842.329 1302.67 843.065 1295.35C843.341 1292.6 843.946 1286.52 844.41 1281.85C845.199 1273.88 846.061 1220.67 845.908 1189.35C845.837 1175.01 845.045 1158.46 844.088 1151.35C843.792 1149.15 843.28 1141.5 842.949 1134.35C842.619 1127.2 842.21 1120.22 842.04 1118.85C841.87 1117.47 841.423 1112.3 841.046 1107.35C839.908 1092.37 834.507 1045.17 832.409 1031.85C830.288 1018.38 829.204 1012.29 826.988 1001.35C826.208 997.496 824.61 988.046 823.438 980.346C822.266 972.646 820.929 965.446 820.466 964.346C820.004 963.246 816.41 949.521 812.479 933.846C806.148 908.597 797.022 875.54 795.866 873.669C794.963 872.207 788.476 853.408 788.476 852.254C788.476 851.509 791.323 850.55 795.726 849.814C804.97 848.267 814.604 844.803 825.976 838.935C835.748 833.893 838.302 832.028 846.147 824.207C854.332 816.046 856.916 809.586 855.35 801.2C854.831 798.422 853.422 795.356 851.968 793.838C848.148 789.85 848.522 783.812 853.055 776.287C859.373 765.801 871.103 741.392 872.01 736.846C872.174 736.021 873.056 732.871 873.971 729.846C876.041 722.995 882.011 688.935 882.91 678.846C883.278 674.721 883.769 670.446 884.002 669.346C884.893 665.145 886.437 640.549 886.985 621.846C887.299 611.121 887.77 600.546 888.033 598.346C888.713 592.638 888.736 533.456 888.06 526.316C887.749 523.033 887.257 510.896 886.967 499.346C886.676 487.796 886.218 476.321 885.95 473.846C885.682 471.371 884.803 461.021 883.997 450.846C882.556 432.648 880.015 403.64 878.916 392.846C876.325 367.381 866.366 312.846 864.308 312.846C863.85 312.846 863.476 312.026 863.476 311.023C863.476 310.021 862.126 306.414 860.476 303.007C858.826 299.601 857.476 296.605 857.476 296.349C857.476 294.341 846.745 274.115 844.476 271.846C843.979 271.349 842.984 269.84 839.697 264.602C838.751 263.093 837.618 261.856 837.181 261.852C836.743 261.849 835.262 260.723 833.89 259.351C832.517 257.978 829.95 256.124 828.185 255.23C822.874 252.54 821.475 250.808 821.491 246.941C821.506 243.192 823.446 236.739 826.102 231.602C827.549 228.805 827.946 228.639 831.89 229.179C834.219 229.498 838.109 230.792 840.533 232.053C845.792 234.789 860.595 248.658 863.682 253.742C864.886 255.724 866.179 257.571 866.557 257.846C868.462 259.234 879.702 282.964 883.964 294.596C888.439 306.812 890.476 310.426 890.476 306.153C890.476 300.912 906.487 256.835 909.476 253.846C909.751 253.571 911.748 249.971 913.914 245.846C923.547 227.502 936.672 214.234 952.258 207.083C961.94 202.641 972.531 201.584 977.566 204.558Z" fill="currentColor"/>
</svg>
