<svg width="932" height="797" viewBox="0 0 932 797" fill="none" xmlns="http://www.w3.org/2000/svg">

<path fill-rule="evenodd" clip-rule="evenodd" d="M358.464 0.65897C358.097 1.02497 357.797 13.595 357.797 28.591C357.797 53.709 357.659 55.895 356.047 56.339C355.085 56.604 350.697 57.581 346.297 58.511C314.022 65.333 284.303 76.997 261.838 91.659L251.807 98.207L243.552 94.243C229.712 87.599 213.934 82.39 200.297 79.965C197.547 79.476 194.172 78.822 192.797 78.51C182.376 76.151 154.275 76.115 140.74 78.444C102.679 84.992 74.343 97.134 44.4 119.727C36.643 125.579 29.622 130.349 28.797 130.327C27.972 130.304 21.335 129.931 14.047 129.498L0.796997 128.71L0.640991 136.601C0.554991 140.941 0.376004 191.692 0.242004 249.38L0 354.268L7.48102 353.636C34.964 351.313 79.426 339.874 103.685 328.886C107.199 327.294 110.82 325.992 111.732 325.992C113.044 325.992 113.861 328.338 115.646 337.242C121.587 366.865 131.58 401.22 142.772 430.492C147.89 443.878 148.954 446.262 158.833 466.492C174 497.547 185.322 514.356 212.718 546.492C218.813 553.642 224.764 561.517 225.943 563.992C228.988 570.388 232.574 583.907 233.313 591.778C233.66 595.471 234.023 627.247 234.12 662.391L234.297 726.291L238.145 727.623C240.262 728.356 249.487 732.514 258.645 736.863C277.753 745.938 315.478 761.73 333.797 768.323C357.604 776.892 395.831 787.297 420.702 791.979C457.53 798.913 495.431 797.738 530.941 788.564C573.534 777.559 581.607 775.025 617.297 761.454C640.92 752.472 646.847 749.99 676.538 736.642C687.121 731.884 696.21 727.992 696.738 727.992C697.336 727.992 697.821 702.01 698.028 658.742L698.36 589.492L701.025 579.725C704.977 565.244 710.176 556.941 725.482 540.669C735.762 529.739 748.873 511.587 762.446 489.492C782.332 457.118 803.372 399.638 815.885 343.492C818.974 329.634 820.166 325.992 821.614 325.992C822.024 325.992 828.852 328.481 836.787 331.523C869.58 344.094 909.117 353.991 926.547 353.992H931.797V242.027C931.797 136.383 931.698 130.015 930.047 129.215C929.062 128.738 923.051 128.862 916.297 129.497C909.697 130.118 903.397 130.298 902.297 129.896C901.197 129.494 897.597 126.842 894.297 124.002C878.825 110.687 857.808 97.8409 838.797 90.0789C833.022 87.7209 827.508 85.6379 826.543 85.4489C825.579 85.2599 824.343 84.829 823.797 84.492C822.536 83.713 821.271 83.3879 810.297 81.0269C795.653 77.8759 791.293 77.492 770.297 77.498C746.162 77.505 738.649 77.944 739.487 79.3C739.828 79.85 739.685 80.041 739.17 79.723C738.402 79.248 732.494 80.243 722.797 82.481C717.095 83.797 695.941 91.3429 689.525 94.3499C685.251 96.3529 681.329 97.992 680.81 97.992C680.291 97.992 676.138 95.601 671.582 92.679C655.654 82.464 645.476 77.125 631.297 71.545C618.796 66.625 601.406 60.992 598.718 60.992C597.726 60.992 596.632 60.535 596.287 59.976C595.941 59.417 595.318 59.17 594.901 59.427C594.485 59.685 591.293 59.231 587.809 58.418C582.491 57.177 578.204 56.411 574.607 56.059C574.228 56.022 573.877 43.778 573.829 28.851C573.78 13.923 573.502 1.32299 573.21 0.850986C572.593 -0.147014 359.46 -0.33803 358.464 0.65897ZM849.547 231.622C851.235 233.484 851.797 235.324 851.797 238.992C851.797 245.837 849.389 248.152 838.297 251.975C819.876 258.323 804.346 267.177 792.321 278.186C778.792 290.572 770.635 302.65 750.243 340.492C733.112 372.284 725.211 383.563 707.816 401.063C696.013 412.937 684.609 421.087 669.328 428.567C640.73 442.567 620.251 446.935 582.034 447.189C559.898 447.336 550.829 446.431 533.797 442.376C508.486 436.349 501.797 432.716 501.797 424.995C501.797 420.115 504.093 415.706 507.618 413.82C510.653 412.196 511.881 412.369 523.538 416.056C540.327 421.366 562.455 424.265 585.557 424.18C621.17 424.051 653.319 414.716 675.797 397.98C689.434 387.826 705.864 370.441 715.005 356.492C718.874 350.588 732.272 326.985 736.344 318.899C741.916 307.833 752.086 291.13 758.854 281.927C777.323 256.815 808.338 235.534 835.297 229.478C842.708 227.813 846.628 228.403 849.547 231.622ZM106.535 232.086C123.449 237.448 143.058 249.17 157.923 262.805C168.875 272.851 182.301 291.276 190.486 307.492C191.597 309.692 196.901 319.592 202.274 329.492C221.67 365.229 234.886 381.713 256.412 397.021C283.813 416.505 310.345 424.315 348.797 424.215C373.36 424.151 389.106 421.856 413.965 414.716C421.18 412.643 423.024 412.43 424.965 413.441C426.248 414.109 427.185 415.181 427.047 415.824C426.91 416.466 427.467 416.992 428.285 416.992C430.304 416.992 431.517 423.641 430.461 428.921C430.008 431.187 428.736 432.364 424.502 434.435C409.651 441.702 376.347 447.992 352.729 447.992C333.526 447.992 300.066 441.877 278.797 434.48C256.973 426.891 241.915 417.364 225.253 400.606C206.079 381.32 199.559 371.951 182.027 338.492C165.74 307.41 157.801 295.21 145.454 282.294C132.363 268.602 121.102 261.673 98.297 253.278C91.697 250.849 85.327 247.952 84.142 246.842C79.972 242.934 80.26 235.529 84.757 231.032C87.748 228.041 94.86 228.385 106.535 232.086Z" fill="currentColor"/>
</svg>
