<svg width="818" height="1473" viewBox="0 0 818 1473" fill="none" xmlns="http://www.w3.org/2000/svg">
<path fill-rule="evenodd" clip-rule="evenodd" d="M126.325 0.447194C120 0.794194 113.449 1.52519 111.767 2.07219C97.9031 6.58319 83.2121 20.7762 78.4851 34.2262C74.6271 45.2032 71.0431 63.5962 68.8311 83.7822C68.4721 87.0632 68.0321 89.9882 67.8531 90.2822C67.6751 90.5762 67.0071 96.6172 66.3691 103.705C65.0711 118.124 61.3461 142.185 58.3011 155.817C55.7041 167.446 55.8271 166.88 52.9651 180.336C49.7871 195.279 47.4711 203.216 45.3831 206.317C44.4571 207.692 43.6181 210.085 43.5181 211.635C43.3601 214.09 37.1391 239.472 32.8491 255.167C32.0441 258.11 29.3341 269.81 26.8261 281.167C24.3181 292.525 21.2061 306.317 19.9121 311.817C16.4041 326.724 14.1691 336.573 13.7841 338.817C13.5951 339.917 12.9161 343.742 12.2761 347.317C11.6361 350.892 10.9272 355.842 10.6992 358.317C10.4722 360.792 9.63514 367.317 8.84014 372.817C8.04514 378.317 6.87815 387.992 6.24615 394.317C5.61415 400.642 4.58511 407.167 3.96111 408.817C3.33611 410.467 2.75415 412.942 2.66815 414.317C2.58115 415.692 2.24514 419.517 1.92114 422.817C0.534136 436.926 0.35011 444.744 0.0941097 500.817C-0.14589 553.404 -0.00190151 560.089 1.4201 562.317C2.2971 563.692 3.09916 566.842 3.20416 569.317C3.44416 575.024 6.27715 601.313 6.87115 603.342C7.11615 604.181 7.76515 608.456 8.31115 612.842C10.4232 629.78 16.2171 657.471 20.2321 669.817C22.9151 678.066 29.7251 700.231 32.3691 709.317C33.5691 713.442 36.5552 722.667 39.0062 729.817C41.4562 736.967 43.5861 743.267 43.7391 743.817C44.1031 745.123 45.4991 748.45 48.7751 755.817C50.2421 759.117 52.3271 764.967 53.4091 768.817C55.9671 777.926 61.2471 803.415 61.9011 809.817C62.1821 812.567 62.8201 815.942 63.3191 817.317C66.0001 824.704 66.9891 859.069 65.1601 881.317C64.3241 891.488 60.7882 917.095 59.7512 920.487C59.4712 921.406 59.0441 923.206 58.8021 924.487C56.8261 934.99 54.9081 942.177 54.1981 941.738C53.7301 941.449 53.6021 941.876 53.9131 942.686C54.6291 944.553 49.6771 969.773 47.7751 973.941C46.9921 975.66 45.6371 980.385 44.7651 984.441C43.8941 988.498 43.0181 992.492 42.8201 993.317C42.6211 994.142 41.4991 999.522 40.3251 1005.27C39.1511 1011.02 38.0401 1015.97 37.8561 1016.27C37.3171 1017.15 32.4981 1053.33 30.4581 1071.82C27.8031 1095.88 27.9571 1151.21 30.7501 1176.38C32.7711 1194.59 39.6701 1228.37 49.2951 1267.17C55.2501 1291.18 61.0791 1315.32 62.2471 1320.82C63.4161 1326.32 65.0471 1333.44 65.8721 1336.64C67.8991 1344.5 73.6401 1372.65 74.7811 1380.32C74.8221 1380.59 75.1501 1381.28 75.5091 1381.84C76.9251 1384.06 82.5762 1415.89 84.9152 1434.82C87.9392 1459.29 89.3071 1464.17 94.4681 1468.83L98.3311 1472.32L139.578 1472.42C162.264 1472.48 197.925 1472.45 218.825 1472.35L256.825 1472.18L260.452 1469.81C262.447 1468.52 265.116 1465.77 266.383 1463.72C268.5 1460.3 268.748 1458.4 269.431 1440.41C270.151 1421.45 271.449 1404.9 273.438 1389.32C273.965 1385.19 274.846 1377.77 275.396 1372.82C275.946 1367.87 277.31 1357.74 278.427 1350.32C279.544 1342.89 280.876 1334.01 281.387 1330.57C282.551 1322.75 289.876 1288.52 291.822 1281.82C292.62 1279.07 294.442 1271.42 295.87 1264.82C297.299 1258.22 300.419 1244.94 302.805 1235.32C311.216 1201.39 314.303 1175.92 314.99 1134.82C315.414 1109.45 315.22 1103.94 313.442 1090.82C309.314 1060.36 304.314 1027.63 302.825 1021.32C300.293 1010.58 298.337 995.342 298.332 986.317C298.327 978.774 300.285 965.458 302.007 961.317C302.35 960.492 302.764 958.239 302.927 956.311C303.323 951.612 309.597 933.716 314.318 923.817C318.126 915.833 326.836 890.882 329.713 879.715C333.989 863.121 339.132 832.622 341.332 810.817C343.037 793.913 343.269 789.797 343.839 766.317C344.35 745.264 345.233 727.919 346.943 705.317C347.861 693.189 353.369 662.694 354.447 663.773C354.752 664.077 355.056 662.861 355.123 661.071C355.297 656.467 360.831 631.69 367.577 605.317C369.476 597.892 371.583 589.117 372.259 585.817C373.425 580.12 374.337 575.891 376.354 566.817C376.843 564.617 378.184 558.317 379.335 552.817C382.886 535.834 386.438 520.135 388.385 512.817C389.41 508.967 390.507 504.242 390.823 502.317C391.139 500.392 392.031 495.217 392.804 490.817C393.577 486.417 394.513 480.342 394.884 477.317C395.255 474.292 395.701 471.055 395.874 470.124C396.047 469.194 396.484 464.919 396.845 460.624C398.233 444.125 402.118 409.461 402.681 408.549C403.159 407.777 405.195 393.677 405.567 388.567C405.617 387.88 405.997 387.317 406.41 387.317C406.823 387.317 407.761 387.097 408.493 386.828C411.279 385.804 412.212 388.132 413.305 398.832C413.922 404.874 415.352 418.367 416.484 428.817C417.616 439.267 418.679 450.16 418.848 453.024C419.016 455.888 419.43 458.677 419.766 459.222C420.103 459.767 421.497 467.099 422.865 475.515C424.232 483.931 426.215 495.317 427.271 500.817C428.327 506.317 429.444 513.452 429.753 516.672C430.062 519.892 431.193 526.417 432.267 531.172C433.341 535.927 435.181 544.317 436.356 549.817C437.531 555.317 438.908 560.717 439.416 561.817C439.924 562.917 442.147 571.917 444.355 581.817C446.563 591.717 449.008 602.067 449.788 604.817C450.567 607.567 451.442 611.617 451.731 613.817C452.303 618.172 453.827 624.877 460.14 650.817C462.415 660.167 465.184 674.117 466.293 681.817C467.401 689.517 468.501 696.942 468.736 698.317C470.063 706.061 471.077 721.09 471.838 744.317C473.456 793.623 477.407 837.126 482.192 858.317C482.751 860.792 483.426 863.942 483.693 865.317C484.626 870.123 496.379 906.431 500.448 917.078C502.706 922.984 505.666 930.742 507.027 934.317C517.079 960.731 518.382 967.245 517.834 988.317C517.508 1000.86 513.912 1028.57 510.308 1046.32C507.776 1058.78 503.68 1095.19 502.264 1117.82C501.161 1135.45 501.59 1155.89 503.355 1169.82C507.681 1203.94 508.895 1210.25 519.712 1254.82C523.85 1271.87 528.832 1294.59 530.783 1305.32C532.734 1316.04 535.003 1327.29 535.826 1330.32C537.642 1337 542.048 1368.69 542.862 1380.94C543.187 1385.82 544.333 1399.04 545.41 1410.32C546.486 1421.59 547.816 1436.67 548.365 1443.82C548.914 1450.97 549.83 1458.25 550.4 1460C551.562 1463.57 558.017 1469.87 562.127 1471.44C565.791 1472.84 712.131 1472.72 717.364 1471.31C721.46 1470.2 726.226 1465.51 728.059 1460.76C728.685 1459.14 729.919 1452.64 730.801 1446.32C733.356 1428 743.961 1370.61 748.726 1349.32C751.127 1338.59 754.544 1323.29 756.32 1315.32C758.097 1307.34 760.871 1296.09 762.486 1290.32C767.076 1273.9 767.91 1270.63 770.762 1257.82C772.231 1251.22 774.505 1241.09 775.814 1235.32C783.677 1200.64 785.962 1186.14 788.319 1155.92C791.078 1120.56 787.956 1060.37 781.78 1029.82C777.488 1008.59 776.261 1002.79 773.849 992.317C772.392 985.992 770.124 975.867 768.81 969.817C767.496 963.767 764.867 952.292 762.968 944.317C761.069 936.342 759.189 927.567 758.792 924.817C758.394 922.067 757.89 918.917 757.671 917.817C756.844 913.646 753.641 889.59 752.812 881.317C750.628 859.538 751.544 819.411 754.245 818.51C754.777 818.333 754.936 817.468 754.599 816.588C754.144 815.402 754.352 815.21 755.405 815.845C756.605 816.568 756.618 816.446 755.489 815.053C754.754 814.146 754.465 812.9 754.846 812.282C755.228 811.665 755.759 809.058 756.027 806.489C756.294 803.921 757.033 801.488 757.669 801.083C758.459 800.581 758.35 800.338 757.325 800.317C756.352 800.297 756.211 800.028 756.924 799.552C757.528 799.148 758.046 798.142 758.074 797.317C758.129 795.706 759.854 784.741 760.827 779.817C762.503 771.328 765.905 760.528 767.512 758.592C768.094 757.891 768.235 757.317 767.825 757.317C767.415 757.317 767.505 756.755 768.023 756.067C768.542 755.38 770.06 751.442 771.396 747.317C772.732 743.192 774.054 739.592 774.334 739.317C775.835 737.844 785.852 709.246 786.943 703.317C787.196 701.942 787.701 699.917 788.065 698.817C788.429 697.717 788.754 696.592 788.787 696.317C788.821 696.042 789.372 694.467 790.012 692.817C795.025 679.897 805.07 634.31 810.288 600.802C813.023 583.233 813.259 581.459 813.818 574.317C814.098 570.742 814.806 562.642 815.393 556.317C819.401 513.09 818.25 454.895 812.298 399.817C811.763 394.867 811.062 388.117 810.74 384.817C810.419 381.517 809.525 376.117 808.755 372.817C807.985 369.517 807.348 365.123 807.34 363.053C807.332 360.983 806.901 358.508 806.383 357.553C805.865 356.598 804.698 350.867 803.79 344.817C802.881 338.767 801.066 328.324 799.756 321.61C798.446 314.896 797.527 307.6 797.714 305.398C797.9 303.195 797.64 301.255 797.135 301.087C796.629 300.918 794.217 292.464 791.773 282.299C789.329 272.134 786.216 260.217 784.853 255.817C783.491 251.417 781.438 243.992 780.291 239.317C779.144 234.642 776.887 226.664 775.276 221.588C772.212 211.938 768.783 199.585 767.983 195.317C767.726 193.942 766.162 187.417 764.509 180.817C762.856 174.217 760.763 164.767 759.858 159.817C758.953 154.867 757.315 145.867 756.218 139.817C755.121 133.767 753.99 127.712 753.704 126.362C753.418 125.012 752.55 118.487 751.774 111.862C748.25 81.7522 742.918 48.4502 740.222 39.7112C736.688 28.2582 731.737 18.9532 726.026 13.0332C720.289 7.08619 706.407 1.30419 696.325 0.66219C684.879 -0.0668097 139.459 -0.272806 126.325 0.447194ZM304.483 960.317C304.483 961.692 304.71 962.255 304.987 961.567C305.265 960.88 305.265 959.755 304.987 959.067C304.71 958.38 304.483 958.942 304.483 960.317ZM304.483 965.317C304.483 966.692 304.71 967.255 304.987 966.567C305.265 965.88 305.265 964.755 304.987 964.067C304.71 963.38 304.483 963.942 304.483 965.317Z" fill="currentColor"/>
</svg>
