<svg width="946" height="1274" viewBox="0 0 946 1274" fill="none" xmlns="http://www.w3.org/2000/svg">
<path fill-rule="evenodd" clip-rule="evenodd" d="M236.155 1.85172C233.86 2.92372 231.264 4.89872 230.385 6.23972C229.506 7.58072 226.15 15.6057 222.927 24.0737C211.984 52.8217 208.724 59.5877 194.066 83.9687C181.705 104.53 164.418 130.659 149.74 150.969C121.95 189.423 104.409 217.203 85.0206 253.469C62.7826 295.065 37.6447 361.951 25.4487 411.969C16.4747 448.778 10.3747 480.653 6.21668 512.469C1.51468 548.455 1.01069 555.142 0.226685 591.969C-0.687315 634.851 1.15867 669.063 5.83667 695.969C6.36267 698.994 7.49263 706.644 8.34863 712.969C11.2876 734.693 21.0227 786.356 24.2717 797.469C25.8187 802.76 28.9127 814.106 36.8167 843.469C41.4117 860.54 44.1366 869.026 52.0646 890.969C66.8476 931.883 70.9447 942.847 74.8597 951.969C78.5957 960.676 82.3506 971.07 95.8116 1009.97C109.876 1050.61 115.125 1067.25 124.2 1099.97C130.289 1121.92 139.662 1172.95 141.742 1195.47C142.301 1201.52 143.191 1210.97 143.719 1216.47C144.247 1221.97 144.954 1234.31 145.288 1243.89C145.982 1263.74 146.836 1266.69 153.022 1270.59C158.902 1274.3 166.7 1274.14 172.147 1270.2C178.878 1265.32 180.287 1261.45 180.043 1248.5C179.928 1242.43 179.612 1234.99 179.341 1231.97C179.069 1228.94 178.146 1217.24 177.288 1205.97C176.43 1194.69 174.821 1179.39 173.712 1171.97C172.603 1164.54 171.476 1156.89 171.206 1154.97C168.747 1137.39 159.421 1095.24 152.622 1070.97C145.555 1045.74 121.943 976.006 113.007 953.969C102.969 929.216 81.0927 868.057 74.7327 846.969C71.9957 837.894 68.4467 826.194 66.8467 820.969C63.2347 809.174 59.9487 795.89 55.8387 776.469C54.0937 768.219 51.5817 756.969 50.2567 751.469C45.5867 732.077 40.7167 698.85 37.1317 661.909C35.0307 640.266 34.7387 568.766 36.6677 548.469C37.9837 534.626 42.5277 500.927 45.9717 479.469C49.4057 458.081 61.2417 408.56 66.6467 392.969C68.2677 388.294 71.2667 379.069 73.3107 372.469C83.9827 338.018 107.511 283.149 122.837 256.969C124.286 254.494 127.428 248.869 129.819 244.469C140.153 225.455 157.384 199.284 181.983 165.239C212.811 122.575 235.607 83.8597 249.901 49.8967C259.868 26.2127 261.733 16.9907 257.972 9.97773C253.461 1.56773 244.171 -1.89328 236.155 1.85172ZM641.216 1.87372C635.404 5.41672 634.35 7.59373 623.728 37.9687C620.423 47.4187 614.843 68.9317 612.316 81.9687C608.954 99.3087 609.464 137.74 613.272 154.065C614.903 161.057 615.114 160.974 604.752 157.428C583.407 150.125 557.617 143.223 541.327 140.454L531.327 138.755L524.327 131.506C512.339 119.091 499.909 100.281 487.327 75.5117C484.027 69.0147 479.505 61.6677 477.279 59.1837C473.574 55.0507 472.767 54.6327 467.779 54.2617C461.4 53.7887 457.075 55.9327 453.764 61.2097C448.755 69.1907 454.088 84.8657 471.68 113.866C482.558 131.799 485.292 136.838 484.546 137.583C483.998 138.131 482.205 138.416 472.821 139.447C462.621 140.567 455.833 146.601 455.829 154.55C455.828 156.244 456.891 159.731 458.191 162.3C459.491 164.868 460.25 166.969 459.877 166.969C459.505 166.969 454.053 166.272 447.763 165.42C430.776 163.119 405.507 163.323 387.827 165.904C353.577 170.903 310.23 189.874 294.795 206.62C290.881 210.865 290.626 211.489 291.095 215.651C291.987 223.567 299.339 228.626 306.174 226.027C307.728 225.436 311.58 222.968 314.733 220.542C322.515 214.553 325.268 212.943 340.327 205.568C357.805 197.009 364.263 194.603 377.827 191.596C417.515 182.799 453.713 185.809 492.704 201.147C520.27 211.991 555.809 236.094 574.488 256.614C594.131 278.192 603.978 292.596 617.8 319.969C628.174 340.513 630.162 342.969 636.419 342.969C640.036 342.969 645.477 339.213 646.93 335.713C648.565 331.777 647.57 328.214 640.738 313.535C626.653 283.273 609.218 258.217 586.85 236.094C571.251 220.665 561.57 212.62 546.827 202.833C534.306 194.521 505.619 180.159 494.077 176.425C489.54 174.956 485.827 173.292 485.827 172.727C485.827 171.208 524.21 172.495 536.15 174.414C561.218 178.443 588.698 186.59 607.827 195.663C627.693 205.085 660.613 228.603 676.145 244.469C686.868 255.422 699.626 271.544 706.73 283.116C730.597 321.994 742.818 357.413 749.292 406.469C750.454 415.274 751.731 447.113 751.24 455.036C750.369 469.088 748.777 485.235 747.844 489.469C747.36 491.669 746.429 496.394 745.776 499.969C740.558 528.554 731.896 555.294 718.082 585.469C708.519 606.356 707.32 610.632 707.426 623.469C707.52 634.861 708.967 642.623 717.308 676.469C726.366 713.228 734.739 755.636 739.324 787.969C740.064 793.194 741.598 803.094 742.732 809.969C746.525 832.976 750.425 895.859 750.081 928.469C749.748 960.071 745.104 1002.82 738.729 1032.97C731.739 1066.02 726.015 1085.84 716.705 1109.19C713.477 1117.29 709.62 1127.75 708.135 1132.44C706.65 1137.13 705.185 1140.96 704.881 1140.96C704.576 1140.95 702.573 1138.36 700.429 1135.21C695.3 1127.66 685.394 1114.11 680.077 1107.38C677.74 1104.42 670.99 1095.62 665.077 1087.84C659.165 1080.05 652.364 1071.15 649.965 1068.07C635.174 1049.07 606.827 1002.13 606.827 996.641C606.827 995.16 607.754 989.79 608.886 984.708C614.902 957.721 618.857 924.504 618.87 900.858C618.892 861.787 614.065 830.209 602.682 794.955L598.641 782.441L608.352 764.455C613.693 754.563 618.414 746.019 618.845 745.469C619.275 744.919 621.648 739.744 624.119 733.969C626.59 728.194 630.395 719.644 632.574 714.969C646.37 685.374 658.983 650.985 662.82 632.503C663.501 629.225 665.828 619.551 667.993 611.005C672.879 591.714 677.305 562.445 679.281 536.358C681.119 512.089 681.753 490.032 680.768 484.644C678.963 474.775 664.925 473.077 660.229 482.159C658.906 484.716 658.369 489.763 657.75 505.447C655.317 567.099 646.87 612.548 628.287 663.969C620.449 685.655 610.432 708.838 599.201 731.284C587.8 754.067 585.829 756.763 584.263 751.719C583.879 750.482 582.611 748.144 581.446 746.525C580.28 744.905 577.752 740.741 575.827 737.271C568.813 724.627 549.334 700.637 535.484 687.585C528.248 680.766 520.302 673.49 517.827 671.416C510.386 665.181 485.926 647.072 482.674 645.39C481.005 644.527 476.195 641.468 471.983 638.592C462.915 632.398 456.779 628.802 430.827 614.467C389.167 591.456 376.599 584.059 356.327 570.617C344.777 562.958 333.077 554.843 330.327 552.584C291.833 520.959 267.276 491.441 250.366 456.469C240.234 435.513 239.558 433.896 235.535 420.969C232.377 410.818 230.537 403.724 226.722 386.969C225.349 380.942 223.345 378.083 219.311 376.398C213.152 373.825 205.78 377.352 204.191 383.634C202.418 390.64 212.385 428.881 221.48 449.969C226.967 462.689 239.188 486.468 244.676 495.099L248.682 501.399L245.228 506.104C241.397 511.323 237.577 521.765 228.819 550.966C214.024 600.292 206.559 637.037 198.651 699.469C197.029 712.273 197.044 768.789 198.674 786.469C203.686 840.826 217.183 896.275 238.106 948.469C244.366 964.084 258.986 994.537 264.511 1003.47C265.872 1005.67 271.282 1015.34 276.533 1024.97C281.785 1034.59 290.255 1049.67 295.355 1058.47C308.762 1081.61 329.697 1122.2 336.733 1138.7C343.316 1154.14 354.207 1185.77 358.173 1200.97C361.355 1213.16 367.507 1244.23 368.685 1254.06C369.661 1262.21 372.873 1268.6 377.11 1270.83C385.105 1275.04 392.436 1274.01 398.462 1267.82L402.327 1263.86L402.198 1255.16C402.027 1243.64 397.682 1216.76 392.832 1197.22C387.443 1175.51 375.063 1138.53 368.237 1123.75C359.446 1104.72 343.288 1072.74 337.082 1062.09C330.651 1051.06 324.574 1040.16 318.059 1027.97C315.56 1023.29 311.286 1015.87 308.561 1011.47C298.195 994.733 273.106 943.941 268.797 930.969C268.34 929.594 266.566 925.112 264.853 921.009C259.999 909.375 248.098 869.465 245.758 856.969C245.088 853.394 244.174 849.746 243.725 848.862C242.296 846.046 236.008 809.989 234.413 795.469C232.599 778.944 230.737 739.442 231.302 729.469C232.604 706.515 235.925 674.875 238.86 657.469C239.973 650.869 241.589 641.194 242.451 635.969C243.931 626.995 250.895 597.384 252.799 591.969C253.282 590.594 255.053 584.519 256.734 578.469C258.415 572.419 262.273 559.894 265.308 550.635C268.344 541.377 270.827 533.164 270.827 532.385C270.827 531.606 271.323 530.969 271.929 530.969C272.535 530.969 279.173 536.991 286.679 544.351C294.185 551.711 301.902 559.054 303.827 560.67C313.398 568.701 336.516 586.272 341.823 589.547C345.125 591.586 347.827 593.859 347.827 594.599C347.827 595.339 346.501 602.362 344.88 610.207C339.565 635.926 336.952 652.162 334.777 672.969C332.87 691.213 332.688 697.487 333.122 729.969C333.64 768.808 334.293 776.414 339.897 808.969C348.767 860.488 362.14 897.037 382.417 925.168C392.581 939.27 398.327 945.644 410.657 956.497C429.808 973.353 439.889 985.434 446.269 999.174C451.929 1011.36 452.836 1017.51 463.357 1114.97C465.287 1132.84 467.56 1153.76 468.409 1161.45C469.258 1169.13 470.209 1179.03 470.522 1183.45C471.185 1192.76 472.685 1196.3 477.126 1199.01C481.208 1201.5 484.476 1201.48 488.637 1198.94C494.348 1195.46 495.225 1191.65 493.444 1178.08C492.605 1171.69 491.652 1163.32 491.325 1159.47C490.999 1155.62 490.538 1150.67 490.302 1148.47C490.065 1146.27 489.193 1137.04 488.363 1127.97C487.533 1118.89 486.383 1107.87 485.809 1103.47C485.234 1099.07 483.183 1081.07 481.25 1063.47C477.045 1025.17 475.656 1016 471.812 1001.18C466.562 980.938 454.894 964.198 433.19 945.772C421.67 935.992 406.492 920.081 400.902 911.925C395.342 903.813 385.246 884.123 380.927 872.969C379.117 868.294 377.262 863.569 376.804 862.469C370.151 846.489 360.849 799.667 358.824 771.969C358.241 763.994 357.328 753.869 356.794 749.469C355.342 737.492 355.63 706.326 357.34 690.469C358.17 682.769 359.283 671.294 359.813 664.969C360.853 652.571 362.289 643.223 366.456 621.719C368.991 608.641 369.93 606.598 372.377 608.839C372.9 609.318 377.152 611.667 381.827 614.059C386.502 616.451 393.702 620.409 397.827 622.854C401.952 625.299 408.702 629.101 412.827 631.304C416.952 633.506 423.252 637.1 426.827 639.291C430.402 641.482 438.617 646.362 445.083 650.136C463.07 660.635 487.376 676.889 499.452 686.494C513.367 697.561 534.333 718.772 543.415 730.969C556.875 749.048 566.068 765.397 574.125 785.588C581.606 804.333 583.034 808.862 587.333 827.469C593.339 853.468 595.185 869.759 595.206 896.969C595.223 918.615 594.668 926.467 591.323 951.933C589.648 964.68 583.601 990.438 578.401 1006.97C577.104 1011.09 574.595 1019.18 572.825 1024.95C571.056 1030.71 566.244 1043.76 562.131 1053.95C542.951 1101.45 531.017 1139.12 527.353 1163.71C523.204 1191.57 527.196 1228.63 537.482 1257.75C542.032 1270.63 544.747 1273.42 552.042 1272.72C557.624 1272.19 560.44 1270.03 561.749 1265.29C562.508 1262.54 562.131 1260.29 559.72 1253.19C553.239 1234.1 549.31 1213.52 548.917 1196.59C548.364 1172.76 554.195 1142.49 564.927 1113.47C567.165 1107.42 571.383 1095.72 574.301 1087.47C577.219 1079.22 581.506 1067.74 583.829 1061.97C586.151 1056.19 589.607 1046.97 591.509 1041.47C593.41 1035.97 595.363 1031.06 595.847 1030.57C596.363 1030.04 598.723 1032.91 601.528 1037.47C612.125 1054.69 632.356 1084.14 641.371 1095.47C668.32 1129.32 689.579 1160.16 703.107 1185.03C713.234 1203.65 729.359 1242.51 732.405 1255.65C734.371 1264.13 736.01 1267.24 740.17 1270.42C744.916 1274.04 751 1273.95 754.74 1270.21C756.258 1268.69 757.696 1266.86 757.935 1266.15C758.22 1265.29 759.798 1266.2 762.532 1268.8C773.498 1279.23 789.777 1272.26 791.335 1256.47C791.775 1252.02 780.274 1217.61 772.116 1198.97C759.944 1171.15 757.793 1166.7 751.04 1155.32C740.445 1137.47 740.825 1140.49 747.146 1124.4C760.654 1090.02 768.931 1061.63 774.683 1029.94C779.435 1003.77 779.738 1001.38 782.417 968.969C782.713 965.394 783.146 961.119 783.381 959.469C784.718 950.06 784.808 905.419 783.53 885.469C782.755 873.369 782.286 863.165 782.487 862.793C782.689 862.421 787.91 863.866 794.09 866.004C818.626 874.491 822.232 875.172 844.719 875.564C855.935 875.76 865.311 876.119 865.554 876.363C866.143 876.952 869.397 898.267 871.371 914.469C873.163 929.175 874.789 960.942 874.289 971.469C872.69 1005.11 867.26 1038.85 859.462 1063.59C855.22 1077.06 853.451 1089.02 854.31 1098.45C854.663 1102.31 856.261 1113.57 857.862 1123.47C862.503 1152.17 864.077 1171.07 863.356 1189.47C862.312 1216.14 860.321 1232.96 856.199 1249.92C855.337 1253.47 854.879 1257.9 855.181 1259.77C856.495 1267.86 866.042 1274.76 874.222 1273.54C883.871 1272.09 888.2 1265.89 891.723 1248.47C895.978 1227.43 897.12 1213.8 897.127 1183.97C897.134 1153.34 895.817 1139.22 890.343 1111.28C886.882 1093.61 887.027 1088.42 891.312 1076.58C893.229 1071.28 895.93 1062.56 897.315 1057.2C899.927 1047.09 905.174 1019.56 906.316 1009.97C906.677 1006.94 907.177 1003.12 907.428 1001.47C907.679 999.819 908.154 987.219 908.483 973.469C909.136 946.127 907.892 927.159 903.266 893.976C899.897 869.809 899.991 862.762 903.78 855.559C905.404 852.471 909.154 846.688 912.114 842.707C928.092 821.218 930.282 816.858 935.708 795.734C943.221 766.49 944.345 757.342 945.451 716.469C946.327 684.058 943.954 658.22 935.924 612.745C929.749 577.772 923.441 554.913 906.32 505.469C898.309 482.334 877.374 436.806 864.016 413.469C851.344 391.33 824.413 351.123 811.438 334.969C808.124 330.844 802.704 324.094 799.392 319.969C783.806 300.555 764.627 279.114 741.25 254.969C735.126 248.644 724.419 237.394 717.456 229.969C710.493 222.544 695.777 207.718 684.753 197.023C658.306 171.364 653.478 164.059 647.784 141.074C644.409 127.45 643.696 104.03 646.289 91.9687C646.585 90.5937 647.479 86.0537 648.275 81.8797C651.242 66.3407 656.004 48.0967 660.259 35.9687C662.671 29.0937 664.948 21.5657 665.32 19.2397C666.492 11.9017 662.978 4.67772 656.627 1.37372C652.735 -0.651276 644.941 -0.398276 641.216 1.87372ZM781.108 354.629C804.796 384.903 820.867 408.376 835.086 433.469C846.147 452.99 858.475 477.993 862.73 489.536C864.339 493.899 869.513 507.632 874.23 520.052C893.489 570.773 905.44 623.134 909.359 673.969C911.183 697.635 911.179 715.464 909.343 740.469C907.302 768.285 904.313 784.028 898.617 796.969C887.443 822.355 878.268 833.393 863.421 839.31C859.481 840.88 855.608 841.397 846.327 841.592C829.553 841.946 815.81 839.062 799.909 831.852C792.715 828.59 778.832 820.228 778.818 819.148C778.799 817.642 775.832 793.744 774.326 782.969C771.548 763.085 757.942 697.732 750.074 666.476C743.305 639.59 742.51 635.429 742.423 626.469C742.33 616.764 742.456 616.174 746.69 606.469C759.849 576.305 772.154 541.973 775.9 524.969C777.051 519.744 778.85 509.619 779.897 502.469C780.944 495.319 782.247 486.488 782.792 482.845C786.159 460.348 785.947 419.064 782.347 395.969C780.417 383.593 774.111 354.713 771.23 345.063C770.069 341.172 772.169 343.206 781.108 354.629Z" fill="currentColor"/>
</svg>
